%TF.GenerationSoftware,KiCad,Pcbnew,8.0.2*%
%TF.CreationDate,2024-05-14T21:00:48-05:00*%
%TF.ProjectId,AA Final edge cut repair,41412046-696e-4616-9c20-656467652063,rev?*%
%TF.SameCoordinates,Original*%
%TF.FileFunction,Soldermask,Bot*%
%TF.FilePolarity,Negative*%
%FSLAX46Y46*%
G04 Gerber Fmt 4.6, Leading zero omitted, Abs format (unit mm)*
G04 Created by KiCad (PCBNEW 8.0.2) date 2024-05-14 21:00:48*
%MOMM*%
%LPD*%
G01*
G04 APERTURE LIST*
G04 Aperture macros list*
%AMRoundRect*
0 Rectangle with rounded corners*
0 $1 Rounding radius*
0 $2 $3 $4 $5 $6 $7 $8 $9 X,Y pos of 4 corners*
0 Add a 4 corners polygon primitive as box body*
4,1,4,$2,$3,$4,$5,$6,$7,$8,$9,$2,$3,0*
0 Add four circle primitives for the rounded corners*
1,1,$1+$1,$2,$3*
1,1,$1+$1,$4,$5*
1,1,$1+$1,$6,$7*
1,1,$1+$1,$8,$9*
0 Add four rect primitives between the rounded corners*
20,1,$1+$1,$2,$3,$4,$5,0*
20,1,$1+$1,$4,$5,$6,$7,0*
20,1,$1+$1,$6,$7,$8,$9,0*
20,1,$1+$1,$8,$9,$2,$3,0*%
G04 Aperture macros list end*
%ADD10C,0.010000*%
%ADD11RoundRect,0.200000X-0.900000X-0.900000X0.900000X-0.900000X0.900000X0.900000X-0.900000X0.900000X0*%
%ADD12C,2.200000*%
%ADD13O,2.127200X2.127200*%
%ADD14RoundRect,0.200000X-0.863600X0.863600X-0.863600X-0.863600X0.863600X-0.863600X0.863600X0.863600X0*%
%ADD15C,2.127200*%
%ADD16RoundRect,0.333333X-0.566667X0.466667X-0.566667X-0.466667X0.566667X-0.466667X0.566667X0.466667X0*%
G04 APERTURE END LIST*
D10*
%TO.C,G\u002A\u002A\u002A*%
X58813706Y-26420008D02*
X58876409Y-26420728D01*
X58899892Y-26421830D01*
X58899969Y-26421878D01*
X58905078Y-26445163D01*
X58912526Y-26502109D01*
X58921315Y-26584175D01*
X58930449Y-26682821D01*
X58930513Y-26683565D01*
X58940123Y-26791201D01*
X58949647Y-26891047D01*
X58957908Y-26971161D01*
X58963203Y-27015867D01*
X58974111Y-27095242D01*
X54895882Y-27095242D01*
X55067614Y-26444584D01*
X56979411Y-26428850D01*
X57260109Y-26426636D01*
X57528585Y-26424704D01*
X57781838Y-26423065D01*
X58016870Y-26421731D01*
X58230680Y-26420713D01*
X58420269Y-26420020D01*
X58582635Y-26419664D01*
X58714781Y-26419656D01*
X58813706Y-26420008D01*
G36*
X58813706Y-26420008D02*
G01*
X58876409Y-26420728D01*
X58899892Y-26421830D01*
X58899969Y-26421878D01*
X58905078Y-26445163D01*
X58912526Y-26502109D01*
X58921315Y-26584175D01*
X58930449Y-26682821D01*
X58930513Y-26683565D01*
X58940123Y-26791201D01*
X58949647Y-26891047D01*
X58957908Y-26971161D01*
X58963203Y-27015867D01*
X58974111Y-27095242D01*
X54895882Y-27095242D01*
X55067614Y-26444584D01*
X56979411Y-26428850D01*
X57260109Y-26426636D01*
X57528585Y-26424704D01*
X57781838Y-26423065D01*
X58016870Y-26421731D01*
X58230680Y-26420713D01*
X58420269Y-26420020D01*
X58582635Y-26419664D01*
X58714781Y-26419656D01*
X58813706Y-26420008D01*
G37*
X30920542Y-23524950D02*
X30918841Y-23547420D01*
X30908301Y-23603080D01*
X30890565Y-23684107D01*
X30867277Y-23782675D01*
X30861294Y-23807060D01*
X30793672Y-24080794D01*
X30485016Y-24223117D01*
X30379599Y-24271278D01*
X30287682Y-24312424D01*
X30216106Y-24343561D01*
X30171712Y-24361693D01*
X30160753Y-24365091D01*
X30160675Y-24347540D01*
X30175771Y-24302029D01*
X30200727Y-24243034D01*
X30235211Y-24163436D01*
X30276030Y-24063241D01*
X30315360Y-23961743D01*
X30322168Y-23943499D01*
X30388028Y-23765672D01*
X30650098Y-23641124D01*
X30745924Y-23596432D01*
X30827287Y-23560095D01*
X30887021Y-23535189D01*
X30917961Y-23524794D01*
X30920542Y-23524950D01*
G36*
X30920542Y-23524950D02*
G01*
X30918841Y-23547420D01*
X30908301Y-23603080D01*
X30890565Y-23684107D01*
X30867277Y-23782675D01*
X30861294Y-23807060D01*
X30793672Y-24080794D01*
X30485016Y-24223117D01*
X30379599Y-24271278D01*
X30287682Y-24312424D01*
X30216106Y-24343561D01*
X30171712Y-24361693D01*
X30160753Y-24365091D01*
X30160675Y-24347540D01*
X30175771Y-24302029D01*
X30200727Y-24243034D01*
X30235211Y-24163436D01*
X30276030Y-24063241D01*
X30315360Y-23961743D01*
X30322168Y-23943499D01*
X30388028Y-23765672D01*
X30650098Y-23641124D01*
X30745924Y-23596432D01*
X30827287Y-23560095D01*
X30887021Y-23535189D01*
X30917961Y-23524794D01*
X30920542Y-23524950D01*
G37*
X30288793Y-25838977D02*
X30276660Y-25894545D01*
X30256431Y-25975889D01*
X30229910Y-26075553D01*
X30217988Y-26118717D01*
X30136113Y-26412163D01*
X29608329Y-26758994D01*
X29446807Y-26865219D01*
X29317356Y-26950335D01*
X29216549Y-27016303D01*
X29140961Y-27065081D01*
X29087165Y-27098627D01*
X29051737Y-27118903D01*
X29031249Y-27127865D01*
X29022276Y-27127474D01*
X29021392Y-27119689D01*
X29025171Y-27106469D01*
X29030186Y-27089772D01*
X29030237Y-27089571D01*
X29043899Y-27045315D01*
X29068399Y-26974759D01*
X29099137Y-26891021D01*
X29108832Y-26865434D01*
X29174016Y-26694737D01*
X29728105Y-26251371D01*
X29859974Y-26146304D01*
X29981136Y-26050633D01*
X30087706Y-25967358D01*
X30175800Y-25899480D01*
X30241532Y-25849998D01*
X30281018Y-25821914D01*
X30291029Y-25816638D01*
X30288793Y-25838977D01*
G36*
X30288793Y-25838977D02*
G01*
X30276660Y-25894545D01*
X30256431Y-25975889D01*
X30229910Y-26075553D01*
X30217988Y-26118717D01*
X30136113Y-26412163D01*
X29608329Y-26758994D01*
X29446807Y-26865219D01*
X29317356Y-26950335D01*
X29216549Y-27016303D01*
X29140961Y-27065081D01*
X29087165Y-27098627D01*
X29051737Y-27118903D01*
X29031249Y-27127865D01*
X29022276Y-27127474D01*
X29021392Y-27119689D01*
X29025171Y-27106469D01*
X29030186Y-27089772D01*
X29030237Y-27089571D01*
X29043899Y-27045315D01*
X29068399Y-26974759D01*
X29099137Y-26891021D01*
X29108832Y-26865434D01*
X29174016Y-26694737D01*
X29728105Y-26251371D01*
X29859974Y-26146304D01*
X29981136Y-26050633D01*
X30087706Y-25967358D01*
X30175800Y-25899480D01*
X30241532Y-25849998D01*
X30281018Y-25821914D01*
X30291029Y-25816638D01*
X30288793Y-25838977D01*
G37*
X48919857Y-24706742D02*
X49070427Y-24707250D01*
X49243686Y-24708091D01*
X49435705Y-24709231D01*
X49642555Y-24710636D01*
X49860309Y-24712270D01*
X50085039Y-24714101D01*
X50312814Y-24716092D01*
X50539709Y-24718211D01*
X50761793Y-24720422D01*
X50975139Y-24722691D01*
X51175819Y-24724985D01*
X51359903Y-24727267D01*
X51523464Y-24729505D01*
X51662574Y-24731663D01*
X51773303Y-24733707D01*
X51851724Y-24735603D01*
X51893908Y-24737317D01*
X51894691Y-24737374D01*
X52044188Y-24748611D01*
X51978356Y-25038218D01*
X51912523Y-25327825D01*
X50214900Y-25333243D01*
X48517278Y-25338660D01*
X48517773Y-25290909D01*
X48521962Y-25252428D01*
X48533030Y-25182233D01*
X48549325Y-25090080D01*
X48569198Y-24985720D01*
X48570608Y-24978575D01*
X48590306Y-24878643D01*
X48606631Y-24795144D01*
X48618028Y-24736071D01*
X48622947Y-24709418D01*
X48623030Y-24708732D01*
X48643562Y-24707562D01*
X48702497Y-24706864D01*
X48795904Y-24706602D01*
X48919857Y-24706742D01*
G36*
X48919857Y-24706742D02*
G01*
X49070427Y-24707250D01*
X49243686Y-24708091D01*
X49435705Y-24709231D01*
X49642555Y-24710636D01*
X49860309Y-24712270D01*
X50085039Y-24714101D01*
X50312814Y-24716092D01*
X50539709Y-24718211D01*
X50761793Y-24720422D01*
X50975139Y-24722691D01*
X51175819Y-24724985D01*
X51359903Y-24727267D01*
X51523464Y-24729505D01*
X51662574Y-24731663D01*
X51773303Y-24733707D01*
X51851724Y-24735603D01*
X51893908Y-24737317D01*
X51894691Y-24737374D01*
X52044188Y-24748611D01*
X51978356Y-25038218D01*
X51912523Y-25327825D01*
X50214900Y-25333243D01*
X48517278Y-25338660D01*
X48517773Y-25290909D01*
X48521962Y-25252428D01*
X48533030Y-25182233D01*
X48549325Y-25090080D01*
X48569198Y-24985720D01*
X48570608Y-24978575D01*
X48590306Y-24878643D01*
X48606631Y-24795144D01*
X48618028Y-24736071D01*
X48622947Y-24709418D01*
X48623030Y-24708732D01*
X48643562Y-24707562D01*
X48702497Y-24706864D01*
X48795904Y-24706602D01*
X48919857Y-24706742D01*
G37*
X29608741Y-27884842D02*
X29595489Y-27943412D01*
X29574622Y-28023755D01*
X29548820Y-28116609D01*
X29520764Y-28212715D01*
X29493136Y-28302809D01*
X29468617Y-28377633D01*
X29449887Y-28427923D01*
X29442144Y-28442999D01*
X29420895Y-28461057D01*
X29370691Y-28499868D01*
X29296377Y-28555894D01*
X29202796Y-28625597D01*
X29094795Y-28705440D01*
X28977217Y-28791884D01*
X28854908Y-28881393D01*
X28732711Y-28970427D01*
X28615472Y-29055451D01*
X28508036Y-29132925D01*
X28415247Y-29199312D01*
X28341949Y-29251075D01*
X28292988Y-29284675D01*
X28273227Y-29296575D01*
X28260793Y-29280952D01*
X28260778Y-29280145D01*
X28267169Y-29255276D01*
X28284769Y-29197748D01*
X28311219Y-29115004D01*
X28344162Y-29014484D01*
X28361373Y-28962749D01*
X28461967Y-28661784D01*
X29033414Y-28249656D01*
X29169663Y-28152105D01*
X29294687Y-28063960D01*
X29404466Y-27987948D01*
X29494979Y-27926797D01*
X29562207Y-27883233D01*
X29602131Y-27859985D01*
X29611696Y-27857306D01*
X29608741Y-27884842D01*
G36*
X29608741Y-27884842D02*
G01*
X29595489Y-27943412D01*
X29574622Y-28023755D01*
X29548820Y-28116609D01*
X29520764Y-28212715D01*
X29493136Y-28302809D01*
X29468617Y-28377633D01*
X29449887Y-28427923D01*
X29442144Y-28442999D01*
X29420895Y-28461057D01*
X29370691Y-28499868D01*
X29296377Y-28555894D01*
X29202796Y-28625597D01*
X29094795Y-28705440D01*
X28977217Y-28791884D01*
X28854908Y-28881393D01*
X28732711Y-28970427D01*
X28615472Y-29055451D01*
X28508036Y-29132925D01*
X28415247Y-29199312D01*
X28341949Y-29251075D01*
X28292988Y-29284675D01*
X28273227Y-29296575D01*
X28260793Y-29280952D01*
X28260778Y-29280145D01*
X28267169Y-29255276D01*
X28284769Y-29197748D01*
X28311219Y-29115004D01*
X28344162Y-29014484D01*
X28361373Y-28962749D01*
X28461967Y-28661784D01*
X29033414Y-28249656D01*
X29169663Y-28152105D01*
X29294687Y-28063960D01*
X29404466Y-27987948D01*
X29494979Y-27926797D01*
X29562207Y-27883233D01*
X29602131Y-27859985D01*
X29611696Y-27857306D01*
X29608741Y-27884842D01*
G37*
X36544345Y-21070739D02*
X36811186Y-21073331D01*
X37083606Y-21076182D01*
X37355675Y-21079216D01*
X37621465Y-21082359D01*
X37875050Y-21085537D01*
X38110500Y-21088674D01*
X38321887Y-21091698D01*
X38503284Y-21094532D01*
X38648763Y-21097104D01*
X38658903Y-21097300D01*
X39330945Y-21110439D01*
X39330945Y-21782409D01*
X37107018Y-21782409D01*
X36751489Y-21782381D01*
X36435934Y-21782274D01*
X36157993Y-21782047D01*
X35915306Y-21781660D01*
X35705514Y-21781074D01*
X35526258Y-21780250D01*
X35375177Y-21779148D01*
X35249913Y-21777728D01*
X35148104Y-21775952D01*
X35067393Y-21773779D01*
X35005419Y-21771170D01*
X34959823Y-21768085D01*
X34928244Y-21764486D01*
X34908324Y-21760332D01*
X34897703Y-21755584D01*
X34894021Y-21750203D01*
X34894501Y-21745367D01*
X34906274Y-21706688D01*
X34925841Y-21641971D01*
X34947304Y-21570742D01*
X34973492Y-21483708D01*
X35005820Y-21376286D01*
X35038225Y-21268620D01*
X35045263Y-21245237D01*
X35101828Y-21057315D01*
X36544345Y-21070739D01*
G36*
X36544345Y-21070739D02*
G01*
X36811186Y-21073331D01*
X37083606Y-21076182D01*
X37355675Y-21079216D01*
X37621465Y-21082359D01*
X37875050Y-21085537D01*
X38110500Y-21088674D01*
X38321887Y-21091698D01*
X38503284Y-21094532D01*
X38648763Y-21097104D01*
X38658903Y-21097300D01*
X39330945Y-21110439D01*
X39330945Y-21782409D01*
X37107018Y-21782409D01*
X36751489Y-21782381D01*
X36435934Y-21782274D01*
X36157993Y-21782047D01*
X35915306Y-21781660D01*
X35705514Y-21781074D01*
X35526258Y-21780250D01*
X35375177Y-21779148D01*
X35249913Y-21777728D01*
X35148104Y-21775952D01*
X35067393Y-21773779D01*
X35005419Y-21771170D01*
X34959823Y-21768085D01*
X34928244Y-21764486D01*
X34908324Y-21760332D01*
X34897703Y-21755584D01*
X34894021Y-21750203D01*
X34894501Y-21745367D01*
X34906274Y-21706688D01*
X34925841Y-21641971D01*
X34947304Y-21570742D01*
X34973492Y-21483708D01*
X35005820Y-21376286D01*
X35038225Y-21268620D01*
X35045263Y-21245237D01*
X35101828Y-21057315D01*
X36544345Y-21070739D01*
G37*
X29118795Y-32152242D02*
X29134661Y-32204042D01*
X29154322Y-32279708D01*
X29168342Y-32339284D01*
X29192339Y-32444616D01*
X29216653Y-32550255D01*
X29237323Y-32639033D01*
X29244019Y-32667386D01*
X29272968Y-32789113D01*
X28446464Y-33693969D01*
X28295262Y-33859287D01*
X28152373Y-34015096D01*
X28020374Y-34158613D01*
X27901845Y-34287053D01*
X27799367Y-34397631D01*
X27715517Y-34487563D01*
X27652877Y-34554065D01*
X27614025Y-34594351D01*
X27601702Y-34605881D01*
X27595400Y-34588567D01*
X27590408Y-34536183D01*
X27587109Y-34455979D01*
X27585886Y-34355209D01*
X27586074Y-34309547D01*
X27588024Y-34185752D01*
X27591483Y-34063373D01*
X27595991Y-33955339D01*
X27601084Y-33874578D01*
X27601949Y-33864778D01*
X27615195Y-33723397D01*
X28356028Y-32928322D01*
X28499554Y-32774536D01*
X28634390Y-32630539D01*
X28757788Y-32499234D01*
X28867000Y-32383522D01*
X28959277Y-32286305D01*
X29031870Y-32210485D01*
X29082032Y-32158964D01*
X29107015Y-32134642D01*
X29109237Y-32133078D01*
X29118795Y-32152242D01*
G36*
X29118795Y-32152242D02*
G01*
X29134661Y-32204042D01*
X29154322Y-32279708D01*
X29168342Y-32339284D01*
X29192339Y-32444616D01*
X29216653Y-32550255D01*
X29237323Y-32639033D01*
X29244019Y-32667386D01*
X29272968Y-32789113D01*
X28446464Y-33693969D01*
X28295262Y-33859287D01*
X28152373Y-34015096D01*
X28020374Y-34158613D01*
X27901845Y-34287053D01*
X27799367Y-34397631D01*
X27715517Y-34487563D01*
X27652877Y-34554065D01*
X27614025Y-34594351D01*
X27601702Y-34605881D01*
X27595400Y-34588567D01*
X27590408Y-34536183D01*
X27587109Y-34455979D01*
X27585886Y-34355209D01*
X27586074Y-34309547D01*
X27588024Y-34185752D01*
X27591483Y-34063373D01*
X27595991Y-33955339D01*
X27601084Y-33874578D01*
X27601949Y-33864778D01*
X27615195Y-33723397D01*
X28356028Y-32928322D01*
X28499554Y-32774536D01*
X28634390Y-32630539D01*
X28757788Y-32499234D01*
X28867000Y-32383522D01*
X28959277Y-32286305D01*
X29031870Y-32210485D01*
X29082032Y-32158964D01*
X29107015Y-32134642D01*
X29109237Y-32133078D01*
X29118795Y-32152242D01*
G37*
X29038644Y-30110462D02*
X29036433Y-30166866D01*
X29030714Y-30245799D01*
X29022425Y-30337531D01*
X29012507Y-30432332D01*
X29001899Y-30520472D01*
X28991538Y-30592220D01*
X28983656Y-30632941D01*
X28968606Y-30657707D01*
X28930671Y-30699260D01*
X28868143Y-30759126D01*
X28779319Y-30838830D01*
X28662491Y-30939900D01*
X28515955Y-31063861D01*
X28338006Y-31212240D01*
X28315498Y-31230899D01*
X28172482Y-31349105D01*
X28039540Y-31458424D01*
X27920207Y-31555992D01*
X27818020Y-31638942D01*
X27736515Y-31704408D01*
X27679227Y-31749525D01*
X27649693Y-31771425D01*
X27646563Y-31773075D01*
X27640057Y-31754175D01*
X27639424Y-31705862D01*
X27642061Y-31668288D01*
X27650168Y-31599912D01*
X27663317Y-31505838D01*
X27679222Y-31402060D01*
X27686579Y-31356991D01*
X27721028Y-31150481D01*
X28372977Y-30612657D01*
X28515594Y-30495512D01*
X28648004Y-30387726D01*
X28766685Y-30292094D01*
X28868114Y-30211409D01*
X28948769Y-30148467D01*
X29005128Y-30106062D01*
X29033667Y-30086990D01*
X29036409Y-30086317D01*
X29038644Y-30110462D01*
G36*
X29038644Y-30110462D02*
G01*
X29036433Y-30166866D01*
X29030714Y-30245799D01*
X29022425Y-30337531D01*
X29012507Y-30432332D01*
X29001899Y-30520472D01*
X28991538Y-30592220D01*
X28983656Y-30632941D01*
X28968606Y-30657707D01*
X28930671Y-30699260D01*
X28868143Y-30759126D01*
X28779319Y-30838830D01*
X28662491Y-30939900D01*
X28515955Y-31063861D01*
X28338006Y-31212240D01*
X28315498Y-31230899D01*
X28172482Y-31349105D01*
X28039540Y-31458424D01*
X27920207Y-31555992D01*
X27818020Y-31638942D01*
X27736515Y-31704408D01*
X27679227Y-31749525D01*
X27649693Y-31771425D01*
X27646563Y-31773075D01*
X27640057Y-31754175D01*
X27639424Y-31705862D01*
X27642061Y-31668288D01*
X27650168Y-31599912D01*
X27663317Y-31505838D01*
X27679222Y-31402060D01*
X27686579Y-31356991D01*
X27721028Y-31150481D01*
X28372977Y-30612657D01*
X28515594Y-30495512D01*
X28648004Y-30387726D01*
X28766685Y-30292094D01*
X28868114Y-30211409D01*
X28948769Y-30148467D01*
X29005128Y-30106062D01*
X29033667Y-30086990D01*
X29036409Y-30086317D01*
X29038644Y-30110462D01*
G37*
X45800362Y-24221867D02*
X45794560Y-24277501D01*
X45787727Y-24363956D01*
X45780686Y-24469761D01*
X45774258Y-24583442D01*
X45773808Y-24592284D01*
X45759642Y-24872742D01*
X45154085Y-24867722D01*
X45010786Y-24866510D01*
X44832138Y-24864960D01*
X44625126Y-24863135D01*
X44396733Y-24861098D01*
X44153943Y-24858911D01*
X43903738Y-24856636D01*
X43653103Y-24854337D01*
X43409021Y-24852076D01*
X43384361Y-24851847D01*
X42220195Y-24840992D01*
X42227066Y-24777492D01*
X42232634Y-24733005D01*
X42242948Y-24656753D01*
X42256610Y-24558859D01*
X42272225Y-24449443D01*
X42274691Y-24432373D01*
X42289668Y-24328214D01*
X42302169Y-24240014D01*
X42311074Y-24175765D01*
X42315265Y-24143460D01*
X42315445Y-24141331D01*
X42336092Y-24139887D01*
X42395954Y-24138510D01*
X42491914Y-24137218D01*
X42620855Y-24136027D01*
X42779657Y-24134954D01*
X42965204Y-24134015D01*
X43174378Y-24133228D01*
X43404060Y-24132609D01*
X43651133Y-24132176D01*
X43912480Y-24131944D01*
X44064098Y-24131909D01*
X45812751Y-24131909D01*
X45800362Y-24221867D01*
G36*
X45800362Y-24221867D02*
G01*
X45794560Y-24277501D01*
X45787727Y-24363956D01*
X45780686Y-24469761D01*
X45774258Y-24583442D01*
X45773808Y-24592284D01*
X45759642Y-24872742D01*
X45154085Y-24867722D01*
X45010786Y-24866510D01*
X44832138Y-24864960D01*
X44625126Y-24863135D01*
X44396733Y-24861098D01*
X44153943Y-24858911D01*
X43903738Y-24856636D01*
X43653103Y-24854337D01*
X43409021Y-24852076D01*
X43384361Y-24851847D01*
X42220195Y-24840992D01*
X42227066Y-24777492D01*
X42232634Y-24733005D01*
X42242948Y-24656753D01*
X42256610Y-24558859D01*
X42272225Y-24449443D01*
X42274691Y-24432373D01*
X42289668Y-24328214D01*
X42302169Y-24240014D01*
X42311074Y-24175765D01*
X42315265Y-24143460D01*
X42315445Y-24141331D01*
X42336092Y-24139887D01*
X42395954Y-24138510D01*
X42491914Y-24137218D01*
X42620855Y-24136027D01*
X42779657Y-24134954D01*
X42965204Y-24134015D01*
X43174378Y-24133228D01*
X43404060Y-24132609D01*
X43651133Y-24132176D01*
X43912480Y-24131944D01*
X44064098Y-24131909D01*
X45812751Y-24131909D01*
X45800362Y-24221867D01*
G37*
X36219140Y-24516997D02*
X36516411Y-24517335D01*
X36826659Y-24517879D01*
X36933820Y-24518109D01*
X39320361Y-24523492D01*
X39326204Y-24846284D01*
X39332047Y-25169075D01*
X37960954Y-25163980D01*
X37681267Y-25162911D01*
X37380784Y-25161708D01*
X37067935Y-25160409D01*
X36751148Y-25159050D01*
X36438853Y-25157669D01*
X36139477Y-25156303D01*
X35861450Y-25154988D01*
X35613200Y-25153761D01*
X35505070Y-25153204D01*
X35235679Y-25151384D01*
X35003100Y-25148949D01*
X34808202Y-25145921D01*
X34651854Y-25142321D01*
X34534926Y-25138171D01*
X34458289Y-25133491D01*
X34422811Y-25128305D01*
X34420278Y-25126394D01*
X34424665Y-25098976D01*
X34436696Y-25038452D01*
X34454676Y-24953008D01*
X34476908Y-24850828D01*
X34483778Y-24819825D01*
X34506828Y-24715469D01*
X34526143Y-24626607D01*
X34540048Y-24561060D01*
X34546865Y-24526646D01*
X34547278Y-24523557D01*
X34568000Y-24522178D01*
X34628386Y-24520944D01*
X34725767Y-24519861D01*
X34857476Y-24518933D01*
X35020843Y-24518169D01*
X35213198Y-24517573D01*
X35431875Y-24517151D01*
X35674203Y-24516911D01*
X35937514Y-24516857D01*
X36219140Y-24516997D01*
G36*
X36219140Y-24516997D02*
G01*
X36516411Y-24517335D01*
X36826659Y-24517879D01*
X36933820Y-24518109D01*
X39320361Y-24523492D01*
X39326204Y-24846284D01*
X39332047Y-25169075D01*
X37960954Y-25163980D01*
X37681267Y-25162911D01*
X37380784Y-25161708D01*
X37067935Y-25160409D01*
X36751148Y-25159050D01*
X36438853Y-25157669D01*
X36139477Y-25156303D01*
X35861450Y-25154988D01*
X35613200Y-25153761D01*
X35505070Y-25153204D01*
X35235679Y-25151384D01*
X35003100Y-25148949D01*
X34808202Y-25145921D01*
X34651854Y-25142321D01*
X34534926Y-25138171D01*
X34458289Y-25133491D01*
X34422811Y-25128305D01*
X34420278Y-25126394D01*
X34424665Y-25098976D01*
X34436696Y-25038452D01*
X34454676Y-24953008D01*
X34476908Y-24850828D01*
X34483778Y-24819825D01*
X34506828Y-24715469D01*
X34526143Y-24626607D01*
X34540048Y-24561060D01*
X34546865Y-24526646D01*
X34547278Y-24523557D01*
X34568000Y-24522178D01*
X34628386Y-24520944D01*
X34725767Y-24519861D01*
X34857476Y-24518933D01*
X35020843Y-24518169D01*
X35213198Y-24517573D01*
X35431875Y-24517151D01*
X35674203Y-24516911D01*
X35937514Y-24516857D01*
X36219140Y-24516997D01*
G37*
X44206750Y-21412728D02*
X44459965Y-21414792D01*
X44704136Y-21417064D01*
X44935434Y-21419491D01*
X45150026Y-21422019D01*
X45344082Y-21424596D01*
X45513770Y-21427168D01*
X45655258Y-21429683D01*
X45764716Y-21432086D01*
X45838312Y-21434325D01*
X45866153Y-21435744D01*
X46019611Y-21447354D01*
X46019611Y-21632854D01*
X46017836Y-21744920D01*
X46013162Y-21866389D01*
X46006565Y-21972493D01*
X46005922Y-21980298D01*
X45992233Y-22142242D01*
X45291547Y-22138799D01*
X45113590Y-22137644D01*
X44902434Y-22135805D01*
X44667202Y-22133389D01*
X44417022Y-22130503D01*
X44161019Y-22127254D01*
X43908318Y-22123749D01*
X43668045Y-22120094D01*
X43599134Y-22118975D01*
X43398269Y-22115408D01*
X43210522Y-22111596D01*
X43040101Y-22107658D01*
X42891213Y-22103713D01*
X42768066Y-22099881D01*
X42674867Y-22096282D01*
X42615824Y-22093035D01*
X42595219Y-22090406D01*
X42593354Y-22065577D01*
X42598424Y-22009018D01*
X42609380Y-21930572D01*
X42617354Y-21882689D01*
X42636302Y-21774393D01*
X42655982Y-21661352D01*
X42672814Y-21564143D01*
X42676241Y-21544239D01*
X42700806Y-21401320D01*
X44206750Y-21412728D01*
G36*
X44206750Y-21412728D02*
G01*
X44459965Y-21414792D01*
X44704136Y-21417064D01*
X44935434Y-21419491D01*
X45150026Y-21422019D01*
X45344082Y-21424596D01*
X45513770Y-21427168D01*
X45655258Y-21429683D01*
X45764716Y-21432086D01*
X45838312Y-21434325D01*
X45866153Y-21435744D01*
X46019611Y-21447354D01*
X46019611Y-21632854D01*
X46017836Y-21744920D01*
X46013162Y-21866389D01*
X46006565Y-21972493D01*
X46005922Y-21980298D01*
X45992233Y-22142242D01*
X45291547Y-22138799D01*
X45113590Y-22137644D01*
X44902434Y-22135805D01*
X44667202Y-22133389D01*
X44417022Y-22130503D01*
X44161019Y-22127254D01*
X43908318Y-22123749D01*
X43668045Y-22120094D01*
X43599134Y-22118975D01*
X43398269Y-22115408D01*
X43210522Y-22111596D01*
X43040101Y-22107658D01*
X42891213Y-22103713D01*
X42768066Y-22099881D01*
X42674867Y-22096282D01*
X42615824Y-22093035D01*
X42595219Y-22090406D01*
X42593354Y-22065577D01*
X42598424Y-22009018D01*
X42609380Y-21930572D01*
X42617354Y-21882689D01*
X42636302Y-21774393D01*
X42655982Y-21661352D01*
X42672814Y-21564143D01*
X42676241Y-21544239D01*
X42700806Y-21401320D01*
X44206750Y-21412728D01*
G37*
X39210072Y-19351733D02*
X39222267Y-19463068D01*
X39231970Y-19558390D01*
X39238489Y-19630329D01*
X39241133Y-19671512D01*
X39240724Y-19678351D01*
X39218524Y-19680028D01*
X39157839Y-19681602D01*
X39062369Y-19683069D01*
X38935810Y-19684425D01*
X38781861Y-19685664D01*
X38604220Y-19686783D01*
X38406583Y-19687777D01*
X38192650Y-19688640D01*
X37966118Y-19689368D01*
X37730684Y-19689956D01*
X37490047Y-19690401D01*
X37247905Y-19690696D01*
X37007955Y-19690838D01*
X36773894Y-19690822D01*
X36549422Y-19690642D01*
X36338236Y-19690295D01*
X36144033Y-19689776D01*
X35970512Y-19689080D01*
X35821370Y-19688202D01*
X35700305Y-19687137D01*
X35611015Y-19685882D01*
X35557198Y-19684431D01*
X35542106Y-19683031D01*
X35550770Y-19659926D01*
X35574698Y-19605472D01*
X35610800Y-19526465D01*
X35655986Y-19429705D01*
X35687228Y-19363741D01*
X35832344Y-19058911D01*
X36994269Y-19044847D01*
X37232650Y-19042082D01*
X37474732Y-19039496D01*
X37714104Y-19037143D01*
X37944355Y-19035078D01*
X38159073Y-19033355D01*
X38351846Y-19032026D01*
X38516263Y-19031148D01*
X38645911Y-19030773D01*
X38664994Y-19030763D01*
X39173794Y-19030742D01*
X39210072Y-19351733D01*
G36*
X39210072Y-19351733D02*
G01*
X39222267Y-19463068D01*
X39231970Y-19558390D01*
X39238489Y-19630329D01*
X39241133Y-19671512D01*
X39240724Y-19678351D01*
X39218524Y-19680028D01*
X39157839Y-19681602D01*
X39062369Y-19683069D01*
X38935810Y-19684425D01*
X38781861Y-19685664D01*
X38604220Y-19686783D01*
X38406583Y-19687777D01*
X38192650Y-19688640D01*
X37966118Y-19689368D01*
X37730684Y-19689956D01*
X37490047Y-19690401D01*
X37247905Y-19690696D01*
X37007955Y-19690838D01*
X36773894Y-19690822D01*
X36549422Y-19690642D01*
X36338236Y-19690295D01*
X36144033Y-19689776D01*
X35970512Y-19689080D01*
X35821370Y-19688202D01*
X35700305Y-19687137D01*
X35611015Y-19685882D01*
X35557198Y-19684431D01*
X35542106Y-19683031D01*
X35550770Y-19659926D01*
X35574698Y-19605472D01*
X35610800Y-19526465D01*
X35655986Y-19429705D01*
X35687228Y-19363741D01*
X35832344Y-19058911D01*
X36994269Y-19044847D01*
X37232650Y-19042082D01*
X37474732Y-19039496D01*
X37714104Y-19037143D01*
X37944355Y-19035078D01*
X38159073Y-19033355D01*
X38351846Y-19032026D01*
X38516263Y-19031148D01*
X38645911Y-19030773D01*
X38664994Y-19030763D01*
X39173794Y-19030742D01*
X39210072Y-19351733D01*
G37*
X49466568Y-22152851D02*
X49527302Y-22155309D01*
X49626058Y-22158633D01*
X49758536Y-22162705D01*
X49920435Y-22167405D01*
X50107454Y-22172614D01*
X50315295Y-22178213D01*
X50539656Y-22184082D01*
X50776238Y-22190102D01*
X51020739Y-22196154D01*
X51078445Y-22197557D01*
X51316588Y-22203406D01*
X51541973Y-22209092D01*
X51751081Y-22214516D01*
X51940392Y-22219581D01*
X52106387Y-22224187D01*
X52245547Y-22228237D01*
X52354352Y-22231631D01*
X52429284Y-22234271D01*
X52466822Y-22236059D01*
X52470579Y-22236514D01*
X52470836Y-22258370D01*
X52467359Y-22314042D01*
X52460761Y-22395239D01*
X52451656Y-22493669D01*
X52451139Y-22498974D01*
X52425980Y-22756075D01*
X52000920Y-22752593D01*
X51900914Y-22751416D01*
X51763933Y-22749265D01*
X51595324Y-22746247D01*
X51400431Y-22742472D01*
X51184602Y-22738049D01*
X50953180Y-22733088D01*
X50711512Y-22727696D01*
X50464944Y-22721983D01*
X50268820Y-22717281D01*
X50037946Y-22711400D01*
X49820083Y-22705349D01*
X49618834Y-22699261D01*
X49437806Y-22693269D01*
X49280603Y-22687507D01*
X49150830Y-22682107D01*
X49052093Y-22677203D01*
X48987995Y-22672927D01*
X48962142Y-22669414D01*
X48961778Y-22669016D01*
X48971424Y-22645387D01*
X48997880Y-22591995D01*
X49037416Y-22516095D01*
X49086306Y-22424941D01*
X49101443Y-22397162D01*
X49241107Y-22141743D01*
X49466568Y-22152851D01*
G36*
X49466568Y-22152851D02*
G01*
X49527302Y-22155309D01*
X49626058Y-22158633D01*
X49758536Y-22162705D01*
X49920435Y-22167405D01*
X50107454Y-22172614D01*
X50315295Y-22178213D01*
X50539656Y-22184082D01*
X50776238Y-22190102D01*
X51020739Y-22196154D01*
X51078445Y-22197557D01*
X51316588Y-22203406D01*
X51541973Y-22209092D01*
X51751081Y-22214516D01*
X51940392Y-22219581D01*
X52106387Y-22224187D01*
X52245547Y-22228237D01*
X52354352Y-22231631D01*
X52429284Y-22234271D01*
X52466822Y-22236059D01*
X52470579Y-22236514D01*
X52470836Y-22258370D01*
X52467359Y-22314042D01*
X52460761Y-22395239D01*
X52451656Y-22493669D01*
X52451139Y-22498974D01*
X52425980Y-22756075D01*
X52000920Y-22752593D01*
X51900914Y-22751416D01*
X51763933Y-22749265D01*
X51595324Y-22746247D01*
X51400431Y-22742472D01*
X51184602Y-22738049D01*
X50953180Y-22733088D01*
X50711512Y-22727696D01*
X50464944Y-22721983D01*
X50268820Y-22717281D01*
X50037946Y-22711400D01*
X49820083Y-22705349D01*
X49618834Y-22699261D01*
X49437806Y-22693269D01*
X49280603Y-22687507D01*
X49150830Y-22682107D01*
X49052093Y-22677203D01*
X48987995Y-22672927D01*
X48962142Y-22669414D01*
X48961778Y-22669016D01*
X48971424Y-22645387D01*
X48997880Y-22591995D01*
X49037416Y-22516095D01*
X49086306Y-22424941D01*
X49101443Y-22397162D01*
X49241107Y-22141743D01*
X49466568Y-22152851D01*
G37*
X29572211Y-33910939D02*
X29619965Y-33938055D01*
X29688400Y-33980692D01*
X29770651Y-34034282D01*
X29859855Y-34094257D01*
X29949147Y-34156046D01*
X30031663Y-34215082D01*
X30100539Y-34266795D01*
X30118431Y-34280934D01*
X30107605Y-34298574D01*
X30074660Y-34348143D01*
X30021577Y-34426763D01*
X29950338Y-34531560D01*
X29862925Y-34659657D01*
X29761320Y-34808180D01*
X29647505Y-34974253D01*
X29523461Y-35154999D01*
X29391169Y-35347545D01*
X29252613Y-35549014D01*
X29109773Y-35756531D01*
X28964632Y-35967219D01*
X28819171Y-36178205D01*
X28675372Y-36386612D01*
X28535217Y-36589564D01*
X28400687Y-36784186D01*
X28273764Y-36967603D01*
X28156431Y-37136939D01*
X28050668Y-37289318D01*
X27958458Y-37421866D01*
X27881782Y-37531706D01*
X27822623Y-37615962D01*
X27782961Y-37671760D01*
X27764779Y-37696225D01*
X27764265Y-37696790D01*
X27743083Y-37710727D01*
X27730371Y-37691675D01*
X27724284Y-37665040D01*
X27714578Y-37604192D01*
X27703321Y-37516886D01*
X27691361Y-37411952D01*
X27679547Y-37298219D01*
X27668730Y-37184514D01*
X27659758Y-37079668D01*
X27653480Y-36992508D01*
X27650746Y-36931864D01*
X27651554Y-36908977D01*
X27663593Y-36886484D01*
X27696361Y-36831544D01*
X27747810Y-36747393D01*
X27815894Y-36637269D01*
X27898566Y-36504407D01*
X27993778Y-36352047D01*
X28099483Y-36183423D01*
X28213635Y-36001774D01*
X28334186Y-35810336D01*
X28459089Y-35612345D01*
X28586297Y-35411040D01*
X28713763Y-35209656D01*
X28839440Y-35011432D01*
X28961280Y-34819603D01*
X29077238Y-34637406D01*
X29185265Y-34468080D01*
X29283314Y-34314859D01*
X29369339Y-34180983D01*
X29441293Y-34069686D01*
X29497127Y-33984207D01*
X29534796Y-33927782D01*
X29552002Y-33903915D01*
X29572211Y-33910939D01*
G36*
X29572211Y-33910939D02*
G01*
X29619965Y-33938055D01*
X29688400Y-33980692D01*
X29770651Y-34034282D01*
X29859855Y-34094257D01*
X29949147Y-34156046D01*
X30031663Y-34215082D01*
X30100539Y-34266795D01*
X30118431Y-34280934D01*
X30107605Y-34298574D01*
X30074660Y-34348143D01*
X30021577Y-34426763D01*
X29950338Y-34531560D01*
X29862925Y-34659657D01*
X29761320Y-34808180D01*
X29647505Y-34974253D01*
X29523461Y-35154999D01*
X29391169Y-35347545D01*
X29252613Y-35549014D01*
X29109773Y-35756531D01*
X28964632Y-35967219D01*
X28819171Y-36178205D01*
X28675372Y-36386612D01*
X28535217Y-36589564D01*
X28400687Y-36784186D01*
X28273764Y-36967603D01*
X28156431Y-37136939D01*
X28050668Y-37289318D01*
X27958458Y-37421866D01*
X27881782Y-37531706D01*
X27822623Y-37615962D01*
X27782961Y-37671760D01*
X27764779Y-37696225D01*
X27764265Y-37696790D01*
X27743083Y-37710727D01*
X27730371Y-37691675D01*
X27724284Y-37665040D01*
X27714578Y-37604192D01*
X27703321Y-37516886D01*
X27691361Y-37411952D01*
X27679547Y-37298219D01*
X27668730Y-37184514D01*
X27659758Y-37079668D01*
X27653480Y-36992508D01*
X27650746Y-36931864D01*
X27651554Y-36908977D01*
X27663593Y-36886484D01*
X27696361Y-36831544D01*
X27747810Y-36747393D01*
X27815894Y-36637269D01*
X27898566Y-36504407D01*
X27993778Y-36352047D01*
X28099483Y-36183423D01*
X28213635Y-36001774D01*
X28334186Y-35810336D01*
X28459089Y-35612345D01*
X28586297Y-35411040D01*
X28713763Y-35209656D01*
X28839440Y-35011432D01*
X28961280Y-34819603D01*
X29077238Y-34637406D01*
X29185265Y-34468080D01*
X29283314Y-34314859D01*
X29369339Y-34180983D01*
X29441293Y-34069686D01*
X29497127Y-33984207D01*
X29534796Y-33927782D01*
X29552002Y-33903915D01*
X29572211Y-33910939D01*
G37*
%TD*%
D11*
%TO.C,D1*%
X51465000Y-55430000D03*
D12*
X54005000Y-55430000D03*
%TD*%
D13*
%TO.C,X1*%
X45500000Y-75048400D03*
D14*
X45500000Y-77588400D03*
D13*
X48040000Y-75048400D03*
X48040000Y-77588400D03*
D15*
X50580000Y-75048400D03*
X50580000Y-77588400D03*
%TD*%
D16*
%TO.C,R1*%
X45430000Y-66280000D03*
X45430000Y-68280000D03*
%TD*%
M02*
