%TF.GenerationSoftware,KiCad,Pcbnew,8.0.2*%
%TF.CreationDate,2024-05-14T21:00:48-05:00*%
%TF.ProjectId,AA Final edge cut repair,41412046-696e-4616-9c20-656467652063,rev?*%
%TF.SameCoordinates,Original*%
%TF.FileFunction,Soldermask,Top*%
%TF.FilePolarity,Negative*%
%FSLAX46Y46*%
G04 Gerber Fmt 4.6, Leading zero omitted, Abs format (unit mm)*
G04 Created by KiCad (PCBNEW 8.0.2) date 2024-05-14 21:00:48*
%MOMM*%
%LPD*%
G01*
G04 APERTURE LIST*
G04 Aperture macros list*
%AMRoundRect*
0 Rectangle with rounded corners*
0 $1 Rounding radius*
0 $2 $3 $4 $5 $6 $7 $8 $9 X,Y pos of 4 corners*
0 Add a 4 corners polygon primitive as box body*
4,1,4,$2,$3,$4,$5,$6,$7,$8,$9,$2,$3,0*
0 Add four circle primitives for the rounded corners*
1,1,$1+$1,$2,$3*
1,1,$1+$1,$4,$5*
1,1,$1+$1,$6,$7*
1,1,$1+$1,$8,$9*
0 Add four rect primitives between the rounded corners*
20,1,$1+$1,$2,$3,$4,$5,0*
20,1,$1+$1,$4,$5,$6,$7,0*
20,1,$1+$1,$6,$7,$8,$9,0*
20,1,$1+$1,$8,$9,$2,$3,0*%
G04 Aperture macros list end*
%ADD10C,0.010000*%
%ADD11RoundRect,0.333333X-0.566667X0.466667X-0.566667X-0.466667X0.566667X-0.466667X0.566667X0.466667X0*%
%ADD12RoundRect,0.200000X-0.900000X-0.900000X0.900000X-0.900000X0.900000X0.900000X-0.900000X0.900000X0*%
%ADD13C,2.200000*%
%ADD14O,2.127200X2.127200*%
%ADD15RoundRect,0.200000X-0.863600X0.863600X-0.863600X-0.863600X0.863600X-0.863600X0.863600X0.863600X0*%
%ADD16C,2.127200*%
%ADD17RoundRect,0.336957X0.438043X0.563043X-0.438043X0.563043X-0.438043X-0.563043X0.438043X-0.563043X0*%
G04 APERTURE END LIST*
D10*
%TO.C,G\u002A\u002A\u002A*%
X58814081Y-26420760D02*
X58876655Y-26421186D01*
X58900018Y-26421965D01*
X58900097Y-26422005D01*
X58904320Y-26444350D01*
X58911137Y-26500645D01*
X58919642Y-26582651D01*
X58928930Y-26682129D01*
X58929900Y-26693095D01*
X58939652Y-26801391D01*
X58948974Y-26900396D01*
X58956804Y-26979128D01*
X58962063Y-27026450D01*
X58970950Y-27095242D01*
X54895882Y-27095242D01*
X55067318Y-26445706D01*
X56980444Y-26430593D01*
X57261183Y-26428446D01*
X57529657Y-26426532D01*
X57782873Y-26424863D01*
X58017837Y-26423453D01*
X58231555Y-26422316D01*
X58421033Y-26421465D01*
X58583276Y-26420913D01*
X58715290Y-26420673D01*
X58814081Y-26420760D01*
G36*
X58814081Y-26420760D02*
G01*
X58876655Y-26421186D01*
X58900018Y-26421965D01*
X58900097Y-26422005D01*
X58904320Y-26444350D01*
X58911137Y-26500645D01*
X58919642Y-26582651D01*
X58928930Y-26682129D01*
X58929900Y-26693095D01*
X58939652Y-26801391D01*
X58948974Y-26900396D01*
X58956804Y-26979128D01*
X58962063Y-27026450D01*
X58970950Y-27095242D01*
X54895882Y-27095242D01*
X55067318Y-26445706D01*
X56980444Y-26430593D01*
X57261183Y-26428446D01*
X57529657Y-26426532D01*
X57782873Y-26424863D01*
X58017837Y-26423453D01*
X58231555Y-26422316D01*
X58421033Y-26421465D01*
X58583276Y-26420913D01*
X58715290Y-26420673D01*
X58814081Y-26420760D01*
G37*
X30920886Y-23525294D02*
X30919058Y-23547633D01*
X30908413Y-23603180D01*
X30890603Y-23684126D01*
X30867281Y-23782662D01*
X30861247Y-23807249D01*
X30793578Y-24081174D01*
X30499804Y-24217666D01*
X30395532Y-24265638D01*
X30303322Y-24307171D01*
X30230679Y-24338954D01*
X30185109Y-24357674D01*
X30174862Y-24361090D01*
X30161755Y-24355393D01*
X30166775Y-24324989D01*
X30191096Y-24264441D01*
X30200001Y-24244674D01*
X30234913Y-24164135D01*
X30276079Y-24063212D01*
X30315579Y-23961409D01*
X30322168Y-23943777D01*
X30388028Y-23766229D01*
X30650442Y-23641746D01*
X30746320Y-23597077D01*
X30827694Y-23560706D01*
X30887408Y-23535714D01*
X30918310Y-23525181D01*
X30920886Y-23525294D01*
G36*
X30920886Y-23525294D02*
G01*
X30919058Y-23547633D01*
X30908413Y-23603180D01*
X30890603Y-23684126D01*
X30867281Y-23782662D01*
X30861247Y-23807249D01*
X30793578Y-24081174D01*
X30499804Y-24217666D01*
X30395532Y-24265638D01*
X30303322Y-24307171D01*
X30230679Y-24338954D01*
X30185109Y-24357674D01*
X30174862Y-24361090D01*
X30161755Y-24355393D01*
X30166775Y-24324989D01*
X30191096Y-24264441D01*
X30200001Y-24244674D01*
X30234913Y-24164135D01*
X30276079Y-24063212D01*
X30315579Y-23961409D01*
X30322168Y-23943777D01*
X30388028Y-23766229D01*
X30650442Y-23641746D01*
X30746320Y-23597077D01*
X30827694Y-23560706D01*
X30887408Y-23535714D01*
X30918310Y-23525181D01*
X30920886Y-23525294D01*
G37*
X34912403Y-57732521D02*
X34950424Y-57736752D01*
X35024816Y-57743401D01*
X35129711Y-57752003D01*
X35259246Y-57762096D01*
X35407555Y-57773214D01*
X35568772Y-57784896D01*
X35626778Y-57789004D01*
X35787503Y-57800525D01*
X35934139Y-57811428D01*
X36061487Y-57821297D01*
X36164351Y-57829713D01*
X36237533Y-57836259D01*
X36275837Y-57840518D01*
X36280264Y-57841516D01*
X36281993Y-57863906D01*
X36281889Y-57921635D01*
X36280089Y-58007756D01*
X36276733Y-58115321D01*
X36272786Y-58217783D01*
X36257405Y-58586990D01*
X35936800Y-58599099D01*
X35800391Y-58603991D01*
X35638136Y-58609403D01*
X35466507Y-58614808D01*
X35301980Y-58619680D01*
X35229903Y-58621688D01*
X34843611Y-58632167D01*
X34843611Y-57721490D01*
X34912403Y-57732521D01*
G36*
X34912403Y-57732521D02*
G01*
X34950424Y-57736752D01*
X35024816Y-57743401D01*
X35129711Y-57752003D01*
X35259246Y-57762096D01*
X35407555Y-57773214D01*
X35568772Y-57784896D01*
X35626778Y-57789004D01*
X35787503Y-57800525D01*
X35934139Y-57811428D01*
X36061487Y-57821297D01*
X36164351Y-57829713D01*
X36237533Y-57836259D01*
X36275837Y-57840518D01*
X36280264Y-57841516D01*
X36281993Y-57863906D01*
X36281889Y-57921635D01*
X36280089Y-58007756D01*
X36276733Y-58115321D01*
X36272786Y-58217783D01*
X36257405Y-58586990D01*
X35936800Y-58599099D01*
X35800391Y-58603991D01*
X35638136Y-58609403D01*
X35466507Y-58614808D01*
X35301980Y-58619680D01*
X35229903Y-58621688D01*
X34843611Y-58632167D01*
X34843611Y-57721490D01*
X34912403Y-57732521D01*
G37*
X30288793Y-25838976D02*
X30276659Y-25894546D01*
X30256429Y-25975893D01*
X30229906Y-26075565D01*
X30217962Y-26118811D01*
X30136060Y-26412351D01*
X29608962Y-26759088D01*
X29447478Y-26865388D01*
X29318047Y-26950550D01*
X29217247Y-27016528D01*
X29141650Y-27065279D01*
X29087833Y-27098759D01*
X29052371Y-27118923D01*
X29031839Y-27127726D01*
X29022811Y-27127125D01*
X29021865Y-27119076D01*
X29025573Y-27105534D01*
X29030237Y-27089571D01*
X29043899Y-27045315D01*
X29068399Y-26974759D01*
X29099137Y-26891021D01*
X29108832Y-26865434D01*
X29174016Y-26694737D01*
X29728105Y-26251371D01*
X29859974Y-26146304D01*
X29981136Y-26050633D01*
X30087706Y-25967358D01*
X30175800Y-25899480D01*
X30241532Y-25849998D01*
X30281018Y-25821914D01*
X30291029Y-25816638D01*
X30288793Y-25838976D01*
G36*
X30288793Y-25838976D02*
G01*
X30276659Y-25894546D01*
X30256429Y-25975893D01*
X30229906Y-26075565D01*
X30217962Y-26118811D01*
X30136060Y-26412351D01*
X29608962Y-26759088D01*
X29447478Y-26865388D01*
X29318047Y-26950550D01*
X29217247Y-27016528D01*
X29141650Y-27065279D01*
X29087833Y-27098759D01*
X29052371Y-27118923D01*
X29031839Y-27127726D01*
X29022811Y-27127125D01*
X29021865Y-27119076D01*
X29025573Y-27105534D01*
X29030237Y-27089571D01*
X29043899Y-27045315D01*
X29068399Y-26974759D01*
X29099137Y-26891021D01*
X29108832Y-26865434D01*
X29174016Y-26694737D01*
X29728105Y-26251371D01*
X29859974Y-26146304D01*
X29981136Y-26050633D01*
X30087706Y-25967358D01*
X30175800Y-25899480D01*
X30241532Y-25849998D01*
X30281018Y-25821914D01*
X30291029Y-25816638D01*
X30288793Y-25838976D01*
G37*
X31744988Y-76647909D02*
X31790926Y-76649635D01*
X31873227Y-76653836D01*
X31986016Y-76660167D01*
X32123417Y-76668284D01*
X32279552Y-76677844D01*
X32448547Y-76688500D01*
X32557611Y-76695534D01*
X33266695Y-76741659D01*
X33272537Y-77064450D01*
X33278380Y-77387242D01*
X33209037Y-77387277D01*
X33165983Y-77388478D01*
X33087437Y-77391813D01*
X32980166Y-77396915D01*
X32850939Y-77403416D01*
X32706524Y-77410950D01*
X32553687Y-77419150D01*
X32399197Y-77427649D01*
X32249821Y-77436079D01*
X32112327Y-77444075D01*
X31993483Y-77451268D01*
X31900056Y-77457292D01*
X31846211Y-77461177D01*
X31695728Y-77473135D01*
X31682763Y-77319063D01*
X31676233Y-77233521D01*
X31668628Y-77121631D01*
X31660993Y-76999325D01*
X31655622Y-76905700D01*
X31641447Y-76646409D01*
X31744988Y-76647909D01*
G36*
X31744988Y-76647909D02*
G01*
X31790926Y-76649635D01*
X31873227Y-76653836D01*
X31986016Y-76660167D01*
X32123417Y-76668284D01*
X32279552Y-76677844D01*
X32448547Y-76688500D01*
X32557611Y-76695534D01*
X33266695Y-76741659D01*
X33272537Y-77064450D01*
X33278380Y-77387242D01*
X33209037Y-77387277D01*
X33165983Y-77388478D01*
X33087437Y-77391813D01*
X32980166Y-77396915D01*
X32850939Y-77403416D01*
X32706524Y-77410950D01*
X32553687Y-77419150D01*
X32399197Y-77427649D01*
X32249821Y-77436079D01*
X32112327Y-77444075D01*
X31993483Y-77451268D01*
X31900056Y-77457292D01*
X31846211Y-77461177D01*
X31695728Y-77473135D01*
X31682763Y-77319063D01*
X31676233Y-77233521D01*
X31668628Y-77121631D01*
X31660993Y-76999325D01*
X31655622Y-76905700D01*
X31641447Y-76646409D01*
X31744988Y-76647909D01*
G37*
X34891236Y-55099318D02*
X34934905Y-55101291D01*
X35011850Y-55106283D01*
X35116386Y-55113822D01*
X35242829Y-55123436D01*
X35385496Y-55134650D01*
X35538701Y-55146992D01*
X35696761Y-55159988D01*
X35853991Y-55173166D01*
X36004708Y-55186052D01*
X36143226Y-55198173D01*
X36263862Y-55209055D01*
X36360932Y-55218227D01*
X36428751Y-55225215D01*
X36461635Y-55229545D01*
X36463807Y-55230215D01*
X36466530Y-55253886D01*
X36467200Y-55312355D01*
X36465896Y-55398139D01*
X36462702Y-55503757D01*
X36460082Y-55569622D01*
X36445898Y-55898571D01*
X35967546Y-55911251D01*
X35803441Y-55915656D01*
X35629537Y-55920422D01*
X35458566Y-55925191D01*
X35303261Y-55929609D01*
X35176353Y-55933320D01*
X35166403Y-55933618D01*
X34843611Y-55943306D01*
X34843611Y-55098742D01*
X34891236Y-55099318D01*
G36*
X34891236Y-55099318D02*
G01*
X34934905Y-55101291D01*
X35011850Y-55106283D01*
X35116386Y-55113822D01*
X35242829Y-55123436D01*
X35385496Y-55134650D01*
X35538701Y-55146992D01*
X35696761Y-55159988D01*
X35853991Y-55173166D01*
X36004708Y-55186052D01*
X36143226Y-55198173D01*
X36263862Y-55209055D01*
X36360932Y-55218227D01*
X36428751Y-55225215D01*
X36461635Y-55229545D01*
X36463807Y-55230215D01*
X36466530Y-55253886D01*
X36467200Y-55312355D01*
X36465896Y-55398139D01*
X36462702Y-55503757D01*
X36460082Y-55569622D01*
X36445898Y-55898571D01*
X35967546Y-55911251D01*
X35803441Y-55915656D01*
X35629537Y-55920422D01*
X35458566Y-55925191D01*
X35303261Y-55929609D01*
X35176353Y-55933320D01*
X35166403Y-55933618D01*
X34843611Y-55943306D01*
X34843611Y-55098742D01*
X34891236Y-55099318D01*
G37*
X34982315Y-52457146D02*
X35041453Y-52460749D01*
X35133551Y-52467335D01*
X35254005Y-52476548D01*
X35398207Y-52488037D01*
X35561552Y-52501446D01*
X35739435Y-52516422D01*
X35772737Y-52519265D01*
X36579278Y-52588262D01*
X36579151Y-52769294D01*
X36577239Y-52883902D01*
X36572344Y-53011176D01*
X36565521Y-53123786D01*
X36565430Y-53124950D01*
X36551837Y-53299575D01*
X36422682Y-53296325D01*
X36364741Y-53294322D01*
X36272297Y-53290465D01*
X36153122Y-53285109D01*
X36014990Y-53278610D01*
X35865673Y-53271321D01*
X35774945Y-53266767D01*
X35619977Y-53259163D01*
X35469089Y-53252229D01*
X35330678Y-53246317D01*
X35213140Y-53241776D01*
X35124871Y-53238956D01*
X35091904Y-53238267D01*
X34927447Y-53236075D01*
X34941369Y-52849784D01*
X34946078Y-52726649D01*
X34950713Y-52619005D01*
X34954938Y-52533633D01*
X34958419Y-52477313D01*
X34960744Y-52456880D01*
X34982315Y-52457146D01*
G36*
X34982315Y-52457146D02*
G01*
X35041453Y-52460749D01*
X35133551Y-52467335D01*
X35254005Y-52476548D01*
X35398207Y-52488037D01*
X35561552Y-52501446D01*
X35739435Y-52516422D01*
X35772737Y-52519265D01*
X36579278Y-52588262D01*
X36579151Y-52769294D01*
X36577239Y-52883902D01*
X36572344Y-53011176D01*
X36565521Y-53123786D01*
X36565430Y-53124950D01*
X36551837Y-53299575D01*
X36422682Y-53296325D01*
X36364741Y-53294322D01*
X36272297Y-53290465D01*
X36153122Y-53285109D01*
X36014990Y-53278610D01*
X35865673Y-53271321D01*
X35774945Y-53266767D01*
X35619977Y-53259163D01*
X35469089Y-53252229D01*
X35330678Y-53246317D01*
X35213140Y-53241776D01*
X35124871Y-53238956D01*
X35091904Y-53238267D01*
X34927447Y-53236075D01*
X34941369Y-52849784D01*
X34946078Y-52726649D01*
X34950713Y-52619005D01*
X34954938Y-52533633D01*
X34958419Y-52477313D01*
X34960744Y-52456880D01*
X34982315Y-52457146D01*
G37*
X29608789Y-27885213D02*
X29595522Y-27943875D01*
X29574584Y-28024301D01*
X29548667Y-28117238D01*
X29520461Y-28213433D01*
X29492655Y-28303630D01*
X29467941Y-28378578D01*
X29449008Y-28429022D01*
X29441145Y-28444202D01*
X29419666Y-28462530D01*
X29369257Y-28501573D01*
X29294767Y-28557787D01*
X29201050Y-28627631D01*
X29092954Y-28707564D01*
X28975333Y-28794044D01*
X28853036Y-28883529D01*
X28730915Y-28972477D01*
X28613821Y-29057348D01*
X28506606Y-29134598D01*
X28414119Y-29200686D01*
X28341213Y-29252072D01*
X28292738Y-29285212D01*
X28273644Y-29296575D01*
X28260794Y-29280964D01*
X28260778Y-29280145D01*
X28267174Y-29255274D01*
X28284789Y-29197755D01*
X28311259Y-29115034D01*
X28344222Y-29014559D01*
X28361320Y-28963220D01*
X28461861Y-28662726D01*
X29033361Y-28250390D01*
X29169611Y-28152791D01*
X29294637Y-28064586D01*
X29404419Y-27988504D01*
X29494939Y-27927277D01*
X29562178Y-27883633D01*
X29602116Y-27860303D01*
X29611696Y-27857570D01*
X29608789Y-27885213D01*
G36*
X29608789Y-27885213D02*
G01*
X29595522Y-27943875D01*
X29574584Y-28024301D01*
X29548667Y-28117238D01*
X29520461Y-28213433D01*
X29492655Y-28303630D01*
X29467941Y-28378578D01*
X29449008Y-28429022D01*
X29441145Y-28444202D01*
X29419666Y-28462530D01*
X29369257Y-28501573D01*
X29294767Y-28557787D01*
X29201050Y-28627631D01*
X29092954Y-28707564D01*
X28975333Y-28794044D01*
X28853036Y-28883529D01*
X28730915Y-28972477D01*
X28613821Y-29057348D01*
X28506606Y-29134598D01*
X28414119Y-29200686D01*
X28341213Y-29252072D01*
X28292738Y-29285212D01*
X28273644Y-29296575D01*
X28260794Y-29280964D01*
X28260778Y-29280145D01*
X28267174Y-29255274D01*
X28284789Y-29197755D01*
X28311259Y-29115034D01*
X28344222Y-29014559D01*
X28361320Y-28963220D01*
X28461861Y-28662726D01*
X29033361Y-28250390D01*
X29169611Y-28152791D01*
X29294637Y-28064586D01*
X29404419Y-27988504D01*
X29494939Y-27927277D01*
X29562178Y-27883633D01*
X29602116Y-27860303D01*
X29611696Y-27857570D01*
X29608789Y-27885213D01*
G37*
X44079695Y-21412898D02*
X44326815Y-21415013D01*
X44568571Y-21417377D01*
X44800436Y-21419926D01*
X45017880Y-21422599D01*
X45216375Y-21425330D01*
X45391394Y-21428059D01*
X45538408Y-21430722D01*
X45652888Y-21433256D01*
X45730306Y-21435597D01*
X45739153Y-21435959D01*
X46019611Y-21448079D01*
X46017137Y-21673452D01*
X46014731Y-21783813D01*
X46010313Y-21894093D01*
X46004630Y-21987698D01*
X46001262Y-22025825D01*
X45987861Y-22152825D01*
X44298493Y-22128568D01*
X44034817Y-22124625D01*
X43783441Y-22120560D01*
X43547569Y-22116443D01*
X43330405Y-22112344D01*
X43135154Y-22108334D01*
X42965021Y-22104483D01*
X42823209Y-22100861D01*
X42712923Y-22097539D01*
X42637367Y-22094586D01*
X42599746Y-22092073D01*
X42596079Y-22091265D01*
X42593841Y-22066047D01*
X42598625Y-22009159D01*
X42609421Y-21930498D01*
X42617354Y-21882689D01*
X42636292Y-21774455D01*
X42655950Y-21661535D01*
X42672756Y-21564474D01*
X42676185Y-21544558D01*
X42700695Y-21401957D01*
X44079695Y-21412898D01*
G36*
X44079695Y-21412898D02*
G01*
X44326815Y-21415013D01*
X44568571Y-21417377D01*
X44800436Y-21419926D01*
X45017880Y-21422599D01*
X45216375Y-21425330D01*
X45391394Y-21428059D01*
X45538408Y-21430722D01*
X45652888Y-21433256D01*
X45730306Y-21435597D01*
X45739153Y-21435959D01*
X46019611Y-21448079D01*
X46017137Y-21673452D01*
X46014731Y-21783813D01*
X46010313Y-21894093D01*
X46004630Y-21987698D01*
X46001262Y-22025825D01*
X45987861Y-22152825D01*
X44298493Y-22128568D01*
X44034817Y-22124625D01*
X43783441Y-22120560D01*
X43547569Y-22116443D01*
X43330405Y-22112344D01*
X43135154Y-22108334D01*
X42965021Y-22104483D01*
X42823209Y-22100861D01*
X42712923Y-22097539D01*
X42637367Y-22094586D01*
X42599746Y-22092073D01*
X42596079Y-22091265D01*
X42593841Y-22066047D01*
X42598625Y-22009159D01*
X42609421Y-21930498D01*
X42617354Y-21882689D01*
X42636292Y-21774455D01*
X42655950Y-21661535D01*
X42672756Y-21564474D01*
X42676185Y-21544558D01*
X42700695Y-21401957D01*
X44079695Y-21412898D01*
G37*
X29117768Y-32152385D02*
X29133522Y-32204042D01*
X29153239Y-32279585D01*
X29167436Y-32339284D01*
X29191725Y-32444626D01*
X29216306Y-32550328D01*
X29237177Y-32639217D01*
X29243936Y-32667664D01*
X29273098Y-32789670D01*
X28446886Y-33694247D01*
X28295704Y-33859544D01*
X28152823Y-34015332D01*
X28020824Y-34158825D01*
X27902288Y-34287239D01*
X27799796Y-34397788D01*
X27715928Y-34487687D01*
X27653267Y-34554150D01*
X27614394Y-34594393D01*
X27602059Y-34605881D01*
X27595705Y-34588504D01*
X27590624Y-34535902D01*
X27587188Y-34455172D01*
X27585771Y-34353413D01*
X27585919Y-34298964D01*
X27587759Y-34174983D01*
X27591077Y-34054062D01*
X27595444Y-33948235D01*
X27600429Y-33869534D01*
X27601794Y-33854808D01*
X27615195Y-33724624D01*
X28356028Y-32929216D01*
X28499519Y-32775381D01*
X28634297Y-32631327D01*
X28757617Y-32499957D01*
X28866734Y-32384172D01*
X28958904Y-32286877D01*
X29031384Y-32210973D01*
X29081427Y-32159364D01*
X29106291Y-32134952D01*
X29108479Y-32133358D01*
X29117768Y-32152385D01*
G36*
X29117768Y-32152385D02*
G01*
X29133522Y-32204042D01*
X29153239Y-32279585D01*
X29167436Y-32339284D01*
X29191725Y-32444626D01*
X29216306Y-32550328D01*
X29237177Y-32639217D01*
X29243936Y-32667664D01*
X29273098Y-32789670D01*
X28446886Y-33694247D01*
X28295704Y-33859544D01*
X28152823Y-34015332D01*
X28020824Y-34158825D01*
X27902288Y-34287239D01*
X27799796Y-34397788D01*
X27715928Y-34487687D01*
X27653267Y-34554150D01*
X27614394Y-34594393D01*
X27602059Y-34605881D01*
X27595705Y-34588504D01*
X27590624Y-34535902D01*
X27587188Y-34455172D01*
X27585771Y-34353413D01*
X27585919Y-34298964D01*
X27587759Y-34174983D01*
X27591077Y-34054062D01*
X27595444Y-33948235D01*
X27600429Y-33869534D01*
X27601794Y-33854808D01*
X27615195Y-33724624D01*
X28356028Y-32929216D01*
X28499519Y-32775381D01*
X28634297Y-32631327D01*
X28757617Y-32499957D01*
X28866734Y-32384172D01*
X28958904Y-32286877D01*
X29031384Y-32210973D01*
X29081427Y-32159364D01*
X29106291Y-32134952D01*
X29108479Y-32133358D01*
X29117768Y-32152385D01*
G37*
X45800362Y-24221867D02*
X45794560Y-24277501D01*
X45787727Y-24363956D01*
X45780686Y-24469761D01*
X45774258Y-24583442D01*
X45773808Y-24592284D01*
X45759642Y-24872742D01*
X45090585Y-24867736D01*
X44929058Y-24866471D01*
X44733054Y-24864843D01*
X44510429Y-24862921D01*
X44269036Y-24860777D01*
X44016730Y-24858481D01*
X43761366Y-24856104D01*
X43510798Y-24853715D01*
X43320861Y-24851861D01*
X42220195Y-24840992D01*
X42227066Y-24777492D01*
X42232634Y-24733005D01*
X42242948Y-24656753D01*
X42256610Y-24558859D01*
X42272225Y-24449443D01*
X42274691Y-24432373D01*
X42289668Y-24328214D01*
X42302169Y-24240014D01*
X42311074Y-24175765D01*
X42315265Y-24143460D01*
X42315445Y-24141331D01*
X42336092Y-24139887D01*
X42395954Y-24138510D01*
X42491914Y-24137218D01*
X42620855Y-24136027D01*
X42779657Y-24134954D01*
X42965204Y-24134015D01*
X43174378Y-24133228D01*
X43404060Y-24132609D01*
X43651133Y-24132176D01*
X43912480Y-24131944D01*
X44064098Y-24131909D01*
X45812751Y-24131909D01*
X45800362Y-24221867D01*
G36*
X45800362Y-24221867D02*
G01*
X45794560Y-24277501D01*
X45787727Y-24363956D01*
X45780686Y-24469761D01*
X45774258Y-24583442D01*
X45773808Y-24592284D01*
X45759642Y-24872742D01*
X45090585Y-24867736D01*
X44929058Y-24866471D01*
X44733054Y-24864843D01*
X44510429Y-24862921D01*
X44269036Y-24860777D01*
X44016730Y-24858481D01*
X43761366Y-24856104D01*
X43510798Y-24853715D01*
X43320861Y-24851861D01*
X42220195Y-24840992D01*
X42227066Y-24777492D01*
X42232634Y-24733005D01*
X42242948Y-24656753D01*
X42256610Y-24558859D01*
X42272225Y-24449443D01*
X42274691Y-24432373D01*
X42289668Y-24328214D01*
X42302169Y-24240014D01*
X42311074Y-24175765D01*
X42315265Y-24143460D01*
X42315445Y-24141331D01*
X42336092Y-24139887D01*
X42395954Y-24138510D01*
X42491914Y-24137218D01*
X42620855Y-24136027D01*
X42779657Y-24134954D01*
X42965204Y-24134015D01*
X43174378Y-24133228D01*
X43404060Y-24132609D01*
X43651133Y-24132176D01*
X43912480Y-24131944D01*
X44064098Y-24131909D01*
X45812751Y-24131909D01*
X45800362Y-24221867D01*
G37*
X29039440Y-30111688D02*
X29036769Y-30169060D01*
X29029997Y-30249571D01*
X29020225Y-30343860D01*
X29008556Y-30442566D01*
X28996092Y-30536328D01*
X28983935Y-30615786D01*
X28973187Y-30671577D01*
X28965424Y-30694016D01*
X28925043Y-30728782D01*
X28859405Y-30784002D01*
X28772803Y-30856158D01*
X28669532Y-30941730D01*
X28553884Y-31037198D01*
X28430153Y-31139044D01*
X28302634Y-31243748D01*
X28175619Y-31347792D01*
X28053403Y-31447654D01*
X27940278Y-31539818D01*
X27840540Y-31620762D01*
X27758480Y-31686968D01*
X27698394Y-31734917D01*
X27664574Y-31761088D01*
X27658933Y-31764881D01*
X27643249Y-31760918D01*
X27638304Y-31728106D01*
X27641954Y-31669401D01*
X27650137Y-31600389D01*
X27663371Y-31505827D01*
X27679347Y-31401856D01*
X27686579Y-31357707D01*
X27721028Y-31151914D01*
X28373129Y-30613526D01*
X28515745Y-30496294D01*
X28648167Y-30388433D01*
X28766875Y-30292737D01*
X28868345Y-30212000D01*
X28949058Y-30149017D01*
X29005492Y-30106582D01*
X29034125Y-30087488D01*
X29036908Y-30086816D01*
X29039440Y-30111688D01*
G36*
X29039440Y-30111688D02*
G01*
X29036769Y-30169060D01*
X29029997Y-30249571D01*
X29020225Y-30343860D01*
X29008556Y-30442566D01*
X28996092Y-30536328D01*
X28983935Y-30615786D01*
X28973187Y-30671577D01*
X28965424Y-30694016D01*
X28925043Y-30728782D01*
X28859405Y-30784002D01*
X28772803Y-30856158D01*
X28669532Y-30941730D01*
X28553884Y-31037198D01*
X28430153Y-31139044D01*
X28302634Y-31243748D01*
X28175619Y-31347792D01*
X28053403Y-31447654D01*
X27940278Y-31539818D01*
X27840540Y-31620762D01*
X27758480Y-31686968D01*
X27698394Y-31734917D01*
X27664574Y-31761088D01*
X27658933Y-31764881D01*
X27643249Y-31760918D01*
X27638304Y-31728106D01*
X27641954Y-31669401D01*
X27650137Y-31600389D01*
X27663371Y-31505827D01*
X27679347Y-31401856D01*
X27686579Y-31357707D01*
X27721028Y-31151914D01*
X28373129Y-30613526D01*
X28515745Y-30496294D01*
X28648167Y-30388433D01*
X28766875Y-30292737D01*
X28868345Y-30212000D01*
X28949058Y-30149017D01*
X29005492Y-30106582D01*
X29034125Y-30087488D01*
X29036908Y-30086816D01*
X29039440Y-30111688D01*
G37*
X36219140Y-24516997D02*
X36516411Y-24517335D01*
X36826659Y-24517879D01*
X36933820Y-24518109D01*
X39320361Y-24523492D01*
X39326204Y-24846284D01*
X39332047Y-25169075D01*
X37770454Y-25164019D01*
X37486649Y-25163057D01*
X37192209Y-25161979D01*
X36893497Y-25160814D01*
X36596878Y-25159588D01*
X36308715Y-25158330D01*
X36035372Y-25157069D01*
X35783214Y-25155832D01*
X35558604Y-25154647D01*
X35367906Y-25153542D01*
X35314570Y-25153206D01*
X35074549Y-25151167D01*
X34870045Y-25148385D01*
X34702250Y-25144898D01*
X34572355Y-25140741D01*
X34481554Y-25135950D01*
X34431037Y-25130560D01*
X34420278Y-25126356D01*
X34424665Y-25098953D01*
X34436695Y-25038442D01*
X34454675Y-24953008D01*
X34476907Y-24850834D01*
X34483778Y-24819825D01*
X34506828Y-24715469D01*
X34526143Y-24626607D01*
X34540048Y-24561060D01*
X34546865Y-24526646D01*
X34547278Y-24523557D01*
X34568000Y-24522178D01*
X34628386Y-24520944D01*
X34725767Y-24519861D01*
X34857476Y-24518933D01*
X35020843Y-24518169D01*
X35213198Y-24517573D01*
X35431875Y-24517151D01*
X35674203Y-24516911D01*
X35937514Y-24516857D01*
X36219140Y-24516997D01*
G36*
X36219140Y-24516997D02*
G01*
X36516411Y-24517335D01*
X36826659Y-24517879D01*
X36933820Y-24518109D01*
X39320361Y-24523492D01*
X39326204Y-24846284D01*
X39332047Y-25169075D01*
X37770454Y-25164019D01*
X37486649Y-25163057D01*
X37192209Y-25161979D01*
X36893497Y-25160814D01*
X36596878Y-25159588D01*
X36308715Y-25158330D01*
X36035372Y-25157069D01*
X35783214Y-25155832D01*
X35558604Y-25154647D01*
X35367906Y-25153542D01*
X35314570Y-25153206D01*
X35074549Y-25151167D01*
X34870045Y-25148385D01*
X34702250Y-25144898D01*
X34572355Y-25140741D01*
X34481554Y-25135950D01*
X34431037Y-25130560D01*
X34420278Y-25126356D01*
X34424665Y-25098953D01*
X34436695Y-25038442D01*
X34454675Y-24953008D01*
X34476907Y-24850834D01*
X34483778Y-24819825D01*
X34506828Y-24715469D01*
X34526143Y-24626607D01*
X34540048Y-24561060D01*
X34546865Y-24526646D01*
X34547278Y-24523557D01*
X34568000Y-24522178D01*
X34628386Y-24520944D01*
X34725767Y-24519861D01*
X34857476Y-24518933D01*
X35020843Y-24518169D01*
X35213198Y-24517573D01*
X35431875Y-24517151D01*
X35674203Y-24516911D01*
X35937514Y-24516857D01*
X36219140Y-24516997D01*
G37*
X39209687Y-19348323D02*
X39221969Y-19460149D01*
X39231804Y-19555869D01*
X39238498Y-19628191D01*
X39241354Y-19669823D01*
X39241023Y-19677010D01*
X39218359Y-19678770D01*
X39157254Y-19680488D01*
X39061406Y-19682154D01*
X38934512Y-19683756D01*
X38780269Y-19685284D01*
X38602376Y-19686726D01*
X38404529Y-19688072D01*
X38190427Y-19689310D01*
X37963767Y-19690431D01*
X37728247Y-19691423D01*
X37487564Y-19692275D01*
X37245416Y-19692976D01*
X37005501Y-19693515D01*
X36771516Y-19693882D01*
X36547159Y-19694066D01*
X36336128Y-19694055D01*
X36142119Y-19693839D01*
X35968832Y-19693407D01*
X35819963Y-19692748D01*
X35699210Y-19691852D01*
X35610271Y-19690706D01*
X35556843Y-19689301D01*
X35542111Y-19687904D01*
X35550786Y-19664171D01*
X35574763Y-19609087D01*
X35610973Y-19529437D01*
X35656348Y-19432011D01*
X35689604Y-19361731D01*
X35837098Y-19051909D01*
X36299952Y-19051909D01*
X36411208Y-19051648D01*
X36558852Y-19050900D01*
X36736943Y-19049715D01*
X36939538Y-19048141D01*
X37160697Y-19046230D01*
X37394477Y-19044030D01*
X37634938Y-19041592D01*
X37876136Y-19038966D01*
X37967914Y-19037915D01*
X39173023Y-19023922D01*
X39209687Y-19348323D01*
G36*
X39209687Y-19348323D02*
G01*
X39221969Y-19460149D01*
X39231804Y-19555869D01*
X39238498Y-19628191D01*
X39241354Y-19669823D01*
X39241023Y-19677010D01*
X39218359Y-19678770D01*
X39157254Y-19680488D01*
X39061406Y-19682154D01*
X38934512Y-19683756D01*
X38780269Y-19685284D01*
X38602376Y-19686726D01*
X38404529Y-19688072D01*
X38190427Y-19689310D01*
X37963767Y-19690431D01*
X37728247Y-19691423D01*
X37487564Y-19692275D01*
X37245416Y-19692976D01*
X37005501Y-19693515D01*
X36771516Y-19693882D01*
X36547159Y-19694066D01*
X36336128Y-19694055D01*
X36142119Y-19693839D01*
X35968832Y-19693407D01*
X35819963Y-19692748D01*
X35699210Y-19691852D01*
X35610271Y-19690706D01*
X35556843Y-19689301D01*
X35542111Y-19687904D01*
X35550786Y-19664171D01*
X35574763Y-19609087D01*
X35610973Y-19529437D01*
X35656348Y-19432011D01*
X35689604Y-19361731D01*
X35837098Y-19051909D01*
X36299952Y-19051909D01*
X36411208Y-19051648D01*
X36558852Y-19050900D01*
X36736943Y-19049715D01*
X36939538Y-19048141D01*
X37160697Y-19046230D01*
X37394477Y-19044030D01*
X37634938Y-19041592D01*
X37876136Y-19038966D01*
X37967914Y-19037915D01*
X39173023Y-19023922D01*
X39209687Y-19348323D01*
G37*
X31855146Y-73750913D02*
X31919682Y-73762299D01*
X32013719Y-73779860D01*
X32131750Y-73802490D01*
X32268267Y-73829087D01*
X32417764Y-73858546D01*
X32574731Y-73889762D01*
X32733664Y-73921633D01*
X32889053Y-73953054D01*
X33035392Y-73982922D01*
X33167174Y-74010132D01*
X33278891Y-74033580D01*
X33365036Y-74052163D01*
X33420102Y-74064776D01*
X33438543Y-74070118D01*
X33441115Y-74094062D01*
X33440144Y-74149876D01*
X33436384Y-74227314D01*
X33430585Y-74316131D01*
X33423502Y-74406081D01*
X33415886Y-74486918D01*
X33408490Y-74548398D01*
X33402067Y-74580275D01*
X33400921Y-74582241D01*
X33379087Y-74584907D01*
X33320580Y-74589534D01*
X33230998Y-74595791D01*
X33115938Y-74603348D01*
X32980999Y-74611874D01*
X32831778Y-74621041D01*
X32673874Y-74630516D01*
X32512884Y-74639970D01*
X32354406Y-74649073D01*
X32204039Y-74657494D01*
X32067379Y-74664903D01*
X31950026Y-74670969D01*
X31857577Y-74675362D01*
X31795629Y-74677753D01*
X31776520Y-74678094D01*
X31704511Y-74677909D01*
X31718126Y-74450367D01*
X31727526Y-74324238D01*
X31740365Y-74195427D01*
X31755592Y-74070821D01*
X31772153Y-73957309D01*
X31788997Y-73861776D01*
X31805071Y-73791112D01*
X31819323Y-73752202D01*
X31825617Y-73746804D01*
X31855146Y-73750913D01*
G36*
X31855146Y-73750913D02*
G01*
X31919682Y-73762299D01*
X32013719Y-73779860D01*
X32131750Y-73802490D01*
X32268267Y-73829087D01*
X32417764Y-73858546D01*
X32574731Y-73889762D01*
X32733664Y-73921633D01*
X32889053Y-73953054D01*
X33035392Y-73982922D01*
X33167174Y-74010132D01*
X33278891Y-74033580D01*
X33365036Y-74052163D01*
X33420102Y-74064776D01*
X33438543Y-74070118D01*
X33441115Y-74094062D01*
X33440144Y-74149876D01*
X33436384Y-74227314D01*
X33430585Y-74316131D01*
X33423502Y-74406081D01*
X33415886Y-74486918D01*
X33408490Y-74548398D01*
X33402067Y-74580275D01*
X33400921Y-74582241D01*
X33379087Y-74584907D01*
X33320580Y-74589534D01*
X33230998Y-74595791D01*
X33115938Y-74603348D01*
X32980999Y-74611874D01*
X32831778Y-74621041D01*
X32673874Y-74630516D01*
X32512884Y-74639970D01*
X32354406Y-74649073D01*
X32204039Y-74657494D01*
X32067379Y-74664903D01*
X31950026Y-74670969D01*
X31857577Y-74675362D01*
X31795629Y-74677753D01*
X31776520Y-74678094D01*
X31704511Y-74677909D01*
X31718126Y-74450367D01*
X31727526Y-74324238D01*
X31740365Y-74195427D01*
X31755592Y-74070821D01*
X31772153Y-73957309D01*
X31788997Y-73861776D01*
X31805071Y-73791112D01*
X31819323Y-73752202D01*
X31825617Y-73746804D01*
X31855146Y-73750913D01*
G37*
X32410842Y-70842690D02*
X32467709Y-70857049D01*
X32554385Y-70880851D01*
X32665570Y-70912497D01*
X32795969Y-70950392D01*
X32940281Y-70992939D01*
X33093211Y-71038539D01*
X33249460Y-71085598D01*
X33403729Y-71132517D01*
X33550723Y-71177699D01*
X33685142Y-71219549D01*
X33801689Y-71256468D01*
X33895066Y-71286860D01*
X33959976Y-71309128D01*
X33991120Y-71321675D01*
X33992707Y-71322755D01*
X33993993Y-71344826D01*
X33993192Y-71401443D01*
X33990517Y-71484884D01*
X33986183Y-71587422D01*
X33984262Y-71627435D01*
X33969472Y-71926242D01*
X33819167Y-71923568D01*
X33762688Y-71921523D01*
X33670010Y-71916917D01*
X33547166Y-71910103D01*
X33400189Y-71901438D01*
X33235112Y-71891273D01*
X33057970Y-71879965D01*
X32908068Y-71870094D01*
X32733265Y-71858293D01*
X32572331Y-71847181D01*
X32430020Y-71837104D01*
X32311087Y-71828410D01*
X32220287Y-71821446D01*
X32162373Y-71816560D01*
X32142117Y-71814137D01*
X32144865Y-71792440D01*
X32156731Y-71736775D01*
X32175956Y-71654087D01*
X32200781Y-71551320D01*
X32229447Y-71435417D01*
X32260193Y-71313323D01*
X32291262Y-71191983D01*
X32320893Y-71078340D01*
X32347327Y-70979338D01*
X32368805Y-70901922D01*
X32383568Y-70853036D01*
X32389080Y-70839370D01*
X32410842Y-70842690D01*
G36*
X32410842Y-70842690D02*
G01*
X32467709Y-70857049D01*
X32554385Y-70880851D01*
X32665570Y-70912497D01*
X32795969Y-70950392D01*
X32940281Y-70992939D01*
X33093211Y-71038539D01*
X33249460Y-71085598D01*
X33403729Y-71132517D01*
X33550723Y-71177699D01*
X33685142Y-71219549D01*
X33801689Y-71256468D01*
X33895066Y-71286860D01*
X33959976Y-71309128D01*
X33991120Y-71321675D01*
X33992707Y-71322755D01*
X33993993Y-71344826D01*
X33993192Y-71401443D01*
X33990517Y-71484884D01*
X33986183Y-71587422D01*
X33984262Y-71627435D01*
X33969472Y-71926242D01*
X33819167Y-71923568D01*
X33762688Y-71921523D01*
X33670010Y-71916917D01*
X33547166Y-71910103D01*
X33400189Y-71901438D01*
X33235112Y-71891273D01*
X33057970Y-71879965D01*
X32908068Y-71870094D01*
X32733265Y-71858293D01*
X32572331Y-71847181D01*
X32430020Y-71837104D01*
X32311087Y-71828410D01*
X32220287Y-71821446D01*
X32162373Y-71816560D01*
X32142117Y-71814137D01*
X32144865Y-71792440D01*
X32156731Y-71736775D01*
X32175956Y-71654087D01*
X32200781Y-71551320D01*
X32229447Y-71435417D01*
X32260193Y-71313323D01*
X32291262Y-71191983D01*
X32320893Y-71078340D01*
X32347327Y-70979338D01*
X32368805Y-70901922D01*
X32383568Y-70853036D01*
X32389080Y-70839370D01*
X32410842Y-70842690D01*
G37*
X36438513Y-21070699D02*
X36702088Y-21073435D01*
X36976210Y-21076454D01*
X37253934Y-21079670D01*
X37528319Y-21082994D01*
X37792419Y-21086341D01*
X38039293Y-21089622D01*
X38261997Y-21092751D01*
X38453588Y-21095640D01*
X38553070Y-21097261D01*
X39330945Y-21110430D01*
X39330945Y-21803575D01*
X39177486Y-21798389D01*
X39134627Y-21797595D01*
X39052590Y-21796727D01*
X38934531Y-21795798D01*
X38783604Y-21794824D01*
X38602965Y-21793820D01*
X38395768Y-21792802D01*
X38165171Y-21791785D01*
X37914327Y-21790783D01*
X37646392Y-21789812D01*
X37364521Y-21788887D01*
X37071869Y-21788023D01*
X36953593Y-21787701D01*
X36611227Y-21786761D01*
X36308751Y-21785838D01*
X36043721Y-21784880D01*
X35813694Y-21783838D01*
X35616227Y-21782661D01*
X35448877Y-21781298D01*
X35309199Y-21779701D01*
X35194751Y-21777817D01*
X35103089Y-21775597D01*
X35031770Y-21772991D01*
X34978350Y-21769947D01*
X34940386Y-21766417D01*
X34915435Y-21762348D01*
X34901053Y-21757692D01*
X34894797Y-21752397D01*
X34894224Y-21746414D01*
X34894534Y-21745262D01*
X34906289Y-21706642D01*
X34925841Y-21641971D01*
X34947304Y-21570742D01*
X34973492Y-21483709D01*
X35005820Y-21376287D01*
X35038225Y-21268620D01*
X35045264Y-21245232D01*
X35101831Y-21057305D01*
X36438513Y-21070699D01*
G36*
X36438513Y-21070699D02*
G01*
X36702088Y-21073435D01*
X36976210Y-21076454D01*
X37253934Y-21079670D01*
X37528319Y-21082994D01*
X37792419Y-21086341D01*
X38039293Y-21089622D01*
X38261997Y-21092751D01*
X38453588Y-21095640D01*
X38553070Y-21097261D01*
X39330945Y-21110430D01*
X39330945Y-21803575D01*
X39177486Y-21798389D01*
X39134627Y-21797595D01*
X39052590Y-21796727D01*
X38934531Y-21795798D01*
X38783604Y-21794824D01*
X38602965Y-21793820D01*
X38395768Y-21792802D01*
X38165171Y-21791785D01*
X37914327Y-21790783D01*
X37646392Y-21789812D01*
X37364521Y-21788887D01*
X37071869Y-21788023D01*
X36953593Y-21787701D01*
X36611227Y-21786761D01*
X36308751Y-21785838D01*
X36043721Y-21784880D01*
X35813694Y-21783838D01*
X35616227Y-21782661D01*
X35448877Y-21781298D01*
X35309199Y-21779701D01*
X35194751Y-21777817D01*
X35103089Y-21775597D01*
X35031770Y-21772991D01*
X34978350Y-21769947D01*
X34940386Y-21766417D01*
X34915435Y-21762348D01*
X34901053Y-21757692D01*
X34894797Y-21752397D01*
X34894224Y-21746414D01*
X34894534Y-21745262D01*
X34906289Y-21706642D01*
X34925841Y-21641971D01*
X34947304Y-21570742D01*
X34973492Y-21483709D01*
X35005820Y-21376287D01*
X35038225Y-21268620D01*
X35045264Y-21245232D01*
X35101831Y-21057305D01*
X36438513Y-21070699D01*
G37*
X48919133Y-24707094D02*
X49069018Y-24707691D01*
X49241249Y-24708631D01*
X49431831Y-24709880D01*
X49636767Y-24711401D01*
X49852060Y-24713156D01*
X50073713Y-24715109D01*
X50297730Y-24717223D01*
X50520115Y-24719462D01*
X50736870Y-24721790D01*
X50943999Y-24724168D01*
X51137506Y-24726562D01*
X51313393Y-24728933D01*
X51467665Y-24731246D01*
X51596324Y-24733464D01*
X51695374Y-24735550D01*
X51760818Y-24737467D01*
X51767574Y-24737741D01*
X52043954Y-24749642D01*
X51978238Y-25038733D01*
X51912523Y-25327825D01*
X50214900Y-25333243D01*
X49906930Y-25334192D01*
X49638574Y-25334908D01*
X49407111Y-25335338D01*
X49209822Y-25335429D01*
X49043988Y-25335129D01*
X48906888Y-25334387D01*
X48795803Y-25333149D01*
X48708014Y-25331364D01*
X48640801Y-25328979D01*
X48591444Y-25325941D01*
X48557223Y-25322199D01*
X48535420Y-25317701D01*
X48523313Y-25312393D01*
X48518184Y-25306224D01*
X48517278Y-25300597D01*
X48521145Y-25266250D01*
X48531716Y-25199509D01*
X48547450Y-25109501D01*
X48566803Y-25005353D01*
X48570079Y-24988262D01*
X48589631Y-24886383D01*
X48605927Y-24800853D01*
X48617482Y-24739521D01*
X48622808Y-24710238D01*
X48622996Y-24708891D01*
X48643527Y-24707741D01*
X48702391Y-24707083D01*
X48795592Y-24706880D01*
X48919133Y-24707094D01*
G36*
X48919133Y-24707094D02*
G01*
X49069018Y-24707691D01*
X49241249Y-24708631D01*
X49431831Y-24709880D01*
X49636767Y-24711401D01*
X49852060Y-24713156D01*
X50073713Y-24715109D01*
X50297730Y-24717223D01*
X50520115Y-24719462D01*
X50736870Y-24721790D01*
X50943999Y-24724168D01*
X51137506Y-24726562D01*
X51313393Y-24728933D01*
X51467665Y-24731246D01*
X51596324Y-24733464D01*
X51695374Y-24735550D01*
X51760818Y-24737467D01*
X51767574Y-24737741D01*
X52043954Y-24749642D01*
X51978238Y-25038733D01*
X51912523Y-25327825D01*
X50214900Y-25333243D01*
X49906930Y-25334192D01*
X49638574Y-25334908D01*
X49407111Y-25335338D01*
X49209822Y-25335429D01*
X49043988Y-25335129D01*
X48906888Y-25334387D01*
X48795803Y-25333149D01*
X48708014Y-25331364D01*
X48640801Y-25328979D01*
X48591444Y-25325941D01*
X48557223Y-25322199D01*
X48535420Y-25317701D01*
X48523313Y-25312393D01*
X48518184Y-25306224D01*
X48517278Y-25300597D01*
X48521145Y-25266250D01*
X48531716Y-25199509D01*
X48547450Y-25109501D01*
X48566803Y-25005353D01*
X48570079Y-24988262D01*
X48589631Y-24886383D01*
X48605927Y-24800853D01*
X48617482Y-24739521D01*
X48622808Y-24710238D01*
X48622996Y-24708891D01*
X48643527Y-24707741D01*
X48702391Y-24707083D01*
X48795592Y-24706880D01*
X48919133Y-24707094D01*
G37*
X33145691Y-68230523D02*
X33174034Y-68238295D01*
X33238412Y-68255554D01*
X33333928Y-68280998D01*
X33455682Y-68313327D01*
X33598773Y-68351238D01*
X33758304Y-68393432D01*
X33911629Y-68433924D01*
X34080262Y-68478574D01*
X34235536Y-68519971D01*
X34372796Y-68556850D01*
X34487389Y-68587950D01*
X34574662Y-68612007D01*
X34629959Y-68627761D01*
X34648606Y-68633848D01*
X34648201Y-68656220D01*
X34642218Y-68713040D01*
X34631567Y-68796920D01*
X34617159Y-68900475D01*
X34608310Y-68960816D01*
X34560637Y-69280409D01*
X34495749Y-69277588D01*
X34460415Y-69274966D01*
X34388041Y-69268727D01*
X34283722Y-69259340D01*
X34152553Y-69247274D01*
X33999631Y-69232998D01*
X33830051Y-69216981D01*
X33648909Y-69199692D01*
X33633499Y-69198213D01*
X33454198Y-69180692D01*
X33288290Y-69163891D01*
X33140464Y-69148328D01*
X33015408Y-69134524D01*
X32917812Y-69122998D01*
X32852365Y-69114269D01*
X32823756Y-69108857D01*
X32822977Y-69108414D01*
X32819265Y-69078511D01*
X32829709Y-69016798D01*
X32852172Y-68930533D01*
X32884517Y-68826978D01*
X32924606Y-68713393D01*
X32970301Y-68597039D01*
X32981092Y-68571325D01*
X33021550Y-68474080D01*
X33056717Y-68385754D01*
X33082598Y-68316623D01*
X33094705Y-68279081D01*
X33113502Y-68236409D01*
X33143164Y-68229823D01*
X33145691Y-68230523D01*
G36*
X33145691Y-68230523D02*
G01*
X33174034Y-68238295D01*
X33238412Y-68255554D01*
X33333928Y-68280998D01*
X33455682Y-68313327D01*
X33598773Y-68351238D01*
X33758304Y-68393432D01*
X33911629Y-68433924D01*
X34080262Y-68478574D01*
X34235536Y-68519971D01*
X34372796Y-68556850D01*
X34487389Y-68587950D01*
X34574662Y-68612007D01*
X34629959Y-68627761D01*
X34648606Y-68633848D01*
X34648201Y-68656220D01*
X34642218Y-68713040D01*
X34631567Y-68796920D01*
X34617159Y-68900475D01*
X34608310Y-68960816D01*
X34560637Y-69280409D01*
X34495749Y-69277588D01*
X34460415Y-69274966D01*
X34388041Y-69268727D01*
X34283722Y-69259340D01*
X34152553Y-69247274D01*
X33999631Y-69232998D01*
X33830051Y-69216981D01*
X33648909Y-69199692D01*
X33633499Y-69198213D01*
X33454198Y-69180692D01*
X33288290Y-69163891D01*
X33140464Y-69148328D01*
X33015408Y-69134524D01*
X32917812Y-69122998D01*
X32852365Y-69114269D01*
X32823756Y-69108857D01*
X32822977Y-69108414D01*
X32819265Y-69078511D01*
X32829709Y-69016798D01*
X32852172Y-68930533D01*
X32884517Y-68826978D01*
X32924606Y-68713393D01*
X32970301Y-68597039D01*
X32981092Y-68571325D01*
X33021550Y-68474080D01*
X33056717Y-68385754D01*
X33082598Y-68316623D01*
X33094705Y-68279081D01*
X33113502Y-68236409D01*
X33143164Y-68229823D01*
X33145691Y-68230523D01*
G37*
X54669882Y-30546456D02*
X54762546Y-30549335D01*
X54831389Y-30553652D01*
X54868658Y-30559011D01*
X54872954Y-30561284D01*
X54873964Y-30584984D01*
X54873686Y-30646513D01*
X54872241Y-30741389D01*
X54869751Y-30865133D01*
X54866338Y-31013262D01*
X54862123Y-31181296D01*
X54857229Y-31364753D01*
X54851777Y-31559153D01*
X54845889Y-31760014D01*
X54839686Y-31962856D01*
X54833291Y-32163197D01*
X54826825Y-32356556D01*
X54820410Y-32538453D01*
X54816007Y-32656784D01*
X54802879Y-33000742D01*
X55083787Y-33000869D01*
X55208917Y-33002029D01*
X55337900Y-33005086D01*
X55454973Y-33009565D01*
X55539320Y-33014589D01*
X55713945Y-33028183D01*
X55713945Y-33339409D01*
X55496986Y-33336130D01*
X55414009Y-33334464D01*
X55297623Y-33331545D01*
X55156729Y-33327629D01*
X55000226Y-33322969D01*
X54837012Y-33317818D01*
X54730796Y-33314301D01*
X54582834Y-33309026D01*
X54449367Y-33303735D01*
X54336061Y-33298697D01*
X54248580Y-33294179D01*
X54192589Y-33290449D01*
X54173778Y-33287964D01*
X54172906Y-33266013D01*
X54173283Y-33206214D01*
X54174783Y-33113029D01*
X54177281Y-32990920D01*
X54180650Y-32844349D01*
X54184763Y-32677780D01*
X54189496Y-32495674D01*
X54194721Y-32302494D01*
X54200313Y-32102702D01*
X54206146Y-31900761D01*
X54212092Y-31701133D01*
X54218028Y-31508280D01*
X54223825Y-31326665D01*
X54229359Y-31160751D01*
X54234502Y-31014999D01*
X54239130Y-30893873D01*
X54243115Y-30801834D01*
X54245149Y-30762367D01*
X54257518Y-30545409D01*
X54561149Y-30545409D01*
X54669882Y-30546456D01*
G36*
X54669882Y-30546456D02*
G01*
X54762546Y-30549335D01*
X54831389Y-30553652D01*
X54868658Y-30559011D01*
X54872954Y-30561284D01*
X54873964Y-30584984D01*
X54873686Y-30646513D01*
X54872241Y-30741389D01*
X54869751Y-30865133D01*
X54866338Y-31013262D01*
X54862123Y-31181296D01*
X54857229Y-31364753D01*
X54851777Y-31559153D01*
X54845889Y-31760014D01*
X54839686Y-31962856D01*
X54833291Y-32163197D01*
X54826825Y-32356556D01*
X54820410Y-32538453D01*
X54816007Y-32656784D01*
X54802879Y-33000742D01*
X55083787Y-33000869D01*
X55208917Y-33002029D01*
X55337900Y-33005086D01*
X55454973Y-33009565D01*
X55539320Y-33014589D01*
X55713945Y-33028183D01*
X55713945Y-33339409D01*
X55496986Y-33336130D01*
X55414009Y-33334464D01*
X55297623Y-33331545D01*
X55156729Y-33327629D01*
X55000226Y-33322969D01*
X54837012Y-33317818D01*
X54730796Y-33314301D01*
X54582834Y-33309026D01*
X54449367Y-33303735D01*
X54336061Y-33298697D01*
X54248580Y-33294179D01*
X54192589Y-33290449D01*
X54173778Y-33287964D01*
X54172906Y-33266013D01*
X54173283Y-33206214D01*
X54174783Y-33113029D01*
X54177281Y-32990920D01*
X54180650Y-32844349D01*
X54184763Y-32677780D01*
X54189496Y-32495674D01*
X54194721Y-32302494D01*
X54200313Y-32102702D01*
X54206146Y-31900761D01*
X54212092Y-31701133D01*
X54218028Y-31508280D01*
X54223825Y-31326665D01*
X54229359Y-31160751D01*
X54234502Y-31014999D01*
X54239130Y-30893873D01*
X54243115Y-30801834D01*
X54245149Y-30762367D01*
X54257518Y-30545409D01*
X54561149Y-30545409D01*
X54669882Y-30546456D01*
G37*
X49423904Y-22153225D02*
X49476556Y-22155494D01*
X49567467Y-22158624D01*
X49692574Y-22162503D01*
X49847814Y-22167019D01*
X50029122Y-22172059D01*
X50232437Y-22177512D01*
X50453694Y-22183266D01*
X50688831Y-22189208D01*
X50933785Y-22195227D01*
X51036111Y-22197691D01*
X51277954Y-22203553D01*
X51507094Y-22209250D01*
X51720064Y-22214687D01*
X51913396Y-22219769D01*
X52083624Y-22224401D01*
X52227280Y-22228486D01*
X52340897Y-22231931D01*
X52421009Y-22234638D01*
X52464147Y-22236514D01*
X52470850Y-22237150D01*
X52472186Y-22259932D01*
X52469021Y-22314657D01*
X52462442Y-22391305D01*
X52453538Y-22479856D01*
X52443394Y-22570290D01*
X52433099Y-22652586D01*
X52423739Y-22716725D01*
X52416403Y-22752686D01*
X52414465Y-22756806D01*
X52391595Y-22758217D01*
X52329953Y-22758517D01*
X52233081Y-22757770D01*
X52104522Y-22756035D01*
X51947822Y-22753377D01*
X51766522Y-22749856D01*
X51564168Y-22745535D01*
X51344303Y-22740476D01*
X51110470Y-22734741D01*
X51014945Y-22732300D01*
X50765325Y-22725956D01*
X50519604Y-22719908D01*
X50282495Y-22714261D01*
X50058712Y-22709119D01*
X49852969Y-22704584D01*
X49669980Y-22700761D01*
X49514458Y-22697752D01*
X49391118Y-22695662D01*
X49304672Y-22694594D01*
X49295153Y-22694528D01*
X49173668Y-22692605D01*
X49074424Y-22688623D01*
X49003243Y-22682965D01*
X48965951Y-22676015D01*
X48961778Y-22672578D01*
X48971447Y-22647596D01*
X48997956Y-22593009D01*
X49037560Y-22516206D01*
X49086514Y-22424574D01*
X49101112Y-22397767D01*
X49240446Y-22142952D01*
X49423904Y-22153225D01*
G36*
X49423904Y-22153225D02*
G01*
X49476556Y-22155494D01*
X49567467Y-22158624D01*
X49692574Y-22162503D01*
X49847814Y-22167019D01*
X50029122Y-22172059D01*
X50232437Y-22177512D01*
X50453694Y-22183266D01*
X50688831Y-22189208D01*
X50933785Y-22195227D01*
X51036111Y-22197691D01*
X51277954Y-22203553D01*
X51507094Y-22209250D01*
X51720064Y-22214687D01*
X51913396Y-22219769D01*
X52083624Y-22224401D01*
X52227280Y-22228486D01*
X52340897Y-22231931D01*
X52421009Y-22234638D01*
X52464147Y-22236514D01*
X52470850Y-22237150D01*
X52472186Y-22259932D01*
X52469021Y-22314657D01*
X52462442Y-22391305D01*
X52453538Y-22479856D01*
X52443394Y-22570290D01*
X52433099Y-22652586D01*
X52423739Y-22716725D01*
X52416403Y-22752686D01*
X52414465Y-22756806D01*
X52391595Y-22758217D01*
X52329953Y-22758517D01*
X52233081Y-22757770D01*
X52104522Y-22756035D01*
X51947822Y-22753377D01*
X51766522Y-22749856D01*
X51564168Y-22745535D01*
X51344303Y-22740476D01*
X51110470Y-22734741D01*
X51014945Y-22732300D01*
X50765325Y-22725956D01*
X50519604Y-22719908D01*
X50282495Y-22714261D01*
X50058712Y-22709119D01*
X49852969Y-22704584D01*
X49669980Y-22700761D01*
X49514458Y-22697752D01*
X49391118Y-22695662D01*
X49304672Y-22694594D01*
X49295153Y-22694528D01*
X49173668Y-22692605D01*
X49074424Y-22688623D01*
X49003243Y-22682965D01*
X48965951Y-22676015D01*
X48961778Y-22672578D01*
X48971447Y-22647596D01*
X48997956Y-22593009D01*
X49037560Y-22516206D01*
X49086514Y-22424574D01*
X49101112Y-22397767D01*
X49240446Y-22142952D01*
X49423904Y-22153225D01*
G37*
X29573875Y-33909465D02*
X29623413Y-33936658D01*
X29694633Y-33981556D01*
X29781402Y-34040364D01*
X29840596Y-34082345D01*
X29933462Y-34149264D01*
X30013468Y-34206854D01*
X30074675Y-34250845D01*
X30111146Y-34276969D01*
X30118724Y-34282315D01*
X30107965Y-34299840D01*
X30075079Y-34349290D01*
X30022049Y-34427788D01*
X29950857Y-34532462D01*
X29863484Y-34660436D01*
X29761912Y-34808837D01*
X29648124Y-34974790D01*
X29524101Y-35155420D01*
X29391824Y-35347854D01*
X29253277Y-35549216D01*
X29110440Y-35756633D01*
X28965296Y-35967230D01*
X28819826Y-36178134D01*
X28676012Y-36386468D01*
X28535837Y-36589360D01*
X28401282Y-36783934D01*
X28274329Y-36967317D01*
X28156959Y-37136633D01*
X28051156Y-37289010D01*
X27958900Y-37421571D01*
X27882173Y-37531444D01*
X27822958Y-37615753D01*
X27783236Y-37671625D01*
X27764989Y-37696184D01*
X27764438Y-37696790D01*
X27743143Y-37710769D01*
X27730407Y-37691813D01*
X27724284Y-37665040D01*
X27714635Y-37604519D01*
X27703412Y-37517497D01*
X27691468Y-37412797D01*
X27679652Y-37299240D01*
X27668814Y-37185650D01*
X27659807Y-37080849D01*
X27653479Y-36993660D01*
X27650682Y-36932905D01*
X27651464Y-36909717D01*
X27663495Y-36887278D01*
X27696252Y-36832389D01*
X27747687Y-36748284D01*
X27815754Y-36638201D01*
X27898407Y-36505375D01*
X27993600Y-36353042D01*
X28099286Y-36184439D01*
X28213420Y-36002803D01*
X28333954Y-35811368D01*
X28458844Y-35613371D01*
X28586041Y-35412049D01*
X28713501Y-35210638D01*
X28839177Y-35012374D01*
X28961022Y-34820492D01*
X29076990Y-34638230D01*
X29185036Y-34468823D01*
X29283112Y-34315508D01*
X29369173Y-34181521D01*
X29441172Y-34070097D01*
X29497063Y-33984474D01*
X29534799Y-33927887D01*
X29552149Y-33903773D01*
X29573875Y-33909465D01*
G36*
X29573875Y-33909465D02*
G01*
X29623413Y-33936658D01*
X29694633Y-33981556D01*
X29781402Y-34040364D01*
X29840596Y-34082345D01*
X29933462Y-34149264D01*
X30013468Y-34206854D01*
X30074675Y-34250845D01*
X30111146Y-34276969D01*
X30118724Y-34282315D01*
X30107965Y-34299840D01*
X30075079Y-34349290D01*
X30022049Y-34427788D01*
X29950857Y-34532462D01*
X29863484Y-34660436D01*
X29761912Y-34808837D01*
X29648124Y-34974790D01*
X29524101Y-35155420D01*
X29391824Y-35347854D01*
X29253277Y-35549216D01*
X29110440Y-35756633D01*
X28965296Y-35967230D01*
X28819826Y-36178134D01*
X28676012Y-36386468D01*
X28535837Y-36589360D01*
X28401282Y-36783934D01*
X28274329Y-36967317D01*
X28156959Y-37136633D01*
X28051156Y-37289010D01*
X27958900Y-37421571D01*
X27882173Y-37531444D01*
X27822958Y-37615753D01*
X27783236Y-37671625D01*
X27764989Y-37696184D01*
X27764438Y-37696790D01*
X27743143Y-37710769D01*
X27730407Y-37691813D01*
X27724284Y-37665040D01*
X27714635Y-37604519D01*
X27703412Y-37517497D01*
X27691468Y-37412797D01*
X27679652Y-37299240D01*
X27668814Y-37185650D01*
X27659807Y-37080849D01*
X27653479Y-36993660D01*
X27650682Y-36932905D01*
X27651464Y-36909717D01*
X27663495Y-36887278D01*
X27696252Y-36832389D01*
X27747687Y-36748284D01*
X27815754Y-36638201D01*
X27898407Y-36505375D01*
X27993600Y-36353042D01*
X28099286Y-36184439D01*
X28213420Y-36002803D01*
X28333954Y-35811368D01*
X28458844Y-35613371D01*
X28586041Y-35412049D01*
X28713501Y-35210638D01*
X28839177Y-35012374D01*
X28961022Y-34820492D01*
X29076990Y-34638230D01*
X29185036Y-34468823D01*
X29283112Y-34315508D01*
X29369173Y-34181521D01*
X29441172Y-34070097D01*
X29497063Y-33984474D01*
X29534799Y-33927887D01*
X29552149Y-33903773D01*
X29573875Y-33909465D01*
G37*
X47824070Y-30341714D02*
X47990681Y-30345781D01*
X48151324Y-30350298D01*
X48298883Y-30355019D01*
X48426241Y-30359701D01*
X48526281Y-30364097D01*
X48591888Y-30367963D01*
X48596653Y-30368341D01*
X48750111Y-30381049D01*
X48750111Y-30695665D01*
X48296584Y-30680857D01*
X47843056Y-30666049D01*
X47831669Y-30738020D01*
X47827528Y-30782551D01*
X47823187Y-30860858D01*
X47819001Y-30964386D01*
X47815328Y-31084581D01*
X47813023Y-31185700D01*
X47805762Y-31561409D01*
X47946660Y-31561409D01*
X48043662Y-31563417D01*
X48156538Y-31568652D01*
X48249501Y-31575098D01*
X48411445Y-31588787D01*
X48411445Y-31904783D01*
X48107337Y-31896919D01*
X47803230Y-31889056D01*
X47789837Y-32077734D01*
X47784269Y-32179685D01*
X47779833Y-32305641D01*
X47777078Y-32437275D01*
X47776445Y-32524499D01*
X47776445Y-32782587D01*
X48222826Y-32794768D01*
X48355958Y-32798885D01*
X48474307Y-32803468D01*
X48571501Y-32808194D01*
X48641167Y-32812740D01*
X48676933Y-32816784D01*
X48680183Y-32817925D01*
X48683632Y-32842903D01*
X48682382Y-32898307D01*
X48676727Y-32972522D01*
X48676154Y-32978322D01*
X48661148Y-33127742D01*
X48446338Y-33124464D01*
X48364011Y-33122798D01*
X48248238Y-33119882D01*
X48107882Y-33115969D01*
X47951803Y-33111312D01*
X47788863Y-33106164D01*
X47682296Y-33102635D01*
X47534645Y-33097481D01*
X47401769Y-33092523D01*
X47289271Y-33087996D01*
X47202751Y-33084135D01*
X47147809Y-33081175D01*
X47129971Y-33079455D01*
X47130048Y-33058055D01*
X47131377Y-32998131D01*
X47133849Y-32903468D01*
X47137354Y-32777854D01*
X47141782Y-32625075D01*
X47147025Y-32448917D01*
X47152973Y-32253168D01*
X47159517Y-32041613D01*
X47164622Y-31878909D01*
X47171721Y-31651576D01*
X47178430Y-31432020D01*
X47184622Y-31224789D01*
X47190165Y-31034432D01*
X47194931Y-30865501D01*
X47198792Y-30722545D01*
X47201616Y-30610113D01*
X47203276Y-30532756D01*
X47203657Y-30505393D01*
X47204945Y-30327795D01*
X47824070Y-30341714D01*
G36*
X47824070Y-30341714D02*
G01*
X47990681Y-30345781D01*
X48151324Y-30350298D01*
X48298883Y-30355019D01*
X48426241Y-30359701D01*
X48526281Y-30364097D01*
X48591888Y-30367963D01*
X48596653Y-30368341D01*
X48750111Y-30381049D01*
X48750111Y-30695665D01*
X48296584Y-30680857D01*
X47843056Y-30666049D01*
X47831669Y-30738020D01*
X47827528Y-30782551D01*
X47823187Y-30860858D01*
X47819001Y-30964386D01*
X47815328Y-31084581D01*
X47813023Y-31185700D01*
X47805762Y-31561409D01*
X47946660Y-31561409D01*
X48043662Y-31563417D01*
X48156538Y-31568652D01*
X48249501Y-31575098D01*
X48411445Y-31588787D01*
X48411445Y-31904783D01*
X48107337Y-31896919D01*
X47803230Y-31889056D01*
X47789837Y-32077734D01*
X47784269Y-32179685D01*
X47779833Y-32305641D01*
X47777078Y-32437275D01*
X47776445Y-32524499D01*
X47776445Y-32782587D01*
X48222826Y-32794768D01*
X48355958Y-32798885D01*
X48474307Y-32803468D01*
X48571501Y-32808194D01*
X48641167Y-32812740D01*
X48676933Y-32816784D01*
X48680183Y-32817925D01*
X48683632Y-32842903D01*
X48682382Y-32898307D01*
X48676727Y-32972522D01*
X48676154Y-32978322D01*
X48661148Y-33127742D01*
X48446338Y-33124464D01*
X48364011Y-33122798D01*
X48248238Y-33119882D01*
X48107882Y-33115969D01*
X47951803Y-33111312D01*
X47788863Y-33106164D01*
X47682296Y-33102635D01*
X47534645Y-33097481D01*
X47401769Y-33092523D01*
X47289271Y-33087996D01*
X47202751Y-33084135D01*
X47147809Y-33081175D01*
X47129971Y-33079455D01*
X47130048Y-33058055D01*
X47131377Y-32998131D01*
X47133849Y-32903468D01*
X47137354Y-32777854D01*
X47141782Y-32625075D01*
X47147025Y-32448917D01*
X47152973Y-32253168D01*
X47159517Y-32041613D01*
X47164622Y-31878909D01*
X47171721Y-31651576D01*
X47178430Y-31432020D01*
X47184622Y-31224789D01*
X47190165Y-31034432D01*
X47194931Y-30865501D01*
X47198792Y-30722545D01*
X47201616Y-30610113D01*
X47203276Y-30532756D01*
X47203657Y-30505393D01*
X47204945Y-30327795D01*
X47824070Y-30341714D01*
G37*
X59883021Y-30707653D02*
X59973087Y-30708937D01*
X60087880Y-30711320D01*
X60221602Y-30714622D01*
X60368450Y-30718659D01*
X60522625Y-30723250D01*
X60678326Y-30728212D01*
X60829754Y-30733363D01*
X60971107Y-30738521D01*
X61096585Y-30743503D01*
X61200388Y-30748128D01*
X61276715Y-30752213D01*
X61319767Y-30755576D01*
X61327178Y-30757075D01*
X61329898Y-30781924D01*
X61330034Y-30837486D01*
X61327583Y-30912220D01*
X61327221Y-30919782D01*
X61319742Y-31071905D01*
X60869761Y-31059448D01*
X60419780Y-31046990D01*
X60405875Y-31288324D01*
X60399820Y-31413911D01*
X60395077Y-31551217D01*
X60392311Y-31678964D01*
X60391874Y-31736034D01*
X60391778Y-31942409D01*
X60619320Y-31942641D01*
X60721862Y-31943877D01*
X60816300Y-31947022D01*
X60889810Y-31951546D01*
X60920945Y-31955083D01*
X60995028Y-31967291D01*
X60987952Y-32127389D01*
X60980876Y-32287488D01*
X60678984Y-32273770D01*
X60377092Y-32260053D01*
X60362201Y-32697280D01*
X60357510Y-32850318D01*
X60355335Y-32965953D01*
X60355813Y-33049050D01*
X60359077Y-33104473D01*
X60365264Y-33137086D01*
X60374508Y-33151753D01*
X60374835Y-33151967D01*
X60404828Y-33158131D01*
X60468965Y-33163411D01*
X60559061Y-33167379D01*
X60666930Y-33169610D01*
X60719861Y-33169935D01*
X60842159Y-33171026D01*
X60959170Y-33173669D01*
X61059740Y-33177505D01*
X61132718Y-33182173D01*
X61148486Y-33183791D01*
X61259611Y-33197138D01*
X61259611Y-33508742D01*
X61095570Y-33505358D01*
X61030641Y-33503768D01*
X60930810Y-33500999D01*
X60803485Y-33497274D01*
X60656074Y-33492813D01*
X60495984Y-33487836D01*
X60330624Y-33482565D01*
X60328341Y-33482491D01*
X60173016Y-33477215D01*
X60031961Y-33471927D01*
X59910576Y-33466869D01*
X59814258Y-33462284D01*
X59748407Y-33458414D01*
X59718420Y-33455501D01*
X59717213Y-33455065D01*
X59716232Y-33432958D01*
X59716577Y-33372881D01*
X59718117Y-33279144D01*
X59720722Y-33156058D01*
X59724261Y-33007931D01*
X59728605Y-32839073D01*
X59733622Y-32653793D01*
X59739183Y-32456400D01*
X59745157Y-32251205D01*
X59751414Y-32042516D01*
X59757823Y-31834644D01*
X59764254Y-31631896D01*
X59770577Y-31438583D01*
X59776661Y-31259015D01*
X59782376Y-31097500D01*
X59787592Y-30958348D01*
X59792178Y-30845868D01*
X59796004Y-30764371D01*
X59798939Y-30718165D01*
X59800274Y-30709114D01*
X59823483Y-30707651D01*
X59883021Y-30707653D01*
G36*
X59883021Y-30707653D02*
G01*
X59973087Y-30708937D01*
X60087880Y-30711320D01*
X60221602Y-30714622D01*
X60368450Y-30718659D01*
X60522625Y-30723250D01*
X60678326Y-30728212D01*
X60829754Y-30733363D01*
X60971107Y-30738521D01*
X61096585Y-30743503D01*
X61200388Y-30748128D01*
X61276715Y-30752213D01*
X61319767Y-30755576D01*
X61327178Y-30757075D01*
X61329898Y-30781924D01*
X61330034Y-30837486D01*
X61327583Y-30912220D01*
X61327221Y-30919782D01*
X61319742Y-31071905D01*
X60869761Y-31059448D01*
X60419780Y-31046990D01*
X60405875Y-31288324D01*
X60399820Y-31413911D01*
X60395077Y-31551217D01*
X60392311Y-31678964D01*
X60391874Y-31736034D01*
X60391778Y-31942409D01*
X60619320Y-31942641D01*
X60721862Y-31943877D01*
X60816300Y-31947022D01*
X60889810Y-31951546D01*
X60920945Y-31955083D01*
X60995028Y-31967291D01*
X60987952Y-32127389D01*
X60980876Y-32287488D01*
X60678984Y-32273770D01*
X60377092Y-32260053D01*
X60362201Y-32697280D01*
X60357510Y-32850318D01*
X60355335Y-32965953D01*
X60355813Y-33049050D01*
X60359077Y-33104473D01*
X60365264Y-33137086D01*
X60374508Y-33151753D01*
X60374835Y-33151967D01*
X60404828Y-33158131D01*
X60468965Y-33163411D01*
X60559061Y-33167379D01*
X60666930Y-33169610D01*
X60719861Y-33169935D01*
X60842159Y-33171026D01*
X60959170Y-33173669D01*
X61059740Y-33177505D01*
X61132718Y-33182173D01*
X61148486Y-33183791D01*
X61259611Y-33197138D01*
X61259611Y-33508742D01*
X61095570Y-33505358D01*
X61030641Y-33503768D01*
X60930810Y-33500999D01*
X60803485Y-33497274D01*
X60656074Y-33492813D01*
X60495984Y-33487836D01*
X60330624Y-33482565D01*
X60328341Y-33482491D01*
X60173016Y-33477215D01*
X60031961Y-33471927D01*
X59910576Y-33466869D01*
X59814258Y-33462284D01*
X59748407Y-33458414D01*
X59718420Y-33455501D01*
X59717213Y-33455065D01*
X59716232Y-33432958D01*
X59716577Y-33372881D01*
X59718117Y-33279144D01*
X59720722Y-33156058D01*
X59724261Y-33007931D01*
X59728605Y-32839073D01*
X59733622Y-32653793D01*
X59739183Y-32456400D01*
X59745157Y-32251205D01*
X59751414Y-32042516D01*
X59757823Y-31834644D01*
X59764254Y-31631896D01*
X59770577Y-31438583D01*
X59776661Y-31259015D01*
X59782376Y-31097500D01*
X59787592Y-30958348D01*
X59792178Y-30845868D01*
X59796004Y-30764371D01*
X59798939Y-30718165D01*
X59800274Y-30709114D01*
X59823483Y-30707651D01*
X59883021Y-30707653D01*
G37*
X58422868Y-30720034D02*
X58422100Y-30755171D01*
X58420069Y-30827951D01*
X58416919Y-30933705D01*
X58412795Y-31067767D01*
X58407842Y-31225467D01*
X58402205Y-31402138D01*
X58396028Y-31593114D01*
X58391528Y-31730742D01*
X58384949Y-31935774D01*
X58378828Y-32135517D01*
X58373319Y-32324323D01*
X58368575Y-32496539D01*
X58364748Y-32646518D01*
X58361990Y-32768607D01*
X58360456Y-32857158D01*
X58360188Y-32889617D01*
X58359778Y-33106575D01*
X58547148Y-33106575D01*
X58643581Y-33104946D01*
X58709866Y-33098567D01*
X58758113Y-33085200D01*
X58800431Y-33062609D01*
X58806439Y-33058671D01*
X58836193Y-33038499D01*
X58861465Y-33018477D01*
X58882736Y-32995097D01*
X58900482Y-32964853D01*
X58915184Y-32924237D01*
X58927318Y-32869743D01*
X58937364Y-32797863D01*
X58945801Y-32705090D01*
X58953105Y-32587918D01*
X58959757Y-32442838D01*
X58966234Y-32266344D01*
X58973015Y-32054929D01*
X58980578Y-31805085D01*
X58981458Y-31775753D01*
X58987887Y-31565515D01*
X58994133Y-31368474D01*
X59000055Y-31188603D01*
X59005512Y-31029879D01*
X59010363Y-30896276D01*
X59014465Y-30791770D01*
X59017677Y-30720336D01*
X59019859Y-30685948D01*
X59020323Y-30683412D01*
X59042529Y-30682330D01*
X59099332Y-30682715D01*
X59183026Y-30684434D01*
X59285906Y-30687353D01*
X59328153Y-30688740D01*
X59629778Y-30699002D01*
X59629778Y-30910369D01*
X59628895Y-31032404D01*
X59626402Y-31177482D01*
X59622531Y-31339698D01*
X59617512Y-31513146D01*
X59611578Y-31691923D01*
X59604961Y-31870122D01*
X59597892Y-32041840D01*
X59590604Y-32201171D01*
X59583327Y-32342211D01*
X59576294Y-32459054D01*
X59569737Y-32545797D01*
X59563887Y-32596533D01*
X59563512Y-32598575D01*
X59507556Y-32780722D01*
X59414375Y-32951531D01*
X59288671Y-33105521D01*
X59135144Y-33237210D01*
X58958496Y-33341117D01*
X58907229Y-33363787D01*
X58858490Y-33381962D01*
X58808783Y-33394961D01*
X58749552Y-33403735D01*
X58672240Y-33409231D01*
X58568293Y-33412399D01*
X58455028Y-33413946D01*
X58318765Y-33414611D01*
X58177872Y-33414143D01*
X58046475Y-33412660D01*
X57938703Y-33410284D01*
X57911215Y-33409342D01*
X57706070Y-33401405D01*
X57716151Y-33185199D01*
X57718857Y-33119179D01*
X57722498Y-33018349D01*
X57726924Y-32887729D01*
X57731987Y-32732343D01*
X57737538Y-32557211D01*
X57743428Y-32367358D01*
X57749509Y-32167803D01*
X57755630Y-31963570D01*
X57761644Y-31759682D01*
X57767401Y-31561159D01*
X57772753Y-31373024D01*
X57777551Y-31200299D01*
X57781645Y-31048007D01*
X57784887Y-30921169D01*
X57787128Y-30824808D01*
X57788219Y-30763946D01*
X57788302Y-30751784D01*
X57788278Y-30651242D01*
X58423278Y-30651242D01*
X58422868Y-30720034D01*
G36*
X58422868Y-30720034D02*
G01*
X58422100Y-30755171D01*
X58420069Y-30827951D01*
X58416919Y-30933705D01*
X58412795Y-31067767D01*
X58407842Y-31225467D01*
X58402205Y-31402138D01*
X58396028Y-31593114D01*
X58391528Y-31730742D01*
X58384949Y-31935774D01*
X58378828Y-32135517D01*
X58373319Y-32324323D01*
X58368575Y-32496539D01*
X58364748Y-32646518D01*
X58361990Y-32768607D01*
X58360456Y-32857158D01*
X58360188Y-32889617D01*
X58359778Y-33106575D01*
X58547148Y-33106575D01*
X58643581Y-33104946D01*
X58709866Y-33098567D01*
X58758113Y-33085200D01*
X58800431Y-33062609D01*
X58806439Y-33058671D01*
X58836193Y-33038499D01*
X58861465Y-33018477D01*
X58882736Y-32995097D01*
X58900482Y-32964853D01*
X58915184Y-32924237D01*
X58927318Y-32869743D01*
X58937364Y-32797863D01*
X58945801Y-32705090D01*
X58953105Y-32587918D01*
X58959757Y-32442838D01*
X58966234Y-32266344D01*
X58973015Y-32054929D01*
X58980578Y-31805085D01*
X58981458Y-31775753D01*
X58987887Y-31565515D01*
X58994133Y-31368474D01*
X59000055Y-31188603D01*
X59005512Y-31029879D01*
X59010363Y-30896276D01*
X59014465Y-30791770D01*
X59017677Y-30720336D01*
X59019859Y-30685948D01*
X59020323Y-30683412D01*
X59042529Y-30682330D01*
X59099332Y-30682715D01*
X59183026Y-30684434D01*
X59285906Y-30687353D01*
X59328153Y-30688740D01*
X59629778Y-30699002D01*
X59629778Y-30910369D01*
X59628895Y-31032404D01*
X59626402Y-31177482D01*
X59622531Y-31339698D01*
X59617512Y-31513146D01*
X59611578Y-31691923D01*
X59604961Y-31870122D01*
X59597892Y-32041840D01*
X59590604Y-32201171D01*
X59583327Y-32342211D01*
X59576294Y-32459054D01*
X59569737Y-32545797D01*
X59563887Y-32596533D01*
X59563512Y-32598575D01*
X59507556Y-32780722D01*
X59414375Y-32951531D01*
X59288671Y-33105521D01*
X59135144Y-33237210D01*
X58958496Y-33341117D01*
X58907229Y-33363787D01*
X58858490Y-33381962D01*
X58808783Y-33394961D01*
X58749552Y-33403735D01*
X58672240Y-33409231D01*
X58568293Y-33412399D01*
X58455028Y-33413946D01*
X58318765Y-33414611D01*
X58177872Y-33414143D01*
X58046475Y-33412660D01*
X57938703Y-33410284D01*
X57911215Y-33409342D01*
X57706070Y-33401405D01*
X57716151Y-33185199D01*
X57718857Y-33119179D01*
X57722498Y-33018349D01*
X57726924Y-32887729D01*
X57731987Y-32732343D01*
X57737538Y-32557211D01*
X57743428Y-32367358D01*
X57749509Y-32167803D01*
X57755630Y-31963570D01*
X57761644Y-31759682D01*
X57767401Y-31561159D01*
X57772753Y-31373024D01*
X57777551Y-31200299D01*
X57781645Y-31048007D01*
X57784887Y-30921169D01*
X57787128Y-30824808D01*
X57788219Y-30763946D01*
X57788302Y-30751784D01*
X57788278Y-30651242D01*
X58423278Y-30651242D01*
X58422868Y-30720034D01*
G37*
X40291129Y-30116514D02*
X40399649Y-30118615D01*
X40538292Y-30122679D01*
X40710644Y-30128682D01*
X40920291Y-30136600D01*
X41013695Y-30140231D01*
X41164872Y-30146695D01*
X41280512Y-30153221D01*
X41367405Y-30160594D01*
X41432341Y-30169596D01*
X41482110Y-30181010D01*
X41523503Y-30195619D01*
X41534170Y-30200233D01*
X41655747Y-30275837D01*
X41761529Y-30382889D01*
X41841109Y-30510849D01*
X41841411Y-30511496D01*
X41862950Y-30562341D01*
X41877371Y-30611956D01*
X41886066Y-30670656D01*
X41890428Y-30748754D01*
X41891848Y-30856567D01*
X41891904Y-30885525D01*
X41888895Y-31042365D01*
X41878016Y-31165871D01*
X41856899Y-31264684D01*
X41823179Y-31347445D01*
X41774488Y-31422793D01*
X41730243Y-31475739D01*
X41669108Y-31541256D01*
X41614301Y-31590868D01*
X41558593Y-31626751D01*
X41494758Y-31651081D01*
X41415568Y-31666033D01*
X41313796Y-31673784D01*
X41182213Y-31676510D01*
X41063157Y-31676577D01*
X40668119Y-31675328D01*
X40655698Y-31737431D01*
X40650347Y-31785133D01*
X40646138Y-31862474D01*
X40643643Y-31956763D01*
X40643207Y-32013846D01*
X40642221Y-32115312D01*
X40639565Y-32244305D01*
X40635614Y-32386069D01*
X40630743Y-32525847D01*
X40629310Y-32561534D01*
X40615483Y-32894909D01*
X40550006Y-32890357D01*
X40502879Y-32887976D01*
X40424803Y-32884976D01*
X40327146Y-32881763D01*
X40234280Y-32879089D01*
X39984033Y-32872372D01*
X39997078Y-32560848D01*
X39999667Y-32493435D01*
X40003231Y-32392418D01*
X40007620Y-32262646D01*
X40012684Y-32108972D01*
X40018272Y-31936245D01*
X40024235Y-31749318D01*
X40030423Y-31553039D01*
X40036686Y-31352261D01*
X40036763Y-31349742D01*
X40658011Y-31349742D01*
X40857020Y-31349663D01*
X40960412Y-31347754D01*
X41032598Y-31340985D01*
X41084590Y-31327648D01*
X41123792Y-31308265D01*
X41177102Y-31267467D01*
X41215332Y-31215242D01*
X41241434Y-31143744D01*
X41258359Y-31045121D01*
X41268355Y-30923795D01*
X41273355Y-30819425D01*
X41273182Y-30746668D01*
X41266917Y-30695016D01*
X41253637Y-30653961D01*
X41242738Y-30631580D01*
X41198786Y-30562882D01*
X41146921Y-30515889D01*
X41078152Y-30486388D01*
X40983489Y-30470164D01*
X40885193Y-30463990D01*
X40685611Y-30456655D01*
X40685611Y-30677656D01*
X40684088Y-30803176D01*
X40680028Y-30946171D01*
X40674195Y-31081912D01*
X40671811Y-31124199D01*
X40658011Y-31349742D01*
X40036763Y-31349742D01*
X40042873Y-31151834D01*
X40048836Y-30956609D01*
X40054422Y-30771437D01*
X40059484Y-30601168D01*
X40063870Y-30450654D01*
X40067430Y-30324745D01*
X40070015Y-30228292D01*
X40071475Y-30166146D01*
X40071749Y-30146445D01*
X40074847Y-30136274D01*
X40086549Y-30128208D01*
X40110442Y-30122222D01*
X40150112Y-30118294D01*
X40209146Y-30116399D01*
X40291129Y-30116514D01*
G36*
X40291129Y-30116514D02*
G01*
X40399649Y-30118615D01*
X40538292Y-30122679D01*
X40710644Y-30128682D01*
X40920291Y-30136600D01*
X41013695Y-30140231D01*
X41164872Y-30146695D01*
X41280512Y-30153221D01*
X41367405Y-30160594D01*
X41432341Y-30169596D01*
X41482110Y-30181010D01*
X41523503Y-30195619D01*
X41534170Y-30200233D01*
X41655747Y-30275837D01*
X41761529Y-30382889D01*
X41841109Y-30510849D01*
X41841411Y-30511496D01*
X41862950Y-30562341D01*
X41877371Y-30611956D01*
X41886066Y-30670656D01*
X41890428Y-30748754D01*
X41891848Y-30856567D01*
X41891904Y-30885525D01*
X41888895Y-31042365D01*
X41878016Y-31165871D01*
X41856899Y-31264684D01*
X41823179Y-31347445D01*
X41774488Y-31422793D01*
X41730243Y-31475739D01*
X41669108Y-31541256D01*
X41614301Y-31590868D01*
X41558593Y-31626751D01*
X41494758Y-31651081D01*
X41415568Y-31666033D01*
X41313796Y-31673784D01*
X41182213Y-31676510D01*
X41063157Y-31676577D01*
X40668119Y-31675328D01*
X40655698Y-31737431D01*
X40650347Y-31785133D01*
X40646138Y-31862474D01*
X40643643Y-31956763D01*
X40643207Y-32013846D01*
X40642221Y-32115312D01*
X40639565Y-32244305D01*
X40635614Y-32386069D01*
X40630743Y-32525847D01*
X40629310Y-32561534D01*
X40615483Y-32894909D01*
X40550006Y-32890357D01*
X40502879Y-32887976D01*
X40424803Y-32884976D01*
X40327146Y-32881763D01*
X40234280Y-32879089D01*
X39984033Y-32872372D01*
X39997078Y-32560848D01*
X39999667Y-32493435D01*
X40003231Y-32392418D01*
X40007620Y-32262646D01*
X40012684Y-32108972D01*
X40018272Y-31936245D01*
X40024235Y-31749318D01*
X40030423Y-31553039D01*
X40036686Y-31352261D01*
X40036763Y-31349742D01*
X40658011Y-31349742D01*
X40857020Y-31349663D01*
X40960412Y-31347754D01*
X41032598Y-31340985D01*
X41084590Y-31327648D01*
X41123792Y-31308265D01*
X41177102Y-31267467D01*
X41215332Y-31215242D01*
X41241434Y-31143744D01*
X41258359Y-31045121D01*
X41268355Y-30923795D01*
X41273355Y-30819425D01*
X41273182Y-30746668D01*
X41266917Y-30695016D01*
X41253637Y-30653961D01*
X41242738Y-30631580D01*
X41198786Y-30562882D01*
X41146921Y-30515889D01*
X41078152Y-30486388D01*
X40983489Y-30470164D01*
X40885193Y-30463990D01*
X40685611Y-30456655D01*
X40685611Y-30677656D01*
X40684088Y-30803176D01*
X40680028Y-30946171D01*
X40674195Y-31081912D01*
X40671811Y-31124199D01*
X40658011Y-31349742D01*
X40036763Y-31349742D01*
X40042873Y-31151834D01*
X40048836Y-30956609D01*
X40054422Y-30771437D01*
X40059484Y-30601168D01*
X40063870Y-30450654D01*
X40067430Y-30324745D01*
X40070015Y-30228292D01*
X40071475Y-30166146D01*
X40071749Y-30146445D01*
X40074847Y-30136274D01*
X40086549Y-30128208D01*
X40110442Y-30122222D01*
X40150112Y-30118294D01*
X40209146Y-30116399D01*
X40291129Y-30116514D01*
G37*
X48989769Y-30379431D02*
X49081043Y-30381128D01*
X49199324Y-30383977D01*
X49339513Y-30387861D01*
X49496510Y-30392662D01*
X49584740Y-30395537D01*
X49789885Y-30402709D01*
X49957612Y-30409901D01*
X50092825Y-30418129D01*
X50200428Y-30428406D01*
X50285324Y-30441748D01*
X50352416Y-30459169D01*
X50406609Y-30481685D01*
X50452807Y-30510309D01*
X50495912Y-30546057D01*
X50540829Y-30589944D01*
X50545065Y-30594263D01*
X50623999Y-30686687D01*
X50677424Y-30781238D01*
X50708990Y-30888564D01*
X50722346Y-31019316D01*
X50723131Y-31113818D01*
X50719841Y-31222427D01*
X50712449Y-31302010D01*
X50698679Y-31365837D01*
X50676256Y-31427176D01*
X50665042Y-31452485D01*
X50593308Y-31580211D01*
X50509679Y-31671976D01*
X50415946Y-31730484D01*
X50335531Y-31767222D01*
X50420247Y-31778585D01*
X50528768Y-31812747D01*
X50615905Y-31880245D01*
X50664230Y-31952895D01*
X50674781Y-31978982D01*
X50682722Y-32010547D01*
X50688216Y-32052853D01*
X50691429Y-32111161D01*
X50692525Y-32190734D01*
X50691667Y-32296834D01*
X50689022Y-32434722D01*
X50684758Y-32609478D01*
X50669782Y-33191242D01*
X50508988Y-33187036D01*
X50400434Y-33183697D01*
X50280948Y-33179274D01*
X50193361Y-33175498D01*
X50038528Y-33168165D01*
X50067174Y-32164659D01*
X50016762Y-32090575D01*
X49953333Y-32018965D01*
X49873825Y-31972688D01*
X49770065Y-31948369D01*
X49658047Y-31942441D01*
X49497066Y-31942409D01*
X49483572Y-32085284D01*
X49477605Y-32171059D01*
X49472929Y-32281062D01*
X49470228Y-32397190D01*
X49469832Y-32450409D01*
X49468306Y-32572657D01*
X49464424Y-32714368D01*
X49458880Y-32852780D01*
X49455735Y-32913050D01*
X49441884Y-33153442D01*
X49139843Y-33145632D01*
X49031259Y-33142155D01*
X48938609Y-33137920D01*
X48869715Y-33133382D01*
X48832400Y-33128998D01*
X48828149Y-33127490D01*
X48827249Y-33105361D01*
X48827629Y-33045236D01*
X48829162Y-32951426D01*
X48831721Y-32828246D01*
X48835181Y-32680008D01*
X48839415Y-32511025D01*
X48844297Y-32325611D01*
X48849700Y-32128079D01*
X48855498Y-31922742D01*
X48861565Y-31713912D01*
X48864946Y-31600625D01*
X49485114Y-31600625D01*
X49556821Y-31610438D01*
X49671548Y-31619182D01*
X49781921Y-31615301D01*
X49876203Y-31600014D01*
X49942653Y-31574536D01*
X49949784Y-31569695D01*
X50009182Y-31520314D01*
X50049808Y-31470207D01*
X50075688Y-31409359D01*
X50090847Y-31327754D01*
X50099312Y-31215375D01*
X50100248Y-31195363D01*
X50100523Y-31044290D01*
X50083547Y-30928669D01*
X50045350Y-30843754D01*
X49981964Y-30784804D01*
X49889418Y-30747072D01*
X49763744Y-30725815D01*
X49703247Y-30720859D01*
X49512111Y-30708476D01*
X49511961Y-31013234D01*
X49510935Y-31137214D01*
X49508237Y-31259724D01*
X49504256Y-31367896D01*
X49499381Y-31448864D01*
X49498462Y-31459308D01*
X49485114Y-31600625D01*
X48864946Y-31600625D01*
X48867773Y-31505903D01*
X48873998Y-31303028D01*
X48880112Y-31109600D01*
X48885989Y-30929932D01*
X48891503Y-30768338D01*
X48896528Y-30629130D01*
X48900937Y-30516621D01*
X48904603Y-30435125D01*
X48907401Y-30388954D01*
X48908642Y-30379962D01*
X48930602Y-30379003D01*
X48989769Y-30379431D01*
G36*
X48989769Y-30379431D02*
G01*
X49081043Y-30381128D01*
X49199324Y-30383977D01*
X49339513Y-30387861D01*
X49496510Y-30392662D01*
X49584740Y-30395537D01*
X49789885Y-30402709D01*
X49957612Y-30409901D01*
X50092825Y-30418129D01*
X50200428Y-30428406D01*
X50285324Y-30441748D01*
X50352416Y-30459169D01*
X50406609Y-30481685D01*
X50452807Y-30510309D01*
X50495912Y-30546057D01*
X50540829Y-30589944D01*
X50545065Y-30594263D01*
X50623999Y-30686687D01*
X50677424Y-30781238D01*
X50708990Y-30888564D01*
X50722346Y-31019316D01*
X50723131Y-31113818D01*
X50719841Y-31222427D01*
X50712449Y-31302010D01*
X50698679Y-31365837D01*
X50676256Y-31427176D01*
X50665042Y-31452485D01*
X50593308Y-31580211D01*
X50509679Y-31671976D01*
X50415946Y-31730484D01*
X50335531Y-31767222D01*
X50420247Y-31778585D01*
X50528768Y-31812747D01*
X50615905Y-31880245D01*
X50664230Y-31952895D01*
X50674781Y-31978982D01*
X50682722Y-32010547D01*
X50688216Y-32052853D01*
X50691429Y-32111161D01*
X50692525Y-32190734D01*
X50691667Y-32296834D01*
X50689022Y-32434722D01*
X50684758Y-32609478D01*
X50669782Y-33191242D01*
X50508988Y-33187036D01*
X50400434Y-33183697D01*
X50280948Y-33179274D01*
X50193361Y-33175498D01*
X50038528Y-33168165D01*
X50067174Y-32164659D01*
X50016762Y-32090575D01*
X49953333Y-32018965D01*
X49873825Y-31972688D01*
X49770065Y-31948369D01*
X49658047Y-31942441D01*
X49497066Y-31942409D01*
X49483572Y-32085284D01*
X49477605Y-32171059D01*
X49472929Y-32281062D01*
X49470228Y-32397190D01*
X49469832Y-32450409D01*
X49468306Y-32572657D01*
X49464424Y-32714368D01*
X49458880Y-32852780D01*
X49455735Y-32913050D01*
X49441884Y-33153442D01*
X49139843Y-33145632D01*
X49031259Y-33142155D01*
X48938609Y-33137920D01*
X48869715Y-33133382D01*
X48832400Y-33128998D01*
X48828149Y-33127490D01*
X48827249Y-33105361D01*
X48827629Y-33045236D01*
X48829162Y-32951426D01*
X48831721Y-32828246D01*
X48835181Y-32680008D01*
X48839415Y-32511025D01*
X48844297Y-32325611D01*
X48849700Y-32128079D01*
X48855498Y-31922742D01*
X48861565Y-31713912D01*
X48864946Y-31600625D01*
X49485114Y-31600625D01*
X49556821Y-31610438D01*
X49671548Y-31619182D01*
X49781921Y-31615301D01*
X49876203Y-31600014D01*
X49942653Y-31574536D01*
X49949784Y-31569695D01*
X50009182Y-31520314D01*
X50049808Y-31470207D01*
X50075688Y-31409359D01*
X50090847Y-31327754D01*
X50099312Y-31215375D01*
X50100248Y-31195363D01*
X50100523Y-31044290D01*
X50083547Y-30928669D01*
X50045350Y-30843754D01*
X49981964Y-30784804D01*
X49889418Y-30747072D01*
X49763744Y-30725815D01*
X49703247Y-30720859D01*
X49512111Y-30708476D01*
X49511961Y-31013234D01*
X49510935Y-31137214D01*
X49508237Y-31259724D01*
X49504256Y-31367896D01*
X49499381Y-31448864D01*
X49498462Y-31459308D01*
X49485114Y-31600625D01*
X48864946Y-31600625D01*
X48867773Y-31505903D01*
X48873998Y-31303028D01*
X48880112Y-31109600D01*
X48885989Y-30929932D01*
X48891503Y-30768338D01*
X48896528Y-30629130D01*
X48900937Y-30516621D01*
X48904603Y-30435125D01*
X48907401Y-30388954D01*
X48908642Y-30379962D01*
X48930602Y-30379003D01*
X48989769Y-30379431D01*
G37*
X56638134Y-30613063D02*
X56797070Y-30616789D01*
X56919567Y-30621399D01*
X57011518Y-30627384D01*
X57078814Y-30635236D01*
X57127348Y-30645446D01*
X57158561Y-30656481D01*
X57296039Y-30737652D01*
X57408597Y-30846298D01*
X57490452Y-30975520D01*
X57532952Y-31103019D01*
X57538744Y-31151157D01*
X57542233Y-31228326D01*
X57543406Y-31336833D01*
X57542248Y-31478985D01*
X57538744Y-31657089D01*
X57532881Y-31873451D01*
X57527038Y-32058825D01*
X57519444Y-32285288D01*
X57512435Y-32473725D01*
X57505238Y-32628422D01*
X57497081Y-32753664D01*
X57487188Y-32853737D01*
X57474786Y-32932926D01*
X57459102Y-32995518D01*
X57439363Y-33045797D01*
X57414793Y-33088049D01*
X57384621Y-33126560D01*
X57348071Y-33165616D01*
X57322611Y-33191242D01*
X57259555Y-33248913D01*
X57195037Y-33294255D01*
X57123493Y-33328301D01*
X57039357Y-33352084D01*
X56937066Y-33366637D01*
X56811054Y-33372993D01*
X56655757Y-33372184D01*
X56465610Y-33365245D01*
X56401861Y-33362168D01*
X56274430Y-33354696D01*
X56180707Y-33346149D01*
X56112067Y-33335174D01*
X56059886Y-33320420D01*
X56018396Y-33302030D01*
X55875956Y-33207405D01*
X55768086Y-33090207D01*
X55696314Y-32952320D01*
X55675144Y-32879380D01*
X55670106Y-32830747D01*
X55667393Y-32741298D01*
X55667008Y-32615758D01*
X56294343Y-32615758D01*
X56294833Y-32695623D01*
X56297056Y-32755075D01*
X56301086Y-32798494D01*
X56306995Y-32830260D01*
X56314855Y-32854752D01*
X56322635Y-32872132D01*
X56385370Y-32958749D01*
X56468730Y-33015593D01*
X56563619Y-33039919D01*
X56660941Y-33028982D01*
X56730962Y-32995378D01*
X56765321Y-32971780D01*
X56793749Y-32948858D01*
X56816946Y-32922496D01*
X56835608Y-32888576D01*
X56850434Y-32842980D01*
X56862123Y-32781591D01*
X56871371Y-32700291D01*
X56878878Y-32594964D01*
X56885341Y-32461490D01*
X56891458Y-32295754D01*
X56897928Y-32093637D01*
X56901069Y-31992022D01*
X56907463Y-31782634D01*
X56912402Y-31611320D01*
X56915819Y-31473843D01*
X56917643Y-31365967D01*
X56917807Y-31283455D01*
X56916242Y-31222071D01*
X56912879Y-31177579D01*
X56907650Y-31145741D01*
X56900485Y-31122320D01*
X56891316Y-31103082D01*
X56886513Y-31094652D01*
X56815427Y-31008425D01*
X56726575Y-30953990D01*
X56628452Y-30933541D01*
X56529552Y-30949273D01*
X56461718Y-30984884D01*
X56431105Y-31008725D01*
X56405625Y-31035330D01*
X56384667Y-31068761D01*
X56367619Y-31113079D01*
X56353871Y-31172347D01*
X56342811Y-31250625D01*
X56333828Y-31351974D01*
X56326310Y-31480456D01*
X56319648Y-31640133D01*
X56313229Y-31835065D01*
X56308271Y-32004578D01*
X56302551Y-32209891D01*
X56298275Y-32377272D01*
X56295515Y-32511101D01*
X56294343Y-32615758D01*
X55667008Y-32615758D01*
X55666997Y-32612481D01*
X55668906Y-32445750D01*
X55673111Y-32242554D01*
X55679603Y-32004345D01*
X55681645Y-31937463D01*
X55688985Y-31707136D01*
X55695917Y-31514894D01*
X55703241Y-31356506D01*
X55711758Y-31227739D01*
X55722268Y-31124364D01*
X55735570Y-31042149D01*
X55752465Y-30976862D01*
X55773752Y-30924272D01*
X55800233Y-30880148D01*
X55832706Y-30840259D01*
X55871973Y-30800373D01*
X55902026Y-30771969D01*
X55960599Y-30719964D01*
X56015639Y-30679967D01*
X56073691Y-30650568D01*
X56141301Y-30630352D01*
X56225012Y-30617906D01*
X56331372Y-30611818D01*
X56466924Y-30610676D01*
X56638134Y-30613063D01*
G36*
X56638134Y-30613063D02*
G01*
X56797070Y-30616789D01*
X56919567Y-30621399D01*
X57011518Y-30627384D01*
X57078814Y-30635236D01*
X57127348Y-30645446D01*
X57158561Y-30656481D01*
X57296039Y-30737652D01*
X57408597Y-30846298D01*
X57490452Y-30975520D01*
X57532952Y-31103019D01*
X57538744Y-31151157D01*
X57542233Y-31228326D01*
X57543406Y-31336833D01*
X57542248Y-31478985D01*
X57538744Y-31657089D01*
X57532881Y-31873451D01*
X57527038Y-32058825D01*
X57519444Y-32285288D01*
X57512435Y-32473725D01*
X57505238Y-32628422D01*
X57497081Y-32753664D01*
X57487188Y-32853737D01*
X57474786Y-32932926D01*
X57459102Y-32995518D01*
X57439363Y-33045797D01*
X57414793Y-33088049D01*
X57384621Y-33126560D01*
X57348071Y-33165616D01*
X57322611Y-33191242D01*
X57259555Y-33248913D01*
X57195037Y-33294255D01*
X57123493Y-33328301D01*
X57039357Y-33352084D01*
X56937066Y-33366637D01*
X56811054Y-33372993D01*
X56655757Y-33372184D01*
X56465610Y-33365245D01*
X56401861Y-33362168D01*
X56274430Y-33354696D01*
X56180707Y-33346149D01*
X56112067Y-33335174D01*
X56059886Y-33320420D01*
X56018396Y-33302030D01*
X55875956Y-33207405D01*
X55768086Y-33090207D01*
X55696314Y-32952320D01*
X55675144Y-32879380D01*
X55670106Y-32830747D01*
X55667393Y-32741298D01*
X55667008Y-32615758D01*
X56294343Y-32615758D01*
X56294833Y-32695623D01*
X56297056Y-32755075D01*
X56301086Y-32798494D01*
X56306995Y-32830260D01*
X56314855Y-32854752D01*
X56322635Y-32872132D01*
X56385370Y-32958749D01*
X56468730Y-33015593D01*
X56563619Y-33039919D01*
X56660941Y-33028982D01*
X56730962Y-32995378D01*
X56765321Y-32971780D01*
X56793749Y-32948858D01*
X56816946Y-32922496D01*
X56835608Y-32888576D01*
X56850434Y-32842980D01*
X56862123Y-32781591D01*
X56871371Y-32700291D01*
X56878878Y-32594964D01*
X56885341Y-32461490D01*
X56891458Y-32295754D01*
X56897928Y-32093637D01*
X56901069Y-31992022D01*
X56907463Y-31782634D01*
X56912402Y-31611320D01*
X56915819Y-31473843D01*
X56917643Y-31365967D01*
X56917807Y-31283455D01*
X56916242Y-31222071D01*
X56912879Y-31177579D01*
X56907650Y-31145741D01*
X56900485Y-31122320D01*
X56891316Y-31103082D01*
X56886513Y-31094652D01*
X56815427Y-31008425D01*
X56726575Y-30953990D01*
X56628452Y-30933541D01*
X56529552Y-30949273D01*
X56461718Y-30984884D01*
X56431105Y-31008725D01*
X56405625Y-31035330D01*
X56384667Y-31068761D01*
X56367619Y-31113079D01*
X56353871Y-31172347D01*
X56342811Y-31250625D01*
X56333828Y-31351974D01*
X56326310Y-31480456D01*
X56319648Y-31640133D01*
X56313229Y-31835065D01*
X56308271Y-32004578D01*
X56302551Y-32209891D01*
X56298275Y-32377272D01*
X56295515Y-32511101D01*
X56294343Y-32615758D01*
X55667008Y-32615758D01*
X55666997Y-32612481D01*
X55668906Y-32445750D01*
X55673111Y-32242554D01*
X55679603Y-32004345D01*
X55681645Y-31937463D01*
X55688985Y-31707136D01*
X55695917Y-31514894D01*
X55703241Y-31356506D01*
X55711758Y-31227739D01*
X55722268Y-31124364D01*
X55735570Y-31042149D01*
X55752465Y-30976862D01*
X55773752Y-30924272D01*
X55800233Y-30880148D01*
X55832706Y-30840259D01*
X55871973Y-30800373D01*
X55902026Y-30771969D01*
X55960599Y-30719964D01*
X56015639Y-30679967D01*
X56073691Y-30650568D01*
X56141301Y-30630352D01*
X56225012Y-30617906D01*
X56331372Y-30611818D01*
X56466924Y-30610676D01*
X56638134Y-30613063D01*
G37*
X42800336Y-30190800D02*
X42917698Y-30194724D01*
X43047072Y-30200712D01*
X43167552Y-30208178D01*
X43270378Y-30216437D01*
X43346788Y-30224800D01*
X43383446Y-30231219D01*
X43508973Y-30284340D01*
X43623429Y-30371004D01*
X43718309Y-30482498D01*
X43785108Y-30610109D01*
X43800760Y-30658750D01*
X43806525Y-30704240D01*
X43810332Y-30786073D01*
X43812331Y-30898500D01*
X43812670Y-31035769D01*
X43811499Y-31192130D01*
X43808967Y-31361832D01*
X43805223Y-31539124D01*
X43800416Y-31718256D01*
X43794695Y-31893477D01*
X43788209Y-32059036D01*
X43781108Y-32209182D01*
X43773541Y-32338165D01*
X43765656Y-32440233D01*
X43757603Y-32509637D01*
X43752097Y-32535269D01*
X43686183Y-32668042D01*
X43588196Y-32786237D01*
X43467748Y-32880209D01*
X43354744Y-32933885D01*
X43307137Y-32942375D01*
X43226040Y-32948786D01*
X43120247Y-32953086D01*
X42998552Y-32955245D01*
X42869749Y-32955231D01*
X42742632Y-32953014D01*
X42625994Y-32948563D01*
X42528630Y-32941846D01*
X42484778Y-32936944D01*
X42406384Y-32923299D01*
X42335546Y-32906145D01*
X42307106Y-32896752D01*
X42193709Y-32831339D01*
X42091174Y-32733770D01*
X42008092Y-32614160D01*
X41953056Y-32482626D01*
X41951930Y-32478608D01*
X41946063Y-32437509D01*
X41942439Y-32363680D01*
X41941065Y-32255407D01*
X41941204Y-32232454D01*
X42573134Y-32232454D01*
X42575902Y-32323714D01*
X42581979Y-32393283D01*
X42591765Y-32445288D01*
X42605659Y-32483851D01*
X42624059Y-32513098D01*
X42647364Y-32537153D01*
X42675973Y-32560142D01*
X42683671Y-32565957D01*
X42743830Y-32605260D01*
X42806605Y-32629065D01*
X42844611Y-32638335D01*
X42869970Y-32634703D01*
X42919400Y-32622762D01*
X42932828Y-32619110D01*
X43020706Y-32574481D01*
X43092885Y-32499921D01*
X43139264Y-32407461D01*
X43149263Y-32361343D01*
X43152459Y-32319161D01*
X43156503Y-32240210D01*
X43161185Y-32130040D01*
X43166295Y-31994203D01*
X43171622Y-31838250D01*
X43176954Y-31667731D01*
X43181235Y-31519075D01*
X43186626Y-31319110D01*
X43190549Y-31156951D01*
X43192922Y-31028094D01*
X43193662Y-30928035D01*
X43192688Y-30852271D01*
X43189918Y-30796296D01*
X43185269Y-30755607D01*
X43178660Y-30725699D01*
X43170007Y-30702069D01*
X43166194Y-30693854D01*
X43103626Y-30608423D01*
X43018393Y-30551621D01*
X42920370Y-30526454D01*
X42819434Y-30535925D01*
X42748821Y-30566909D01*
X42716507Y-30587987D01*
X42689698Y-30610309D01*
X42667739Y-30637928D01*
X42649976Y-30674897D01*
X42635755Y-30725269D01*
X42624420Y-30793098D01*
X42615319Y-30882435D01*
X42607796Y-30997334D01*
X42601197Y-31141848D01*
X42594868Y-31320031D01*
X42588154Y-31535934D01*
X42587187Y-31568024D01*
X42580703Y-31787290D01*
X42575934Y-31968367D01*
X42573278Y-32115380D01*
X42573134Y-32232454D01*
X41941204Y-32232454D01*
X41941944Y-32110978D01*
X41945081Y-31928679D01*
X41950482Y-31706797D01*
X41954569Y-31562165D01*
X41961551Y-31329633D01*
X41968109Y-31135226D01*
X41974987Y-30974752D01*
X41982931Y-30844019D01*
X41992685Y-30738834D01*
X42004993Y-30655007D01*
X42020601Y-30588343D01*
X42040253Y-30534652D01*
X42064695Y-30489742D01*
X42094670Y-30449419D01*
X42130923Y-30409492D01*
X42165585Y-30374382D01*
X42231942Y-30312036D01*
X42295027Y-30264448D01*
X42361668Y-30229987D01*
X42438692Y-30207023D01*
X42532927Y-30193924D01*
X42651199Y-30189060D01*
X42800336Y-30190800D01*
G36*
X42800336Y-30190800D02*
G01*
X42917698Y-30194724D01*
X43047072Y-30200712D01*
X43167552Y-30208178D01*
X43270378Y-30216437D01*
X43346788Y-30224800D01*
X43383446Y-30231219D01*
X43508973Y-30284340D01*
X43623429Y-30371004D01*
X43718309Y-30482498D01*
X43785108Y-30610109D01*
X43800760Y-30658750D01*
X43806525Y-30704240D01*
X43810332Y-30786073D01*
X43812331Y-30898500D01*
X43812670Y-31035769D01*
X43811499Y-31192130D01*
X43808967Y-31361832D01*
X43805223Y-31539124D01*
X43800416Y-31718256D01*
X43794695Y-31893477D01*
X43788209Y-32059036D01*
X43781108Y-32209182D01*
X43773541Y-32338165D01*
X43765656Y-32440233D01*
X43757603Y-32509637D01*
X43752097Y-32535269D01*
X43686183Y-32668042D01*
X43588196Y-32786237D01*
X43467748Y-32880209D01*
X43354744Y-32933885D01*
X43307137Y-32942375D01*
X43226040Y-32948786D01*
X43120247Y-32953086D01*
X42998552Y-32955245D01*
X42869749Y-32955231D01*
X42742632Y-32953014D01*
X42625994Y-32948563D01*
X42528630Y-32941846D01*
X42484778Y-32936944D01*
X42406384Y-32923299D01*
X42335546Y-32906145D01*
X42307106Y-32896752D01*
X42193709Y-32831339D01*
X42091174Y-32733770D01*
X42008092Y-32614160D01*
X41953056Y-32482626D01*
X41951930Y-32478608D01*
X41946063Y-32437509D01*
X41942439Y-32363680D01*
X41941065Y-32255407D01*
X41941204Y-32232454D01*
X42573134Y-32232454D01*
X42575902Y-32323714D01*
X42581979Y-32393283D01*
X42591765Y-32445288D01*
X42605659Y-32483851D01*
X42624059Y-32513098D01*
X42647364Y-32537153D01*
X42675973Y-32560142D01*
X42683671Y-32565957D01*
X42743830Y-32605260D01*
X42806605Y-32629065D01*
X42844611Y-32638335D01*
X42869970Y-32634703D01*
X42919400Y-32622762D01*
X42932828Y-32619110D01*
X43020706Y-32574481D01*
X43092885Y-32499921D01*
X43139264Y-32407461D01*
X43149263Y-32361343D01*
X43152459Y-32319161D01*
X43156503Y-32240210D01*
X43161185Y-32130040D01*
X43166295Y-31994203D01*
X43171622Y-31838250D01*
X43176954Y-31667731D01*
X43181235Y-31519075D01*
X43186626Y-31319110D01*
X43190549Y-31156951D01*
X43192922Y-31028094D01*
X43193662Y-30928035D01*
X43192688Y-30852271D01*
X43189918Y-30796296D01*
X43185269Y-30755607D01*
X43178660Y-30725699D01*
X43170007Y-30702069D01*
X43166194Y-30693854D01*
X43103626Y-30608423D01*
X43018393Y-30551621D01*
X42920370Y-30526454D01*
X42819434Y-30535925D01*
X42748821Y-30566909D01*
X42716507Y-30587987D01*
X42689698Y-30610309D01*
X42667739Y-30637928D01*
X42649976Y-30674897D01*
X42635755Y-30725269D01*
X42624420Y-30793098D01*
X42615319Y-30882435D01*
X42607796Y-30997334D01*
X42601197Y-31141848D01*
X42594868Y-31320031D01*
X42588154Y-31535934D01*
X42587187Y-31568024D01*
X42580703Y-31787290D01*
X42575934Y-31968367D01*
X42573278Y-32115380D01*
X42573134Y-32232454D01*
X41941204Y-32232454D01*
X41941944Y-32110978D01*
X41945081Y-31928679D01*
X41950482Y-31706797D01*
X41954569Y-31562165D01*
X41961551Y-31329633D01*
X41968109Y-31135226D01*
X41974987Y-30974752D01*
X41982931Y-30844019D01*
X41992685Y-30738834D01*
X42004993Y-30655007D01*
X42020601Y-30588343D01*
X42040253Y-30534652D01*
X42064695Y-30489742D01*
X42094670Y-30449419D01*
X42130923Y-30409492D01*
X42165585Y-30374382D01*
X42231942Y-30312036D01*
X42295027Y-30264448D01*
X42361668Y-30229987D01*
X42438692Y-30207023D01*
X42532927Y-30193924D01*
X42651199Y-30189060D01*
X42800336Y-30190800D01*
G37*
X36192736Y-48770211D02*
X36349591Y-48771092D01*
X36545779Y-48773557D01*
X36778332Y-48777515D01*
X37044283Y-48782871D01*
X37340664Y-48789535D01*
X37664508Y-48797412D01*
X38012847Y-48806411D01*
X38382714Y-48816439D01*
X38771142Y-48827403D01*
X39175162Y-48839211D01*
X39591808Y-48851769D01*
X40018112Y-48864986D01*
X40451107Y-48878769D01*
X40887824Y-48893025D01*
X41325298Y-48907661D01*
X41760559Y-48922586D01*
X42190641Y-48937705D01*
X42612577Y-48952927D01*
X43023398Y-48968159D01*
X43420138Y-48983309D01*
X43799828Y-48998283D01*
X44159503Y-49012990D01*
X44496192Y-49027336D01*
X44654361Y-49034317D01*
X45096643Y-49053356D01*
X45576371Y-49072661D01*
X46088659Y-49092090D01*
X46628623Y-49111503D01*
X47191377Y-49130760D01*
X47772036Y-49149720D01*
X48365714Y-49168244D01*
X48967525Y-49186189D01*
X49572586Y-49203417D01*
X50176009Y-49219786D01*
X50772910Y-49235157D01*
X51358404Y-49249388D01*
X51927605Y-49262339D01*
X52475628Y-49273871D01*
X52997588Y-49283841D01*
X53488598Y-49292111D01*
X53762666Y-49296147D01*
X54004285Y-49299620D01*
X54233266Y-49303157D01*
X54446126Y-49306689D01*
X54639384Y-49310145D01*
X54809557Y-49313458D01*
X54953163Y-49316556D01*
X55066719Y-49319371D01*
X55146744Y-49321833D01*
X55189754Y-49323873D01*
X55196346Y-49324754D01*
X55197031Y-49348886D01*
X55187115Y-49396485D01*
X55184784Y-49404886D01*
X55172622Y-49504808D01*
X55189213Y-49602239D01*
X55231365Y-49682417D01*
X55248886Y-49701242D01*
X55300056Y-49734226D01*
X55386884Y-49773293D01*
X55503571Y-49815962D01*
X55558733Y-49833931D01*
X55692418Y-49878002D01*
X55789332Y-49914798D01*
X55853946Y-49946587D01*
X55890732Y-49975640D01*
X55904162Y-50004225D01*
X55904445Y-50009359D01*
X55889765Y-50030553D01*
X55841809Y-50037044D01*
X55825070Y-50036653D01*
X55779201Y-50034790D01*
X55699192Y-50031560D01*
X55593204Y-50027290D01*
X55469394Y-50022309D01*
X55335925Y-50016947D01*
X55332945Y-50016827D01*
X55218787Y-50012327D01*
X55069683Y-50006578D01*
X54892991Y-49999856D01*
X54696070Y-49992439D01*
X54486280Y-49984604D01*
X54270979Y-49976626D01*
X54057527Y-49968784D01*
X54010028Y-49967049D01*
X52882195Y-49926206D01*
X51793973Y-49887433D01*
X50742697Y-49850650D01*
X49725698Y-49815779D01*
X48740310Y-49782740D01*
X47783867Y-49751455D01*
X46853700Y-49721845D01*
X45947144Y-49693830D01*
X45061531Y-49667332D01*
X44194194Y-49642272D01*
X43342466Y-49618570D01*
X42503681Y-49596148D01*
X41675171Y-49574927D01*
X40854270Y-49554828D01*
X40038310Y-49535772D01*
X39224624Y-49517679D01*
X38410547Y-49500472D01*
X37912778Y-49490379D01*
X37526393Y-49482628D01*
X37180142Y-49475560D01*
X36871832Y-49469076D01*
X36599271Y-49463076D01*
X36360266Y-49457463D01*
X36152626Y-49452135D01*
X35974157Y-49446995D01*
X35822668Y-49441943D01*
X35695966Y-49436880D01*
X35591859Y-49431707D01*
X35508154Y-49426324D01*
X35442658Y-49420633D01*
X35393181Y-49414534D01*
X35357528Y-49407928D01*
X35333508Y-49400716D01*
X35318928Y-49392799D01*
X35311596Y-49384077D01*
X35309320Y-49374452D01*
X35309278Y-49372619D01*
X35318360Y-49316188D01*
X35341868Y-49237195D01*
X35374196Y-49150373D01*
X35409738Y-49070453D01*
X35442886Y-49012168D01*
X35449986Y-49002888D01*
X35486325Y-48950415D01*
X35496315Y-48899762D01*
X35491518Y-48853753D01*
X35478111Y-48769909D01*
X36192736Y-48770211D01*
G36*
X36192736Y-48770211D02*
G01*
X36349591Y-48771092D01*
X36545779Y-48773557D01*
X36778332Y-48777515D01*
X37044283Y-48782871D01*
X37340664Y-48789535D01*
X37664508Y-48797412D01*
X38012847Y-48806411D01*
X38382714Y-48816439D01*
X38771142Y-48827403D01*
X39175162Y-48839211D01*
X39591808Y-48851769D01*
X40018112Y-48864986D01*
X40451107Y-48878769D01*
X40887824Y-48893025D01*
X41325298Y-48907661D01*
X41760559Y-48922586D01*
X42190641Y-48937705D01*
X42612577Y-48952927D01*
X43023398Y-48968159D01*
X43420138Y-48983309D01*
X43799828Y-48998283D01*
X44159503Y-49012990D01*
X44496192Y-49027336D01*
X44654361Y-49034317D01*
X45096643Y-49053356D01*
X45576371Y-49072661D01*
X46088659Y-49092090D01*
X46628623Y-49111503D01*
X47191377Y-49130760D01*
X47772036Y-49149720D01*
X48365714Y-49168244D01*
X48967525Y-49186189D01*
X49572586Y-49203417D01*
X50176009Y-49219786D01*
X50772910Y-49235157D01*
X51358404Y-49249388D01*
X51927605Y-49262339D01*
X52475628Y-49273871D01*
X52997588Y-49283841D01*
X53488598Y-49292111D01*
X53762666Y-49296147D01*
X54004285Y-49299620D01*
X54233266Y-49303157D01*
X54446126Y-49306689D01*
X54639384Y-49310145D01*
X54809557Y-49313458D01*
X54953163Y-49316556D01*
X55066719Y-49319371D01*
X55146744Y-49321833D01*
X55189754Y-49323873D01*
X55196346Y-49324754D01*
X55197031Y-49348886D01*
X55187115Y-49396485D01*
X55184784Y-49404886D01*
X55172622Y-49504808D01*
X55189213Y-49602239D01*
X55231365Y-49682417D01*
X55248886Y-49701242D01*
X55300056Y-49734226D01*
X55386884Y-49773293D01*
X55503571Y-49815962D01*
X55558733Y-49833931D01*
X55692418Y-49878002D01*
X55789332Y-49914798D01*
X55853946Y-49946587D01*
X55890732Y-49975640D01*
X55904162Y-50004225D01*
X55904445Y-50009359D01*
X55889765Y-50030553D01*
X55841809Y-50037044D01*
X55825070Y-50036653D01*
X55779201Y-50034790D01*
X55699192Y-50031560D01*
X55593204Y-50027290D01*
X55469394Y-50022309D01*
X55335925Y-50016947D01*
X55332945Y-50016827D01*
X55218787Y-50012327D01*
X55069683Y-50006578D01*
X54892991Y-49999856D01*
X54696070Y-49992439D01*
X54486280Y-49984604D01*
X54270979Y-49976626D01*
X54057527Y-49968784D01*
X54010028Y-49967049D01*
X52882195Y-49926206D01*
X51793973Y-49887433D01*
X50742697Y-49850650D01*
X49725698Y-49815779D01*
X48740310Y-49782740D01*
X47783867Y-49751455D01*
X46853700Y-49721845D01*
X45947144Y-49693830D01*
X45061531Y-49667332D01*
X44194194Y-49642272D01*
X43342466Y-49618570D01*
X42503681Y-49596148D01*
X41675171Y-49574927D01*
X40854270Y-49554828D01*
X40038310Y-49535772D01*
X39224624Y-49517679D01*
X38410547Y-49500472D01*
X37912778Y-49490379D01*
X37526393Y-49482628D01*
X37180142Y-49475560D01*
X36871832Y-49469076D01*
X36599271Y-49463076D01*
X36360266Y-49457463D01*
X36152626Y-49452135D01*
X35974157Y-49446995D01*
X35822668Y-49441943D01*
X35695966Y-49436880D01*
X35591859Y-49431707D01*
X35508154Y-49426324D01*
X35442658Y-49420633D01*
X35393181Y-49414534D01*
X35357528Y-49407928D01*
X35333508Y-49400716D01*
X35318928Y-49392799D01*
X35311596Y-49384077D01*
X35309320Y-49374452D01*
X35309278Y-49372619D01*
X35318360Y-49316188D01*
X35341868Y-49237195D01*
X35374196Y-49150373D01*
X35409738Y-49070453D01*
X35442886Y-49012168D01*
X35449986Y-49002888D01*
X35486325Y-48950415D01*
X35496315Y-48899762D01*
X35491518Y-48853753D01*
X35478111Y-48769909D01*
X36192736Y-48770211D01*
G37*
X37597443Y-45300363D02*
X37986947Y-45301975D01*
X38398099Y-45304940D01*
X38832031Y-45309282D01*
X39289872Y-45315024D01*
X39772751Y-45322191D01*
X40281798Y-45330807D01*
X40818144Y-45340897D01*
X41382918Y-45352486D01*
X41977250Y-45365596D01*
X42602269Y-45380253D01*
X43259107Y-45396481D01*
X43948891Y-45414304D01*
X44672754Y-45433747D01*
X45431823Y-45454833D01*
X46227229Y-45477588D01*
X47060103Y-45502035D01*
X47931572Y-45528199D01*
X48842769Y-45556104D01*
X49794822Y-45585774D01*
X50062445Y-45594199D01*
X50423891Y-45605396D01*
X50791214Y-45616389D01*
X51160212Y-45627069D01*
X51526685Y-45637331D01*
X51886431Y-45647069D01*
X52235249Y-45656175D01*
X52568937Y-45664543D01*
X52883295Y-45672067D01*
X53174121Y-45678639D01*
X53437213Y-45684154D01*
X53668371Y-45688505D01*
X53863394Y-45691586D01*
X53941293Y-45692563D01*
X55121391Y-45705798D01*
X55147817Y-45761478D01*
X55186812Y-45815934D01*
X55247518Y-45854234D01*
X55335407Y-45878190D01*
X55455955Y-45889612D01*
X55539999Y-45891209D01*
X55683121Y-45895637D01*
X55786202Y-45908971D01*
X55834161Y-45923215D01*
X55910685Y-45955189D01*
X55897345Y-46128168D01*
X55888508Y-46211374D01*
X55876871Y-46278899D01*
X55864585Y-46319049D01*
X55861378Y-46323736D01*
X55833592Y-46329874D01*
X55764311Y-46334791D01*
X55654354Y-46338499D01*
X55504542Y-46341012D01*
X55315695Y-46342344D01*
X55088634Y-46342509D01*
X54824177Y-46341521D01*
X54523146Y-46339392D01*
X54186359Y-46336137D01*
X53814638Y-46331770D01*
X53408803Y-46326303D01*
X52969673Y-46319752D01*
X52498069Y-46312128D01*
X51994810Y-46303447D01*
X51460717Y-46293721D01*
X50896609Y-46282964D01*
X50303307Y-46271191D01*
X49681632Y-46258414D01*
X49032402Y-46244647D01*
X48356438Y-46229905D01*
X47654560Y-46214200D01*
X46927589Y-46197546D01*
X46176344Y-46179957D01*
X45401645Y-46161447D01*
X44604312Y-46142030D01*
X43881778Y-46124132D01*
X43547995Y-46115841D01*
X43193877Y-46107120D01*
X42823708Y-46098072D01*
X42441777Y-46088797D01*
X42052370Y-46079397D01*
X41659773Y-46069973D01*
X41268274Y-46060628D01*
X40882159Y-46051463D01*
X40505715Y-46042579D01*
X40143229Y-46034078D01*
X39798988Y-46026061D01*
X39477278Y-46018631D01*
X39182386Y-46011888D01*
X38918600Y-46005935D01*
X38690204Y-46000873D01*
X38568945Y-45998241D01*
X38202239Y-45990412D01*
X37875104Y-45983552D01*
X37584789Y-45977635D01*
X37328543Y-45972638D01*
X37103615Y-45968535D01*
X36907255Y-45965302D01*
X36736711Y-45962914D01*
X36589233Y-45961347D01*
X36462070Y-45960576D01*
X36352471Y-45960576D01*
X36257685Y-45961323D01*
X36174961Y-45962791D01*
X36101549Y-45964958D01*
X36034697Y-45967796D01*
X35971655Y-45971283D01*
X35921995Y-45974532D01*
X35790838Y-45984312D01*
X35690862Y-45994245D01*
X35610960Y-46006445D01*
X35540026Y-46023022D01*
X35466953Y-46046089D01*
X35382173Y-46077172D01*
X35299349Y-46110243D01*
X35226479Y-46144166D01*
X35155081Y-46184113D01*
X35076668Y-46235252D01*
X34982759Y-46302755D01*
X34864868Y-46391791D01*
X34860853Y-46394864D01*
X34762249Y-46468776D01*
X34675159Y-46531090D01*
X34605019Y-46578157D01*
X34557267Y-46606328D01*
X34537345Y-46611961D01*
X34508798Y-46545155D01*
X34483106Y-46446302D01*
X34462392Y-46325683D01*
X34448775Y-46193578D01*
X34447734Y-46177687D01*
X34440393Y-46077567D01*
X34431687Y-46010780D01*
X34419532Y-45968332D01*
X34401841Y-45941230D01*
X34390488Y-45930801D01*
X34361544Y-45901644D01*
X34356778Y-45885560D01*
X34377646Y-45869761D01*
X34424437Y-45835452D01*
X34488693Y-45788819D01*
X34519845Y-45766331D01*
X34603516Y-45710172D01*
X34702722Y-45651845D01*
X34822803Y-45588608D01*
X34969098Y-45517716D01*
X35146947Y-45436427D01*
X35256361Y-45387955D01*
X35425695Y-45313580D01*
X36547528Y-45303394D01*
X36878863Y-45301096D01*
X37228458Y-45300078D01*
X37597443Y-45300363D01*
G36*
X37597443Y-45300363D02*
G01*
X37986947Y-45301975D01*
X38398099Y-45304940D01*
X38832031Y-45309282D01*
X39289872Y-45315024D01*
X39772751Y-45322191D01*
X40281798Y-45330807D01*
X40818144Y-45340897D01*
X41382918Y-45352486D01*
X41977250Y-45365596D01*
X42602269Y-45380253D01*
X43259107Y-45396481D01*
X43948891Y-45414304D01*
X44672754Y-45433747D01*
X45431823Y-45454833D01*
X46227229Y-45477588D01*
X47060103Y-45502035D01*
X47931572Y-45528199D01*
X48842769Y-45556104D01*
X49794822Y-45585774D01*
X50062445Y-45594199D01*
X50423891Y-45605396D01*
X50791214Y-45616389D01*
X51160212Y-45627069D01*
X51526685Y-45637331D01*
X51886431Y-45647069D01*
X52235249Y-45656175D01*
X52568937Y-45664543D01*
X52883295Y-45672067D01*
X53174121Y-45678639D01*
X53437213Y-45684154D01*
X53668371Y-45688505D01*
X53863394Y-45691586D01*
X53941293Y-45692563D01*
X55121391Y-45705798D01*
X55147817Y-45761478D01*
X55186812Y-45815934D01*
X55247518Y-45854234D01*
X55335407Y-45878190D01*
X55455955Y-45889612D01*
X55539999Y-45891209D01*
X55683121Y-45895637D01*
X55786202Y-45908971D01*
X55834161Y-45923215D01*
X55910685Y-45955189D01*
X55897345Y-46128168D01*
X55888508Y-46211374D01*
X55876871Y-46278899D01*
X55864585Y-46319049D01*
X55861378Y-46323736D01*
X55833592Y-46329874D01*
X55764311Y-46334791D01*
X55654354Y-46338499D01*
X55504542Y-46341012D01*
X55315695Y-46342344D01*
X55088634Y-46342509D01*
X54824177Y-46341521D01*
X54523146Y-46339392D01*
X54186359Y-46336137D01*
X53814638Y-46331770D01*
X53408803Y-46326303D01*
X52969673Y-46319752D01*
X52498069Y-46312128D01*
X51994810Y-46303447D01*
X51460717Y-46293721D01*
X50896609Y-46282964D01*
X50303307Y-46271191D01*
X49681632Y-46258414D01*
X49032402Y-46244647D01*
X48356438Y-46229905D01*
X47654560Y-46214200D01*
X46927589Y-46197546D01*
X46176344Y-46179957D01*
X45401645Y-46161447D01*
X44604312Y-46142030D01*
X43881778Y-46124132D01*
X43547995Y-46115841D01*
X43193877Y-46107120D01*
X42823708Y-46098072D01*
X42441777Y-46088797D01*
X42052370Y-46079397D01*
X41659773Y-46069973D01*
X41268274Y-46060628D01*
X40882159Y-46051463D01*
X40505715Y-46042579D01*
X40143229Y-46034078D01*
X39798988Y-46026061D01*
X39477278Y-46018631D01*
X39182386Y-46011888D01*
X38918600Y-46005935D01*
X38690204Y-46000873D01*
X38568945Y-45998241D01*
X38202239Y-45990412D01*
X37875104Y-45983552D01*
X37584789Y-45977635D01*
X37328543Y-45972638D01*
X37103615Y-45968535D01*
X36907255Y-45965302D01*
X36736711Y-45962914D01*
X36589233Y-45961347D01*
X36462070Y-45960576D01*
X36352471Y-45960576D01*
X36257685Y-45961323D01*
X36174961Y-45962791D01*
X36101549Y-45964958D01*
X36034697Y-45967796D01*
X35971655Y-45971283D01*
X35921995Y-45974532D01*
X35790838Y-45984312D01*
X35690862Y-45994245D01*
X35610960Y-46006445D01*
X35540026Y-46023022D01*
X35466953Y-46046089D01*
X35382173Y-46077172D01*
X35299349Y-46110243D01*
X35226479Y-46144166D01*
X35155081Y-46184113D01*
X35076668Y-46235252D01*
X34982759Y-46302755D01*
X34864868Y-46391791D01*
X34860853Y-46394864D01*
X34762249Y-46468776D01*
X34675159Y-46531090D01*
X34605019Y-46578157D01*
X34557267Y-46606328D01*
X34537345Y-46611961D01*
X34508798Y-46545155D01*
X34483106Y-46446302D01*
X34462392Y-46325683D01*
X34448775Y-46193578D01*
X34447734Y-46177687D01*
X34440393Y-46077567D01*
X34431687Y-46010780D01*
X34419532Y-45968332D01*
X34401841Y-45941230D01*
X34390488Y-45930801D01*
X34361544Y-45901644D01*
X34356778Y-45885560D01*
X34377646Y-45869761D01*
X34424437Y-45835452D01*
X34488693Y-45788819D01*
X34519845Y-45766331D01*
X34603516Y-45710172D01*
X34702722Y-45651845D01*
X34822803Y-45588608D01*
X34969098Y-45517716D01*
X35146947Y-45436427D01*
X35256361Y-45387955D01*
X35425695Y-45313580D01*
X36547528Y-45303394D01*
X36878863Y-45301096D01*
X37228458Y-45300078D01*
X37597443Y-45300363D01*
G37*
X53160090Y-30506449D02*
X53178536Y-30506810D01*
X53329071Y-30510038D01*
X53444057Y-30513447D01*
X53530275Y-30517785D01*
X53594506Y-30523806D01*
X53643530Y-30532259D01*
X53684129Y-30543896D01*
X53723083Y-30559468D01*
X53745445Y-30569603D01*
X53858598Y-30634417D01*
X53944207Y-30714621D01*
X54006762Y-30817040D01*
X54050752Y-30948500D01*
X54074113Y-31069284D01*
X54087832Y-31159242D01*
X53926557Y-31159242D01*
X53831297Y-31156136D01*
X53775481Y-31146563D01*
X53757131Y-31132784D01*
X53746683Y-31093154D01*
X53736185Y-31047954D01*
X53713619Y-30994138D01*
X53674002Y-30934917D01*
X53663979Y-30923090D01*
X53635804Y-30893821D01*
X53607226Y-30873724D01*
X53568953Y-30860039D01*
X53511694Y-30850007D01*
X53426156Y-30840868D01*
X53369985Y-30835781D01*
X53265705Y-30827144D01*
X53192918Y-30823712D01*
X53141014Y-30826308D01*
X53099381Y-30835752D01*
X53057408Y-30852867D01*
X53039529Y-30861375D01*
X52998063Y-30882363D01*
X52963625Y-30904187D01*
X52935433Y-30930840D01*
X52912707Y-30966315D01*
X52894663Y-31014605D01*
X52880522Y-31079702D01*
X52869501Y-31165601D01*
X52860819Y-31276293D01*
X52853694Y-31415771D01*
X52847345Y-31588029D01*
X52840990Y-31797059D01*
X52838347Y-31889217D01*
X52832209Y-32107930D01*
X52827777Y-32288486D01*
X52825567Y-32435044D01*
X52826094Y-32551763D01*
X52829870Y-32642802D01*
X52837411Y-32712321D01*
X52849231Y-32764478D01*
X52865845Y-32803434D01*
X52887767Y-32833346D01*
X52915511Y-32858375D01*
X52949592Y-32882680D01*
X52962278Y-32891224D01*
X53050563Y-32928433D01*
X53146816Y-32933710D01*
X53239885Y-32910009D01*
X53318618Y-32860283D01*
X53371865Y-32787485D01*
X53374133Y-32782137D01*
X53384952Y-32736524D01*
X53395739Y-32657219D01*
X53405592Y-32552853D01*
X53413606Y-32432059D01*
X53416070Y-32381617D01*
X53430690Y-32048242D01*
X53268098Y-32048242D01*
X53186382Y-32047640D01*
X53138907Y-32044121D01*
X53117584Y-32035113D01*
X53114324Y-32018044D01*
X53118270Y-32000617D01*
X53125601Y-31952487D01*
X53130344Y-31881672D01*
X53131299Y-31836575D01*
X53131564Y-31720159D01*
X53587875Y-31733710D01*
X53722457Y-31738139D01*
X53842244Y-31742908D01*
X53940956Y-31747697D01*
X54012312Y-31752189D01*
X54050030Y-31756066D01*
X54054244Y-31757319D01*
X54056276Y-31780357D01*
X54056729Y-31839909D01*
X54055695Y-31930189D01*
X54053266Y-32045409D01*
X54049536Y-32179784D01*
X54045583Y-32299830D01*
X54039727Y-32463599D01*
X54034599Y-32591048D01*
X54029460Y-32688164D01*
X54023574Y-32760934D01*
X54016203Y-32815345D01*
X54006609Y-32857385D01*
X53994055Y-32893041D01*
X53977803Y-32928301D01*
X53965054Y-32953554D01*
X53901266Y-33054039D01*
X53821109Y-33129371D01*
X53801080Y-33143419D01*
X53736177Y-33184450D01*
X53673849Y-33216518D01*
X53608228Y-33240352D01*
X53533445Y-33256680D01*
X53443634Y-33266230D01*
X53332927Y-33269731D01*
X53195455Y-33267912D01*
X53025352Y-33261501D01*
X52898778Y-33255431D01*
X52776744Y-33247896D01*
X52687609Y-33238486D01*
X52621941Y-33225621D01*
X52570306Y-33207722D01*
X52547063Y-33196527D01*
X52405263Y-33102097D01*
X52298088Y-32986249D01*
X52227404Y-32851338D01*
X52203398Y-32762823D01*
X52199733Y-32718214D01*
X52197754Y-32635724D01*
X52197423Y-32519770D01*
X52198701Y-32374769D01*
X52201552Y-32205138D01*
X52205938Y-32015295D01*
X52211436Y-31822013D01*
X52218690Y-31592815D01*
X52225558Y-31401679D01*
X52232848Y-31244348D01*
X52241367Y-31116568D01*
X52251923Y-31014083D01*
X52265322Y-30932638D01*
X52282371Y-30867976D01*
X52303878Y-30815844D01*
X52330650Y-30771986D01*
X52363495Y-30732146D01*
X52403218Y-30692068D01*
X52430692Y-30666136D01*
X52489016Y-30614307D01*
X52543818Y-30574333D01*
X52601550Y-30544839D01*
X52668669Y-30524451D01*
X52751628Y-30511793D01*
X52856881Y-30505490D01*
X52990884Y-30504167D01*
X53160090Y-30506449D01*
G36*
X53160090Y-30506449D02*
G01*
X53178536Y-30506810D01*
X53329071Y-30510038D01*
X53444057Y-30513447D01*
X53530275Y-30517785D01*
X53594506Y-30523806D01*
X53643530Y-30532259D01*
X53684129Y-30543896D01*
X53723083Y-30559468D01*
X53745445Y-30569603D01*
X53858598Y-30634417D01*
X53944207Y-30714621D01*
X54006762Y-30817040D01*
X54050752Y-30948500D01*
X54074113Y-31069284D01*
X54087832Y-31159242D01*
X53926557Y-31159242D01*
X53831297Y-31156136D01*
X53775481Y-31146563D01*
X53757131Y-31132784D01*
X53746683Y-31093154D01*
X53736185Y-31047954D01*
X53713619Y-30994138D01*
X53674002Y-30934917D01*
X53663979Y-30923090D01*
X53635804Y-30893821D01*
X53607226Y-30873724D01*
X53568953Y-30860039D01*
X53511694Y-30850007D01*
X53426156Y-30840868D01*
X53369985Y-30835781D01*
X53265705Y-30827144D01*
X53192918Y-30823712D01*
X53141014Y-30826308D01*
X53099381Y-30835752D01*
X53057408Y-30852867D01*
X53039529Y-30861375D01*
X52998063Y-30882363D01*
X52963625Y-30904187D01*
X52935433Y-30930840D01*
X52912707Y-30966315D01*
X52894663Y-31014605D01*
X52880522Y-31079702D01*
X52869501Y-31165601D01*
X52860819Y-31276293D01*
X52853694Y-31415771D01*
X52847345Y-31588029D01*
X52840990Y-31797059D01*
X52838347Y-31889217D01*
X52832209Y-32107930D01*
X52827777Y-32288486D01*
X52825567Y-32435044D01*
X52826094Y-32551763D01*
X52829870Y-32642802D01*
X52837411Y-32712321D01*
X52849231Y-32764478D01*
X52865845Y-32803434D01*
X52887767Y-32833346D01*
X52915511Y-32858375D01*
X52949592Y-32882680D01*
X52962278Y-32891224D01*
X53050563Y-32928433D01*
X53146816Y-32933710D01*
X53239885Y-32910009D01*
X53318618Y-32860283D01*
X53371865Y-32787485D01*
X53374133Y-32782137D01*
X53384952Y-32736524D01*
X53395739Y-32657219D01*
X53405592Y-32552853D01*
X53413606Y-32432059D01*
X53416070Y-32381617D01*
X53430690Y-32048242D01*
X53268098Y-32048242D01*
X53186382Y-32047640D01*
X53138907Y-32044121D01*
X53117584Y-32035113D01*
X53114324Y-32018044D01*
X53118270Y-32000617D01*
X53125601Y-31952487D01*
X53130344Y-31881672D01*
X53131299Y-31836575D01*
X53131564Y-31720159D01*
X53587875Y-31733710D01*
X53722457Y-31738139D01*
X53842244Y-31742908D01*
X53940956Y-31747697D01*
X54012312Y-31752189D01*
X54050030Y-31756066D01*
X54054244Y-31757319D01*
X54056276Y-31780357D01*
X54056729Y-31839909D01*
X54055695Y-31930189D01*
X54053266Y-32045409D01*
X54049536Y-32179784D01*
X54045583Y-32299830D01*
X54039727Y-32463599D01*
X54034599Y-32591048D01*
X54029460Y-32688164D01*
X54023574Y-32760934D01*
X54016203Y-32815345D01*
X54006609Y-32857385D01*
X53994055Y-32893041D01*
X53977803Y-32928301D01*
X53965054Y-32953554D01*
X53901266Y-33054039D01*
X53821109Y-33129371D01*
X53801080Y-33143419D01*
X53736177Y-33184450D01*
X53673849Y-33216518D01*
X53608228Y-33240352D01*
X53533445Y-33256680D01*
X53443634Y-33266230D01*
X53332927Y-33269731D01*
X53195455Y-33267912D01*
X53025352Y-33261501D01*
X52898778Y-33255431D01*
X52776744Y-33247896D01*
X52687609Y-33238486D01*
X52621941Y-33225621D01*
X52570306Y-33207722D01*
X52547063Y-33196527D01*
X52405263Y-33102097D01*
X52298088Y-32986249D01*
X52227404Y-32851338D01*
X52203398Y-32762823D01*
X52199733Y-32718214D01*
X52197754Y-32635724D01*
X52197423Y-32519770D01*
X52198701Y-32374769D01*
X52201552Y-32205138D01*
X52205938Y-32015295D01*
X52211436Y-31822013D01*
X52218690Y-31592815D01*
X52225558Y-31401679D01*
X52232848Y-31244348D01*
X52241367Y-31116568D01*
X52251923Y-31014083D01*
X52265322Y-30932638D01*
X52282371Y-30867976D01*
X52303878Y-30815844D01*
X52330650Y-30771986D01*
X52363495Y-30732146D01*
X52403218Y-30692068D01*
X52430692Y-30666136D01*
X52489016Y-30614307D01*
X52543818Y-30574333D01*
X52601550Y-30544839D01*
X52668669Y-30524451D01*
X52751628Y-30511793D01*
X52856881Y-30505490D01*
X52990884Y-30504167D01*
X53160090Y-30506449D01*
G37*
X36928528Y-47090620D02*
X37116495Y-47091706D01*
X37341811Y-47094016D01*
X37600332Y-47097452D01*
X37887916Y-47101916D01*
X38200418Y-47107312D01*
X38533696Y-47113541D01*
X38883606Y-47120507D01*
X39246006Y-47128112D01*
X39616750Y-47136260D01*
X39991698Y-47144852D01*
X40366704Y-47153791D01*
X40737626Y-47162981D01*
X41100320Y-47172323D01*
X41450644Y-47181721D01*
X41784453Y-47191077D01*
X42097605Y-47200295D01*
X42385956Y-47209275D01*
X42645362Y-47217922D01*
X42871682Y-47226139D01*
X43060770Y-47233826D01*
X43098611Y-47235512D01*
X43389447Y-47248461D01*
X43719389Y-47262676D01*
X44085232Y-47278036D01*
X44483774Y-47294422D01*
X44911809Y-47311717D01*
X45366132Y-47329799D01*
X45843540Y-47348551D01*
X46340828Y-47367853D01*
X46854792Y-47387585D01*
X47382228Y-47407630D01*
X47919930Y-47427867D01*
X48464695Y-47448177D01*
X49013318Y-47468442D01*
X49562595Y-47488541D01*
X50109322Y-47508357D01*
X50650294Y-47527769D01*
X51182307Y-47546659D01*
X51702156Y-47564907D01*
X52206637Y-47582395D01*
X52692546Y-47599003D01*
X53156678Y-47614611D01*
X53595830Y-47629102D01*
X54006796Y-47642355D01*
X54221695Y-47649138D01*
X54404298Y-47655114D01*
X54579545Y-47661346D01*
X54741431Y-47667582D01*
X54883951Y-47673572D01*
X55001102Y-47679067D01*
X55086881Y-47683815D01*
X55129694Y-47686986D01*
X55275693Y-47700992D01*
X55304219Y-47798996D01*
X55325191Y-47859769D01*
X55351108Y-47892949D01*
X55395614Y-47912374D01*
X55423344Y-47919813D01*
X55488431Y-47932438D01*
X55578309Y-47945110D01*
X55675505Y-47955427D01*
X55693319Y-47956920D01*
X55827884Y-47974818D01*
X55923825Y-48004931D01*
X55983503Y-48048868D01*
X56009275Y-48108233D01*
X56006627Y-48170276D01*
X55999663Y-48186110D01*
X55981357Y-48197524D01*
X55945020Y-48205643D01*
X55883967Y-48211593D01*
X55791509Y-48216498D01*
X55713673Y-48219575D01*
X55593246Y-48224873D01*
X55506333Y-48231314D01*
X55444116Y-48240301D01*
X55397777Y-48253235D01*
X55358498Y-48271519D01*
X55347572Y-48277784D01*
X55241069Y-48317880D01*
X55178276Y-48322491D01*
X55141960Y-48321237D01*
X55067175Y-48318607D01*
X54957758Y-48314737D01*
X54817546Y-48309762D01*
X54650377Y-48303820D01*
X54460086Y-48297047D01*
X54250512Y-48289580D01*
X54025492Y-48281554D01*
X53788862Y-48273106D01*
X53724278Y-48270799D01*
X53511684Y-48263524D01*
X53261754Y-48255524D01*
X52979476Y-48246936D01*
X52669837Y-48237893D01*
X52337828Y-48228530D01*
X51988434Y-48218983D01*
X51626645Y-48209387D01*
X51257450Y-48199875D01*
X50885835Y-48190583D01*
X50516790Y-48181646D01*
X50155303Y-48173199D01*
X49903695Y-48167522D01*
X49534736Y-48159124D01*
X49143668Y-48149838D01*
X48736694Y-48139832D01*
X48320019Y-48129273D01*
X47899846Y-48118326D01*
X47482382Y-48107159D01*
X47073829Y-48095939D01*
X46680393Y-48084833D01*
X46308277Y-48074007D01*
X45963687Y-48063628D01*
X45652827Y-48053863D01*
X45543361Y-48050299D01*
X44720817Y-48023385D01*
X43930788Y-47997871D01*
X43173853Y-47973774D01*
X42450588Y-47951110D01*
X41761572Y-47929894D01*
X41107383Y-47910143D01*
X40488597Y-47891872D01*
X39905793Y-47875097D01*
X39359547Y-47859835D01*
X38850439Y-47846100D01*
X38379045Y-47833910D01*
X37945943Y-47823279D01*
X37551710Y-47814224D01*
X37196925Y-47806760D01*
X36882165Y-47800904D01*
X36608008Y-47796671D01*
X36375030Y-47794077D01*
X36194245Y-47793148D01*
X35713961Y-47792572D01*
X35404232Y-47924086D01*
X35290908Y-47970591D01*
X35195697Y-48006498D01*
X35124488Y-48029784D01*
X35083172Y-48038424D01*
X35075815Y-48036913D01*
X35061103Y-48001244D01*
X35050065Y-47934367D01*
X35043157Y-47847285D01*
X35040836Y-47751000D01*
X35043559Y-47656515D01*
X35051782Y-47574833D01*
X35055727Y-47552825D01*
X35072016Y-47469008D01*
X35085863Y-47389008D01*
X35091850Y-47348332D01*
X35101699Y-47270840D01*
X35358947Y-47178999D01*
X35616195Y-47087159D01*
X36928528Y-47090620D01*
G36*
X36928528Y-47090620D02*
G01*
X37116495Y-47091706D01*
X37341811Y-47094016D01*
X37600332Y-47097452D01*
X37887916Y-47101916D01*
X38200418Y-47107312D01*
X38533696Y-47113541D01*
X38883606Y-47120507D01*
X39246006Y-47128112D01*
X39616750Y-47136260D01*
X39991698Y-47144852D01*
X40366704Y-47153791D01*
X40737626Y-47162981D01*
X41100320Y-47172323D01*
X41450644Y-47181721D01*
X41784453Y-47191077D01*
X42097605Y-47200295D01*
X42385956Y-47209275D01*
X42645362Y-47217922D01*
X42871682Y-47226139D01*
X43060770Y-47233826D01*
X43098611Y-47235512D01*
X43389447Y-47248461D01*
X43719389Y-47262676D01*
X44085232Y-47278036D01*
X44483774Y-47294422D01*
X44911809Y-47311717D01*
X45366132Y-47329799D01*
X45843540Y-47348551D01*
X46340828Y-47367853D01*
X46854792Y-47387585D01*
X47382228Y-47407630D01*
X47919930Y-47427867D01*
X48464695Y-47448177D01*
X49013318Y-47468442D01*
X49562595Y-47488541D01*
X50109322Y-47508357D01*
X50650294Y-47527769D01*
X51182307Y-47546659D01*
X51702156Y-47564907D01*
X52206637Y-47582395D01*
X52692546Y-47599003D01*
X53156678Y-47614611D01*
X53595830Y-47629102D01*
X54006796Y-47642355D01*
X54221695Y-47649138D01*
X54404298Y-47655114D01*
X54579545Y-47661346D01*
X54741431Y-47667582D01*
X54883951Y-47673572D01*
X55001102Y-47679067D01*
X55086881Y-47683815D01*
X55129694Y-47686986D01*
X55275693Y-47700992D01*
X55304219Y-47798996D01*
X55325191Y-47859769D01*
X55351108Y-47892949D01*
X55395614Y-47912374D01*
X55423344Y-47919813D01*
X55488431Y-47932438D01*
X55578309Y-47945110D01*
X55675505Y-47955427D01*
X55693319Y-47956920D01*
X55827884Y-47974818D01*
X55923825Y-48004931D01*
X55983503Y-48048868D01*
X56009275Y-48108233D01*
X56006627Y-48170276D01*
X55999663Y-48186110D01*
X55981357Y-48197524D01*
X55945020Y-48205643D01*
X55883967Y-48211593D01*
X55791509Y-48216498D01*
X55713673Y-48219575D01*
X55593246Y-48224873D01*
X55506333Y-48231314D01*
X55444116Y-48240301D01*
X55397777Y-48253235D01*
X55358498Y-48271519D01*
X55347572Y-48277784D01*
X55241069Y-48317880D01*
X55178276Y-48322491D01*
X55141960Y-48321237D01*
X55067175Y-48318607D01*
X54957758Y-48314737D01*
X54817546Y-48309762D01*
X54650377Y-48303820D01*
X54460086Y-48297047D01*
X54250512Y-48289580D01*
X54025492Y-48281554D01*
X53788862Y-48273106D01*
X53724278Y-48270799D01*
X53511684Y-48263524D01*
X53261754Y-48255524D01*
X52979476Y-48246936D01*
X52669837Y-48237893D01*
X52337828Y-48228530D01*
X51988434Y-48218983D01*
X51626645Y-48209387D01*
X51257450Y-48199875D01*
X50885835Y-48190583D01*
X50516790Y-48181646D01*
X50155303Y-48173199D01*
X49903695Y-48167522D01*
X49534736Y-48159124D01*
X49143668Y-48149838D01*
X48736694Y-48139832D01*
X48320019Y-48129273D01*
X47899846Y-48118326D01*
X47482382Y-48107159D01*
X47073829Y-48095939D01*
X46680393Y-48084833D01*
X46308277Y-48074007D01*
X45963687Y-48063628D01*
X45652827Y-48053863D01*
X45543361Y-48050299D01*
X44720817Y-48023385D01*
X43930788Y-47997871D01*
X43173853Y-47973774D01*
X42450588Y-47951110D01*
X41761572Y-47929894D01*
X41107383Y-47910143D01*
X40488597Y-47891872D01*
X39905793Y-47875097D01*
X39359547Y-47859835D01*
X38850439Y-47846100D01*
X38379045Y-47833910D01*
X37945943Y-47823279D01*
X37551710Y-47814224D01*
X37196925Y-47806760D01*
X36882165Y-47800904D01*
X36608008Y-47796671D01*
X36375030Y-47794077D01*
X36194245Y-47793148D01*
X35713961Y-47792572D01*
X35404232Y-47924086D01*
X35290908Y-47970591D01*
X35195697Y-48006498D01*
X35124488Y-48029784D01*
X35083172Y-48038424D01*
X35075815Y-48036913D01*
X35061103Y-48001244D01*
X35050065Y-47934367D01*
X35043157Y-47847285D01*
X35040836Y-47751000D01*
X35043559Y-47656515D01*
X35051782Y-47574833D01*
X35055727Y-47552825D01*
X35072016Y-47469008D01*
X35085863Y-47389008D01*
X35091850Y-47348332D01*
X35101699Y-47270840D01*
X35358947Y-47178999D01*
X35616195Y-47087159D01*
X36928528Y-47090620D01*
G37*
X44299575Y-30236947D02*
X44409749Y-30242764D01*
X44503891Y-30248607D01*
X44574391Y-30253937D01*
X44613637Y-30258213D01*
X44619076Y-30259651D01*
X44619891Y-30281632D01*
X44619426Y-30341955D01*
X44617774Y-30436650D01*
X44615032Y-30561747D01*
X44611293Y-30713278D01*
X44606653Y-30887271D01*
X44601206Y-31079758D01*
X44595048Y-31286770D01*
X44592675Y-31364090D01*
X44586079Y-31579534D01*
X44579912Y-31785261D01*
X44574302Y-31976789D01*
X44569371Y-32149635D01*
X44565247Y-32299317D01*
X44562054Y-32421352D01*
X44559918Y-32511257D01*
X44558963Y-32564551D01*
X44558924Y-32572117D01*
X44559111Y-32683242D01*
X44755485Y-32683242D01*
X44859962Y-32681140D01*
X44931737Y-32673911D01*
X44980275Y-32660171D01*
X45004193Y-32646851D01*
X45089912Y-32569381D01*
X45135581Y-32483218D01*
X45140781Y-32460992D01*
X45143024Y-32431760D01*
X45146393Y-32365211D01*
X45150716Y-32266340D01*
X45155819Y-32140143D01*
X45161532Y-31991616D01*
X45167680Y-31825755D01*
X45174091Y-31647556D01*
X45180594Y-31462014D01*
X45187015Y-31274125D01*
X45193182Y-31088885D01*
X45198922Y-30911290D01*
X45204063Y-30746336D01*
X45208433Y-30599018D01*
X45211858Y-30474333D01*
X45214167Y-30377276D01*
X45215187Y-30312843D01*
X45215220Y-30305299D01*
X45217912Y-30290090D01*
X45230188Y-30279706D01*
X45258428Y-30273481D01*
X45309011Y-30270752D01*
X45388317Y-30270856D01*
X45502726Y-30273130D01*
X45520464Y-30273549D01*
X45629554Y-30276831D01*
X45722661Y-30280924D01*
X45792029Y-30285387D01*
X45829908Y-30289779D01*
X45834499Y-30291409D01*
X45835619Y-30313980D01*
X45835453Y-30374419D01*
X45834119Y-30468286D01*
X45831738Y-30591138D01*
X45828427Y-30738535D01*
X45824306Y-30906034D01*
X45819494Y-31089195D01*
X45814110Y-31283576D01*
X45808274Y-31484735D01*
X45802103Y-31688232D01*
X45795718Y-31889624D01*
X45789237Y-32084470D01*
X45782780Y-32268329D01*
X45778181Y-32392200D01*
X45765474Y-32725575D01*
X45958836Y-32725575D01*
X46059122Y-32723788D01*
X46128903Y-32717119D01*
X46179907Y-32703605D01*
X46223864Y-32681283D01*
X46224001Y-32681198D01*
X46253864Y-32662587D01*
X46279216Y-32644326D01*
X46300536Y-32622929D01*
X46318306Y-32594909D01*
X46333003Y-32556780D01*
X46345107Y-32505056D01*
X46355099Y-32436249D01*
X46363458Y-32346875D01*
X46370662Y-32233445D01*
X46377193Y-32092474D01*
X46383528Y-31920476D01*
X46390149Y-31713963D01*
X46397534Y-31469449D01*
X46399444Y-31405699D01*
X46432361Y-30308074D01*
X46738557Y-30311368D01*
X46847860Y-30313128D01*
X46941202Y-30315738D01*
X47010837Y-30318895D01*
X47049020Y-30322298D01*
X47053768Y-30323676D01*
X47055979Y-30347030D01*
X47056566Y-30407428D01*
X47055702Y-30499619D01*
X47053557Y-30618354D01*
X47050307Y-30758381D01*
X47046121Y-30914449D01*
X47041174Y-31081308D01*
X47035638Y-31253706D01*
X47029684Y-31426394D01*
X47023486Y-31594121D01*
X47017217Y-31751635D01*
X47011047Y-31893686D01*
X47005151Y-32015023D01*
X46999701Y-32110396D01*
X46994868Y-32174553D01*
X46992248Y-32196409D01*
X46942029Y-32371253D01*
X46855665Y-32538828D01*
X46739339Y-32692417D01*
X46599238Y-32825304D01*
X46441544Y-32930771D01*
X46272442Y-33002103D01*
X46242706Y-33010429D01*
X46167138Y-33023111D01*
X46055831Y-33032335D01*
X45915245Y-33037987D01*
X45751843Y-33039955D01*
X45572086Y-33038126D01*
X45382434Y-33032386D01*
X45273486Y-33027379D01*
X45196772Y-33021899D01*
X45153396Y-33013440D01*
X45134365Y-32998992D01*
X45130611Y-32979547D01*
X45127847Y-32955787D01*
X45112461Y-32949582D01*
X45073810Y-32960023D01*
X45040653Y-32971849D01*
X44999652Y-32983485D01*
X44945708Y-32992029D01*
X44872773Y-32997826D01*
X44774798Y-33001222D01*
X44645733Y-33002560D01*
X44506195Y-33002335D01*
X44368750Y-33001066D01*
X44241789Y-32998820D01*
X44132837Y-32995815D01*
X44049420Y-32992269D01*
X43999063Y-32988399D01*
X43992903Y-32987477D01*
X43924111Y-32974864D01*
X43924521Y-32739095D01*
X43925319Y-32667272D01*
X43927429Y-32558924D01*
X43930699Y-32419832D01*
X43934973Y-32255780D01*
X43940099Y-32072548D01*
X43945922Y-31875920D01*
X43952289Y-31671678D01*
X43955861Y-31561409D01*
X43962426Y-31357244D01*
X43968535Y-31159097D01*
X43974035Y-30972492D01*
X43978775Y-30802954D01*
X43982604Y-30656007D01*
X43985370Y-30537175D01*
X43986920Y-30451984D01*
X43987201Y-30420636D01*
X43987611Y-30221781D01*
X44299575Y-30236947D01*
G36*
X44299575Y-30236947D02*
G01*
X44409749Y-30242764D01*
X44503891Y-30248607D01*
X44574391Y-30253937D01*
X44613637Y-30258213D01*
X44619076Y-30259651D01*
X44619891Y-30281632D01*
X44619426Y-30341955D01*
X44617774Y-30436650D01*
X44615032Y-30561747D01*
X44611293Y-30713278D01*
X44606653Y-30887271D01*
X44601206Y-31079758D01*
X44595048Y-31286770D01*
X44592675Y-31364090D01*
X44586079Y-31579534D01*
X44579912Y-31785261D01*
X44574302Y-31976789D01*
X44569371Y-32149635D01*
X44565247Y-32299317D01*
X44562054Y-32421352D01*
X44559918Y-32511257D01*
X44558963Y-32564551D01*
X44558924Y-32572117D01*
X44559111Y-32683242D01*
X44755485Y-32683242D01*
X44859962Y-32681140D01*
X44931737Y-32673911D01*
X44980275Y-32660171D01*
X45004193Y-32646851D01*
X45089912Y-32569381D01*
X45135581Y-32483218D01*
X45140781Y-32460992D01*
X45143024Y-32431760D01*
X45146393Y-32365211D01*
X45150716Y-32266340D01*
X45155819Y-32140143D01*
X45161532Y-31991616D01*
X45167680Y-31825755D01*
X45174091Y-31647556D01*
X45180594Y-31462014D01*
X45187015Y-31274125D01*
X45193182Y-31088885D01*
X45198922Y-30911290D01*
X45204063Y-30746336D01*
X45208433Y-30599018D01*
X45211858Y-30474333D01*
X45214167Y-30377276D01*
X45215187Y-30312843D01*
X45215220Y-30305299D01*
X45217912Y-30290090D01*
X45230188Y-30279706D01*
X45258428Y-30273481D01*
X45309011Y-30270752D01*
X45388317Y-30270856D01*
X45502726Y-30273130D01*
X45520464Y-30273549D01*
X45629554Y-30276831D01*
X45722661Y-30280924D01*
X45792029Y-30285387D01*
X45829908Y-30289779D01*
X45834499Y-30291409D01*
X45835619Y-30313980D01*
X45835453Y-30374419D01*
X45834119Y-30468286D01*
X45831738Y-30591138D01*
X45828427Y-30738535D01*
X45824306Y-30906034D01*
X45819494Y-31089195D01*
X45814110Y-31283576D01*
X45808274Y-31484735D01*
X45802103Y-31688232D01*
X45795718Y-31889624D01*
X45789237Y-32084470D01*
X45782780Y-32268329D01*
X45778181Y-32392200D01*
X45765474Y-32725575D01*
X45958836Y-32725575D01*
X46059122Y-32723788D01*
X46128903Y-32717119D01*
X46179907Y-32703605D01*
X46223864Y-32681283D01*
X46224001Y-32681198D01*
X46253864Y-32662587D01*
X46279216Y-32644326D01*
X46300536Y-32622929D01*
X46318306Y-32594909D01*
X46333003Y-32556780D01*
X46345107Y-32505056D01*
X46355099Y-32436249D01*
X46363458Y-32346875D01*
X46370662Y-32233445D01*
X46377193Y-32092474D01*
X46383528Y-31920476D01*
X46390149Y-31713963D01*
X46397534Y-31469449D01*
X46399444Y-31405699D01*
X46432361Y-30308074D01*
X46738557Y-30311368D01*
X46847860Y-30313128D01*
X46941202Y-30315738D01*
X47010837Y-30318895D01*
X47049020Y-30322298D01*
X47053768Y-30323676D01*
X47055979Y-30347030D01*
X47056566Y-30407428D01*
X47055702Y-30499619D01*
X47053557Y-30618354D01*
X47050307Y-30758381D01*
X47046121Y-30914449D01*
X47041174Y-31081308D01*
X47035638Y-31253706D01*
X47029684Y-31426394D01*
X47023486Y-31594121D01*
X47017217Y-31751635D01*
X47011047Y-31893686D01*
X47005151Y-32015023D01*
X46999701Y-32110396D01*
X46994868Y-32174553D01*
X46992248Y-32196409D01*
X46942029Y-32371253D01*
X46855665Y-32538828D01*
X46739339Y-32692417D01*
X46599238Y-32825304D01*
X46441544Y-32930771D01*
X46272442Y-33002103D01*
X46242706Y-33010429D01*
X46167138Y-33023111D01*
X46055831Y-33032335D01*
X45915245Y-33037987D01*
X45751843Y-33039955D01*
X45572086Y-33038126D01*
X45382434Y-33032386D01*
X45273486Y-33027379D01*
X45196772Y-33021899D01*
X45153396Y-33013440D01*
X45134365Y-32998992D01*
X45130611Y-32979547D01*
X45127847Y-32955787D01*
X45112461Y-32949582D01*
X45073810Y-32960023D01*
X45040653Y-32971849D01*
X44999652Y-32983485D01*
X44945708Y-32992029D01*
X44872773Y-32997826D01*
X44774798Y-33001222D01*
X44645733Y-33002560D01*
X44506195Y-33002335D01*
X44368750Y-33001066D01*
X44241789Y-32998820D01*
X44132837Y-32995815D01*
X44049420Y-32992269D01*
X43999063Y-32988399D01*
X43992903Y-32987477D01*
X43924111Y-32974864D01*
X43924521Y-32739095D01*
X43925319Y-32667272D01*
X43927429Y-32558924D01*
X43930699Y-32419832D01*
X43934973Y-32255780D01*
X43940099Y-32072548D01*
X43945922Y-31875920D01*
X43952289Y-31671678D01*
X43955861Y-31561409D01*
X43962426Y-31357244D01*
X43968535Y-31159097D01*
X43974035Y-30972492D01*
X43978775Y-30802954D01*
X43982604Y-30656007D01*
X43985370Y-30537175D01*
X43986920Y-30451984D01*
X43987201Y-30420636D01*
X43987611Y-30221781D01*
X44299575Y-30236947D01*
G37*
X35585249Y-50223655D02*
X35680329Y-50226587D01*
X35806265Y-50230860D01*
X35959244Y-50236339D01*
X36135451Y-50242888D01*
X36331073Y-50250371D01*
X36542295Y-50258652D01*
X36695695Y-50264783D01*
X37335092Y-50290531D01*
X37933876Y-50314629D01*
X38493733Y-50337140D01*
X39016348Y-50358125D01*
X39503407Y-50377645D01*
X39956595Y-50395762D01*
X40377598Y-50412537D01*
X40768102Y-50428032D01*
X41129792Y-50442308D01*
X41464354Y-50455426D01*
X41773474Y-50467449D01*
X42058837Y-50478437D01*
X42322129Y-50488451D01*
X42565035Y-50497555D01*
X42789241Y-50505808D01*
X42996433Y-50513272D01*
X43188297Y-50520009D01*
X43366517Y-50526081D01*
X43532781Y-50531547D01*
X43688772Y-50536471D01*
X43836177Y-50540914D01*
X43976682Y-50544937D01*
X44111972Y-50548600D01*
X44243733Y-50551967D01*
X44373651Y-50555099D01*
X44503410Y-50558056D01*
X44634697Y-50560900D01*
X44769198Y-50563693D01*
X44908597Y-50566496D01*
X45045945Y-50569202D01*
X45653600Y-50581200D01*
X46268122Y-50593535D01*
X46885975Y-50606131D01*
X47503624Y-50618910D01*
X48117533Y-50631794D01*
X48724168Y-50644706D01*
X49319992Y-50657569D01*
X49901470Y-50670306D01*
X50465067Y-50682838D01*
X51007248Y-50695089D01*
X51524476Y-50706981D01*
X52013217Y-50718437D01*
X52469935Y-50729379D01*
X52891095Y-50739731D01*
X53242113Y-50748614D01*
X53585281Y-50757428D01*
X53888675Y-50765282D01*
X54154839Y-50772367D01*
X54386316Y-50778875D01*
X54585649Y-50785001D01*
X54755383Y-50790935D01*
X54898060Y-50796871D01*
X55016225Y-50803000D01*
X55112421Y-50809516D01*
X55189192Y-50816611D01*
X55249080Y-50824476D01*
X55294631Y-50833306D01*
X55328387Y-50843292D01*
X55352891Y-50854626D01*
X55370688Y-50867502D01*
X55384321Y-50882111D01*
X55396334Y-50898646D01*
X55405743Y-50912331D01*
X55426831Y-50964702D01*
X55438045Y-51037818D01*
X55438778Y-51061142D01*
X55435976Y-51124536D01*
X55423563Y-51159292D01*
X55395525Y-51178951D01*
X55384483Y-51183432D01*
X55304257Y-51201972D01*
X55211466Y-51198875D01*
X55099029Y-51173098D01*
X54959864Y-51123601D01*
X54949404Y-51119409D01*
X54809866Y-51068684D01*
X54700752Y-51041057D01*
X54623538Y-51036769D01*
X54579701Y-51056059D01*
X54577485Y-51058900D01*
X54560703Y-51087292D01*
X54529693Y-51143710D01*
X54489668Y-51218575D01*
X54465111Y-51265275D01*
X54369861Y-51447492D01*
X53988861Y-51449184D01*
X53840975Y-51448930D01*
X53666062Y-51447178D01*
X53479393Y-51444170D01*
X53296238Y-51440145D01*
X53152778Y-51436039D01*
X53022120Y-51432287D01*
X52851701Y-51428221D01*
X52644091Y-51423876D01*
X52401859Y-51419289D01*
X52127577Y-51414495D01*
X51823814Y-51409530D01*
X51493141Y-51404429D01*
X51138127Y-51399229D01*
X50761344Y-51393964D01*
X50365361Y-51388671D01*
X49952748Y-51383385D01*
X49526077Y-51378142D01*
X49087916Y-51372977D01*
X48640837Y-51367926D01*
X48187410Y-51363025D01*
X47730205Y-51358309D01*
X47271792Y-51353814D01*
X47128279Y-51352457D01*
X46872608Y-51349995D01*
X46627907Y-51347483D01*
X46391899Y-51344868D01*
X46162311Y-51342094D01*
X45936865Y-51339107D01*
X45713287Y-51335854D01*
X45489301Y-51332279D01*
X45262632Y-51328328D01*
X45031003Y-51323946D01*
X44792140Y-51319080D01*
X44543766Y-51313675D01*
X44283607Y-51307676D01*
X44009387Y-51301029D01*
X43718830Y-51293681D01*
X43409661Y-51285575D01*
X43079604Y-51276658D01*
X42726383Y-51266876D01*
X42347724Y-51256174D01*
X41941350Y-51244497D01*
X41504986Y-51231792D01*
X41036357Y-51218004D01*
X40533186Y-51203078D01*
X39993199Y-51186960D01*
X39414120Y-51169596D01*
X39161611Y-51162006D01*
X38950684Y-51155325D01*
X38721212Y-51147447D01*
X38476524Y-51138526D01*
X38219945Y-51128716D01*
X37954803Y-51118173D01*
X37684425Y-51107049D01*
X37412139Y-51095498D01*
X37141270Y-51083676D01*
X36875146Y-51071736D01*
X36617095Y-51059832D01*
X36370443Y-51048118D01*
X36138517Y-51036748D01*
X35924644Y-51025877D01*
X35732151Y-51015658D01*
X35564366Y-51006247D01*
X35424615Y-50997795D01*
X35316225Y-50990459D01*
X35242524Y-50984392D01*
X35206838Y-50979748D01*
X35204080Y-50978694D01*
X35205519Y-50952922D01*
X35228460Y-50902945D01*
X35267569Y-50837299D01*
X35317513Y-50764519D01*
X35372958Y-50693140D01*
X35406635Y-50654550D01*
X35463031Y-50590714D01*
X35509967Y-50532929D01*
X35537880Y-50493011D01*
X35538926Y-50491092D01*
X35561449Y-50409905D01*
X35552776Y-50325449D01*
X35529369Y-50276083D01*
X35507186Y-50239465D01*
X35502911Y-50222357D01*
X35524838Y-50222200D01*
X35585249Y-50223655D01*
G36*
X35585249Y-50223655D02*
G01*
X35680329Y-50226587D01*
X35806265Y-50230860D01*
X35959244Y-50236339D01*
X36135451Y-50242888D01*
X36331073Y-50250371D01*
X36542295Y-50258652D01*
X36695695Y-50264783D01*
X37335092Y-50290531D01*
X37933876Y-50314629D01*
X38493733Y-50337140D01*
X39016348Y-50358125D01*
X39503407Y-50377645D01*
X39956595Y-50395762D01*
X40377598Y-50412537D01*
X40768102Y-50428032D01*
X41129792Y-50442308D01*
X41464354Y-50455426D01*
X41773474Y-50467449D01*
X42058837Y-50478437D01*
X42322129Y-50488451D01*
X42565035Y-50497555D01*
X42789241Y-50505808D01*
X42996433Y-50513272D01*
X43188297Y-50520009D01*
X43366517Y-50526081D01*
X43532781Y-50531547D01*
X43688772Y-50536471D01*
X43836177Y-50540914D01*
X43976682Y-50544937D01*
X44111972Y-50548600D01*
X44243733Y-50551967D01*
X44373651Y-50555099D01*
X44503410Y-50558056D01*
X44634697Y-50560900D01*
X44769198Y-50563693D01*
X44908597Y-50566496D01*
X45045945Y-50569202D01*
X45653600Y-50581200D01*
X46268122Y-50593535D01*
X46885975Y-50606131D01*
X47503624Y-50618910D01*
X48117533Y-50631794D01*
X48724168Y-50644706D01*
X49319992Y-50657569D01*
X49901470Y-50670306D01*
X50465067Y-50682838D01*
X51007248Y-50695089D01*
X51524476Y-50706981D01*
X52013217Y-50718437D01*
X52469935Y-50729379D01*
X52891095Y-50739731D01*
X53242113Y-50748614D01*
X53585281Y-50757428D01*
X53888675Y-50765282D01*
X54154839Y-50772367D01*
X54386316Y-50778875D01*
X54585649Y-50785001D01*
X54755383Y-50790935D01*
X54898060Y-50796871D01*
X55016225Y-50803000D01*
X55112421Y-50809516D01*
X55189192Y-50816611D01*
X55249080Y-50824476D01*
X55294631Y-50833306D01*
X55328387Y-50843292D01*
X55352891Y-50854626D01*
X55370688Y-50867502D01*
X55384321Y-50882111D01*
X55396334Y-50898646D01*
X55405743Y-50912331D01*
X55426831Y-50964702D01*
X55438045Y-51037818D01*
X55438778Y-51061142D01*
X55435976Y-51124536D01*
X55423563Y-51159292D01*
X55395525Y-51178951D01*
X55384483Y-51183432D01*
X55304257Y-51201972D01*
X55211466Y-51198875D01*
X55099029Y-51173098D01*
X54959864Y-51123601D01*
X54949404Y-51119409D01*
X54809866Y-51068684D01*
X54700752Y-51041057D01*
X54623538Y-51036769D01*
X54579701Y-51056059D01*
X54577485Y-51058900D01*
X54560703Y-51087292D01*
X54529693Y-51143710D01*
X54489668Y-51218575D01*
X54465111Y-51265275D01*
X54369861Y-51447492D01*
X53988861Y-51449184D01*
X53840975Y-51448930D01*
X53666062Y-51447178D01*
X53479393Y-51444170D01*
X53296238Y-51440145D01*
X53152778Y-51436039D01*
X53022120Y-51432287D01*
X52851701Y-51428221D01*
X52644091Y-51423876D01*
X52401859Y-51419289D01*
X52127577Y-51414495D01*
X51823814Y-51409530D01*
X51493141Y-51404429D01*
X51138127Y-51399229D01*
X50761344Y-51393964D01*
X50365361Y-51388671D01*
X49952748Y-51383385D01*
X49526077Y-51378142D01*
X49087916Y-51372977D01*
X48640837Y-51367926D01*
X48187410Y-51363025D01*
X47730205Y-51358309D01*
X47271792Y-51353814D01*
X47128279Y-51352457D01*
X46872608Y-51349995D01*
X46627907Y-51347483D01*
X46391899Y-51344868D01*
X46162311Y-51342094D01*
X45936865Y-51339107D01*
X45713287Y-51335854D01*
X45489301Y-51332279D01*
X45262632Y-51328328D01*
X45031003Y-51323946D01*
X44792140Y-51319080D01*
X44543766Y-51313675D01*
X44283607Y-51307676D01*
X44009387Y-51301029D01*
X43718830Y-51293681D01*
X43409661Y-51285575D01*
X43079604Y-51276658D01*
X42726383Y-51266876D01*
X42347724Y-51256174D01*
X41941350Y-51244497D01*
X41504986Y-51231792D01*
X41036357Y-51218004D01*
X40533186Y-51203078D01*
X39993199Y-51186960D01*
X39414120Y-51169596D01*
X39161611Y-51162006D01*
X38950684Y-51155325D01*
X38721212Y-51147447D01*
X38476524Y-51138526D01*
X38219945Y-51128716D01*
X37954803Y-51118173D01*
X37684425Y-51107049D01*
X37412139Y-51095498D01*
X37141270Y-51083676D01*
X36875146Y-51071736D01*
X36617095Y-51059832D01*
X36370443Y-51048118D01*
X36138517Y-51036748D01*
X35924644Y-51025877D01*
X35732151Y-51015658D01*
X35564366Y-51006247D01*
X35424615Y-50997795D01*
X35316225Y-50990459D01*
X35242524Y-50984392D01*
X35206838Y-50979748D01*
X35204080Y-50978694D01*
X35205519Y-50952922D01*
X35228460Y-50902945D01*
X35267569Y-50837299D01*
X35317513Y-50764519D01*
X35372958Y-50693140D01*
X35406635Y-50654550D01*
X35463031Y-50590714D01*
X35509967Y-50532929D01*
X35537880Y-50493011D01*
X35538926Y-50491092D01*
X35561449Y-50409905D01*
X35552776Y-50325449D01*
X35529369Y-50276083D01*
X35507186Y-50239465D01*
X35502911Y-50222357D01*
X35524838Y-50222200D01*
X35585249Y-50223655D01*
G37*
X38278011Y-43549337D02*
X38438579Y-43550061D01*
X38610109Y-43551440D01*
X38793773Y-43553505D01*
X38990745Y-43556289D01*
X39202197Y-43559821D01*
X39429302Y-43564135D01*
X39673233Y-43569260D01*
X39935163Y-43575228D01*
X40216264Y-43582071D01*
X40517710Y-43589821D01*
X40840673Y-43598507D01*
X41186326Y-43608163D01*
X41555842Y-43618818D01*
X41950394Y-43630506D01*
X42371155Y-43643256D01*
X42819297Y-43657100D01*
X43295994Y-43672070D01*
X43802417Y-43688197D01*
X44339741Y-43705512D01*
X44909138Y-43724048D01*
X45511780Y-43743834D01*
X46148841Y-43764902D01*
X46821493Y-43787285D01*
X47530909Y-43811012D01*
X48278263Y-43836117D01*
X49064726Y-43862629D01*
X49891472Y-43890580D01*
X50517528Y-43911790D01*
X50905908Y-43924897D01*
X51290010Y-43937741D01*
X51667002Y-43950233D01*
X52034053Y-43962283D01*
X52388332Y-43973803D01*
X52727009Y-43984703D01*
X53047253Y-43994894D01*
X53346232Y-44004287D01*
X53621115Y-44012791D01*
X53869073Y-44020319D01*
X54087273Y-44026780D01*
X54272885Y-44032086D01*
X54423077Y-44036147D01*
X54535020Y-44038874D01*
X54570945Y-44039619D01*
X54735683Y-44043071D01*
X54889730Y-44046897D01*
X55027156Y-44050903D01*
X55142033Y-44054897D01*
X55228434Y-44058684D01*
X55280428Y-44062070D01*
X55289149Y-44063085D01*
X55361770Y-44074264D01*
X55278566Y-44112127D01*
X55173828Y-44179768D01*
X55104227Y-44270307D01*
X55070676Y-44381724D01*
X55074087Y-44511998D01*
X55081143Y-44548713D01*
X55093820Y-44613121D01*
X55099495Y-44658500D01*
X55098217Y-44672245D01*
X55077208Y-44673093D01*
X55016861Y-44672912D01*
X54916980Y-44671698D01*
X54777366Y-44669446D01*
X54597822Y-44666153D01*
X54378150Y-44661814D01*
X54118152Y-44656425D01*
X53817632Y-44649981D01*
X53476391Y-44642478D01*
X53094232Y-44633912D01*
X52670957Y-44624279D01*
X52206368Y-44613574D01*
X51700269Y-44601792D01*
X51152461Y-44588931D01*
X50562747Y-44574984D01*
X49930929Y-44559949D01*
X49871945Y-44558541D01*
X49629100Y-44552552D01*
X49355463Y-44545476D01*
X49062553Y-44537630D01*
X48761887Y-44529333D01*
X48464984Y-44520903D01*
X48183361Y-44512659D01*
X47928536Y-44504918D01*
X47903445Y-44504137D01*
X47053814Y-44477709D01*
X46242901Y-44452727D01*
X45467119Y-44429086D01*
X44722879Y-44406682D01*
X44006595Y-44385407D01*
X43314679Y-44365158D01*
X42643544Y-44345829D01*
X41989603Y-44327315D01*
X41349268Y-44309510D01*
X40718952Y-44292310D01*
X40272861Y-44280336D01*
X39886017Y-44270072D01*
X39538256Y-44260977D01*
X39226345Y-44253009D01*
X38947051Y-44246126D01*
X38697140Y-44240287D01*
X38473380Y-44235450D01*
X38272538Y-44231573D01*
X38091380Y-44228615D01*
X37926673Y-44226533D01*
X37775185Y-44225287D01*
X37633682Y-44224834D01*
X37498932Y-44225132D01*
X37367700Y-44226141D01*
X37236754Y-44227818D01*
X37102862Y-44230122D01*
X36962789Y-44233010D01*
X36833278Y-44235969D01*
X35891361Y-44258184D01*
X35192861Y-44436703D01*
X35003677Y-44485190D01*
X34849589Y-44525274D01*
X34724650Y-44558922D01*
X34622913Y-44588097D01*
X34538429Y-44614764D01*
X34465252Y-44640888D01*
X34397433Y-44668435D01*
X34329025Y-44699368D01*
X34254080Y-44735653D01*
X34187445Y-44768841D01*
X34062808Y-44833764D01*
X33932815Y-44905797D01*
X33810671Y-44977355D01*
X33709581Y-45040852D01*
X33684746Y-45057601D01*
X33606106Y-45111500D01*
X33541306Y-45155190D01*
X33497595Y-45183830D01*
X33482315Y-45192742D01*
X33466595Y-45177861D01*
X33428176Y-45137087D01*
X33372420Y-45076226D01*
X33304688Y-45001081D01*
X33286727Y-44980985D01*
X33207350Y-44893244D01*
X33147003Y-44831106D01*
X33097299Y-44787922D01*
X33049851Y-44757040D01*
X32996272Y-44731809D01*
X32949408Y-44713490D01*
X32836917Y-44670891D01*
X32757985Y-44639941D01*
X32706362Y-44617888D01*
X32675800Y-44601978D01*
X32660049Y-44589457D01*
X32656183Y-44584283D01*
X32671783Y-44571653D01*
X32722032Y-44546054D01*
X32802039Y-44509637D01*
X32906911Y-44464552D01*
X33031755Y-44412947D01*
X33171680Y-44356975D01*
X33188057Y-44350536D01*
X33378294Y-44276880D01*
X33543066Y-44215791D01*
X33694306Y-44163409D01*
X33843950Y-44115873D01*
X34003931Y-44069324D01*
X34186183Y-44019901D01*
X34311000Y-43987311D01*
X34673312Y-43895678D01*
X34998824Y-43817733D01*
X35290577Y-43752854D01*
X35551614Y-43700423D01*
X35784976Y-43659818D01*
X35993704Y-43630420D01*
X36134778Y-43615454D01*
X36235387Y-43607838D01*
X36371259Y-43599628D01*
X36535334Y-43591141D01*
X36720551Y-43582698D01*
X36919849Y-43574618D01*
X37126168Y-43567219D01*
X37332447Y-43560820D01*
X37362445Y-43559980D01*
X37479120Y-43556996D01*
X37598547Y-43554448D01*
X37721899Y-43552366D01*
X37850349Y-43550783D01*
X37985069Y-43549730D01*
X38127232Y-43549237D01*
X38278011Y-43549337D01*
G36*
X38278011Y-43549337D02*
G01*
X38438579Y-43550061D01*
X38610109Y-43551440D01*
X38793773Y-43553505D01*
X38990745Y-43556289D01*
X39202197Y-43559821D01*
X39429302Y-43564135D01*
X39673233Y-43569260D01*
X39935163Y-43575228D01*
X40216264Y-43582071D01*
X40517710Y-43589821D01*
X40840673Y-43598507D01*
X41186326Y-43608163D01*
X41555842Y-43618818D01*
X41950394Y-43630506D01*
X42371155Y-43643256D01*
X42819297Y-43657100D01*
X43295994Y-43672070D01*
X43802417Y-43688197D01*
X44339741Y-43705512D01*
X44909138Y-43724048D01*
X45511780Y-43743834D01*
X46148841Y-43764902D01*
X46821493Y-43787285D01*
X47530909Y-43811012D01*
X48278263Y-43836117D01*
X49064726Y-43862629D01*
X49891472Y-43890580D01*
X50517528Y-43911790D01*
X50905908Y-43924897D01*
X51290010Y-43937741D01*
X51667002Y-43950233D01*
X52034053Y-43962283D01*
X52388332Y-43973803D01*
X52727009Y-43984703D01*
X53047253Y-43994894D01*
X53346232Y-44004287D01*
X53621115Y-44012791D01*
X53869073Y-44020319D01*
X54087273Y-44026780D01*
X54272885Y-44032086D01*
X54423077Y-44036147D01*
X54535020Y-44038874D01*
X54570945Y-44039619D01*
X54735683Y-44043071D01*
X54889730Y-44046897D01*
X55027156Y-44050903D01*
X55142033Y-44054897D01*
X55228434Y-44058684D01*
X55280428Y-44062070D01*
X55289149Y-44063085D01*
X55361770Y-44074264D01*
X55278566Y-44112127D01*
X55173828Y-44179768D01*
X55104227Y-44270307D01*
X55070676Y-44381724D01*
X55074087Y-44511998D01*
X55081143Y-44548713D01*
X55093820Y-44613121D01*
X55099495Y-44658500D01*
X55098217Y-44672245D01*
X55077208Y-44673093D01*
X55016861Y-44672912D01*
X54916980Y-44671698D01*
X54777366Y-44669446D01*
X54597822Y-44666153D01*
X54378150Y-44661814D01*
X54118152Y-44656425D01*
X53817632Y-44649981D01*
X53476391Y-44642478D01*
X53094232Y-44633912D01*
X52670957Y-44624279D01*
X52206368Y-44613574D01*
X51700269Y-44601792D01*
X51152461Y-44588931D01*
X50562747Y-44574984D01*
X49930929Y-44559949D01*
X49871945Y-44558541D01*
X49629100Y-44552552D01*
X49355463Y-44545476D01*
X49062553Y-44537630D01*
X48761887Y-44529333D01*
X48464984Y-44520903D01*
X48183361Y-44512659D01*
X47928536Y-44504918D01*
X47903445Y-44504137D01*
X47053814Y-44477709D01*
X46242901Y-44452727D01*
X45467119Y-44429086D01*
X44722879Y-44406682D01*
X44006595Y-44385407D01*
X43314679Y-44365158D01*
X42643544Y-44345829D01*
X41989603Y-44327315D01*
X41349268Y-44309510D01*
X40718952Y-44292310D01*
X40272861Y-44280336D01*
X39886017Y-44270072D01*
X39538256Y-44260977D01*
X39226345Y-44253009D01*
X38947051Y-44246126D01*
X38697140Y-44240287D01*
X38473380Y-44235450D01*
X38272538Y-44231573D01*
X38091380Y-44228615D01*
X37926673Y-44226533D01*
X37775185Y-44225287D01*
X37633682Y-44224834D01*
X37498932Y-44225132D01*
X37367700Y-44226141D01*
X37236754Y-44227818D01*
X37102862Y-44230122D01*
X36962789Y-44233010D01*
X36833278Y-44235969D01*
X35891361Y-44258184D01*
X35192861Y-44436703D01*
X35003677Y-44485190D01*
X34849589Y-44525274D01*
X34724650Y-44558922D01*
X34622913Y-44588097D01*
X34538429Y-44614764D01*
X34465252Y-44640888D01*
X34397433Y-44668435D01*
X34329025Y-44699368D01*
X34254080Y-44735653D01*
X34187445Y-44768841D01*
X34062808Y-44833764D01*
X33932815Y-44905797D01*
X33810671Y-44977355D01*
X33709581Y-45040852D01*
X33684746Y-45057601D01*
X33606106Y-45111500D01*
X33541306Y-45155190D01*
X33497595Y-45183830D01*
X33482315Y-45192742D01*
X33466595Y-45177861D01*
X33428176Y-45137087D01*
X33372420Y-45076226D01*
X33304688Y-45001081D01*
X33286727Y-44980985D01*
X33207350Y-44893244D01*
X33147003Y-44831106D01*
X33097299Y-44787922D01*
X33049851Y-44757040D01*
X32996272Y-44731809D01*
X32949408Y-44713490D01*
X32836917Y-44670891D01*
X32757985Y-44639941D01*
X32706362Y-44617888D01*
X32675800Y-44601978D01*
X32660049Y-44589457D01*
X32656183Y-44584283D01*
X32671783Y-44571653D01*
X32722032Y-44546054D01*
X32802039Y-44509637D01*
X32906911Y-44464552D01*
X33031755Y-44412947D01*
X33171680Y-44356975D01*
X33188057Y-44350536D01*
X33378294Y-44276880D01*
X33543066Y-44215791D01*
X33694306Y-44163409D01*
X33843950Y-44115873D01*
X34003931Y-44069324D01*
X34186183Y-44019901D01*
X34311000Y-43987311D01*
X34673312Y-43895678D01*
X34998824Y-43817733D01*
X35290577Y-43752854D01*
X35551614Y-43700423D01*
X35784976Y-43659818D01*
X35993704Y-43630420D01*
X36134778Y-43615454D01*
X36235387Y-43607838D01*
X36371259Y-43599628D01*
X36535334Y-43591141D01*
X36720551Y-43582698D01*
X36919849Y-43574618D01*
X37126168Y-43567219D01*
X37332447Y-43560820D01*
X37362445Y-43559980D01*
X37479120Y-43556996D01*
X37598547Y-43554448D01*
X37721899Y-43552366D01*
X37850349Y-43550783D01*
X37985069Y-43549730D01*
X38127232Y-43549237D01*
X38278011Y-43549337D01*
G37*
%TD*%
D11*
%TO.C,R2*%
X54500000Y-73000000D03*
X54500000Y-75000000D03*
%TD*%
D12*
%TO.C,D1*%
X51465000Y-55430000D03*
D13*
X54005000Y-55430000D03*
%TD*%
D14*
%TO.C,X1*%
X45500000Y-75048400D03*
D15*
X45500000Y-77588400D03*
D14*
X48040000Y-75048400D03*
X48040000Y-77588400D03*
D16*
X50580000Y-75048400D03*
X50580000Y-77588400D03*
%TD*%
D17*
%TO.C,D3*%
X51525000Y-23730000D03*
X49475000Y-23730000D03*
%TD*%
%TO.C,D2*%
X45255000Y-23130000D03*
X43205000Y-23130000D03*
%TD*%
%TO.C,D4*%
X38095000Y-23090000D03*
X36045000Y-23090000D03*
%TD*%
M02*
